RecursiveMono-CasualB14Italic.ufo
<glyph name="exclam" format="1">
  <advance width="600.0"/>
  <unicode hex="0021"/>
  <outline>
    <contour>
      <point x="355.30222463374935" y="290.0" type="line"/>
      <point x="370.51926207270753" y="352.6511123168747"/>
      <point x="382.95333695062396" y="420.7200217037439"/>
      <point x="389.21703743895824" y="482.805208898535" type="curve"/>
      <point x="389.21703743895824" y="663.7059142702116" type="line" smooth="yes"/>
      <point x="389.21703743895824" y="698.3955507325013"/>
      <point x="367.6673901247965" y="710.0"/>
      <point x="318.80737927292455" y="710.0" type="curve" smooth="yes"/>
      <point x="265.6207270754205" y="710.0"/>
      <point x="227.046663049376" y="709.0"/>
      <point x="200.9148128052089" y="706.1318502441671" type="curve"/>
      <point x="207.56592512208357" y="670.914812805209"/>
      <point x="209.21703743895822" y="635.4807379272925"/>
      <point x="209.21703743895822" y="597.8296256104178" type="curve" smooth="yes"/>
      <point x="209.21703743895822" y="483.32447097124253" type="line"/>
      <point x="227.22517634291916" y="406.6733586543679"/>
      <point x="233.17851329354312" y="321.07704829083013"/>
      <point x="248.9148128052089" y="305.3407487791644" type="curve" smooth="yes"/>
      <point x="260.0851871947911" y="294.1703743895822"/>
      <point x="278.2088985349973" y="290.0"/>
      <point x="299.58817145957676" y="290.0" type="curve"/>
    </contour>
    <component base="period"/>
  </outline>
</glyph>
<glyph name="numbersign" format="1">
  <advance width="600.0"/>
  <unicode hex="0023"/>
  <outline>
    <contour>
      <point x="184.44221378187737" y="715.0" type="curve"/>
      <point x="184.44221378187737" y="513.0"/>
      <point x="155.09332609875204" y="239.21703743895822"/>
      <point x="47.09332609875204" y="-12.697775366250678" type="curve"/>
      <point x="72.40368963646229" y="-16.782962561041778"/>
      <point x="96.14812805208899" y="-20.0"/>
      <point x="125.93109061313076" y="-20.0" type="curve"/>
      <point x="148.27183939229516" y="-20.0"/>
      <point x="162.52740097666847" y="-15.131850244167119"/>
      <point x="171.52740097666847" y="6.085187194791102" type="curve" smooth="yes"/>
      <point x="270.39555073250136" y="252.1703743895822"/>
      <point x="298.7444384156267" y="523.0162778079218"/>
      <point x="298.7444384156267" y="696.9614758545849" type="curve" smooth="yes"/>
      <point x="298.7444384156267" y="716.8296256104178"/>
      <point x="281.13998914812805" y="720.0"/>
      <point x="264.5436787845903" y="720.0" type="curve" smooth="yes"/>
      <point x="238.3651654910472" y="720.0"/>
      <point x="209.62072707542052" y="718.2170374389582"/>
    </contour>
    <contour>
      <point x="391.7362995116658" y="715.0" type="curve"/>
      <point x="391.7362995116658" y="516.1318502441671"/>
      <point x="362.38741182854045" y="239.21703743895822"/>
      <point x="254.38741182854042" y="-12.697775366250678" type="curve"/>
      <point x="278.13185024416714" y="-16.782962561041778"/>
      <point x="305.0081389039609" y="-20.0"/>
      <point x="333.22517634291916" y="-20.0" type="curve"/>
      <point x="355.56592512208357" y="-20.0"/>
      <point x="369.8214867064569" y="-15.131850244167119"/>
      <point x="378.8214867064569" y="6.085187194791102" type="curve" smooth="yes"/>
      <point x="477.68963646228974" y="252.1703743895822"/>
      <point x="506.03852414541507" y="523.0162778079218"/>
      <point x="506.03852414541507" y="696.9614758545849" type="curve" smooth="yes"/>
      <point x="506.03852414541507" y="716.8296256104178"/>
      <point x="488.43407487791643" y="720.0"/>
      <point x="471.8377645143787" y="720.0" type="curve" smooth="yes"/>
      <point x="446.4422137818774" y="720.0"/>
      <point x="415.3488876831253" y="718.2170374389582"/>
    </contour>
    <contour>
      <point x="568.0770482908301" y="431.7444384156267" type="line"/>
      <point x="568.0770482908301" y="435.39555073250136"/>
      <point x="568.0770482908301" y="490.7221920781335"/>
      <point x="568.0770482908301" y="494.59034183396636" type="curve" smooth="yes"/>
      <point x="568.0770482908301" y="517.5355398806294"/>
      <point x="563.5577862181226" y="532.0081389039609"/>
      <point x="553.8214867064569" y="541.7444384156267" type="curve" smooth="yes"/>
      <point x="548.2170374389582" y="547.3488876831253"/>
      <point x="540.7444384156267" y="550.0"/>
      <point x="526.8459034183396" y="550.0" type="curve"/>
      <point x="74.40368963646229" y="550.0" type="line"/>
      <point x="73.53553988062941" y="543.0933260987521"/>
      <point x="72.88442756375474" y="484.0770482908302"/>
      <point x="72.88442756375474" y="477.60444926749864" type="curve" smooth="yes"/>
      <point x="72.88442756375474" y="449.31036353771026"/>
      <point x="80.48887683125339" y="431.7444384156267"/>
      <point x="106.73629951166576" y="431.7444384156267" type="curve"/>
    </contour>
    <contour>
      <point x="35.05480195333695" y="260.4259359739555" type="line"/>
      <point x="35.05480195333695" y="256.77482365708084"/>
      <point x="35.05480195333695" y="209.27780792186653"/>
      <point x="35.05480195333695" y="205.40965816603364" type="curve" smooth="yes"/>
      <point x="35.05480195333695" y="182.38429313741307"/>
      <point x="39.47456084781604" y="168.0913642742675"/>
      <point x="49.31036353771026" y="158.2555615843733" type="curve" smooth="yes"/>
      <point x="54.914812805208896" y="152.65111231687467"/>
      <point x="62.38741182854042" y="150.0"/>
      <point x="76.28594682582745" y="150.0" type="curve"/>
      <point x="528.7281606077048" y="150.0" type="line"/>
      <point x="529.5963103635377" y="156.90667390124796"/>
      <point x="530.2474226804123" y="208.09332609875204"/>
      <point x="530.2474226804123" y="214.56592512208357" type="curve" smooth="yes"/>
      <point x="530.2474226804123" y="242.8225906037757"/>
      <point x="522.6429734129138" y="260.4259359739555"/>
      <point x="496.39555073250136" y="260.4259359739555" type="curve"/>
    </contour>
  </outline>
</glyph>
<glyph name="plus" format="1">
  <advance width="600.0"/>
  <unicode hex="002B"/>
  <outline>
    <contour>
      <point x="45.085187194791104" y="374.21703743895824" type="line"/>
      <point x="45.085187194791104" y="344.7281606077048"/>
      <point x="45.085187194791104" y="315.23928377645143"/>
      <point x="45.085187194791104" y="285.5333695062398" type="curve" smooth="yes"/>
      <point x="45.085187194791104" y="260.20075963103636"/>
      <point x="49.17037438958221" y="244.20889853499727"/>
      <point x="59.34074877916441" y="234.03852414541507" type="curve" smooth="yes"/>
      <point x="64.94519804666305" y="228.43407487791643"/>
      <point x="72.41779706999458" y="225.78296256104178"/>
      <point x="86.3163320672816" y="225.78296256104178" type="curve"/>
      <point x="555.5659251220835" y="225.78296256104178" type="line"/>
      <point x="556.4340748779165" y="258.52740097666845"/>
      <point x="557.0851871947912" y="291.7059142702116"/>
      <point x="557.0851871947912" y="324.0162778079219" type="curve" smooth="yes"/>
      <point x="557.0851871947912" y="355.56592512208357"/>
      <point x="549.4807379272925" y="374.21703743895824"/>
      <point x="523.2333152468801" y="374.21703743895824" type="curve"/>
    </contour>
    <contour>
      <point x="375.21703743895824" y="48.95333695062398" type="curve"/>
      <point x="375.21703743895824" y="469.0162778079219" type="line" smooth="yes"/>
      <point x="375.21703743895824" y="501.4422137818774"/>
      <point x="372.13185024416714" y="522.139989148128"/>
      <point x="358.39555073250136" y="535.8762886597938" type="curve" smooth="yes"/>
      <point x="345.7911014650027" y="548.4807379272925"/>
      <point x="328.49701573521435" y="551.5659251220835"/>
      <point x="313.7221920781335" y="551.5659251220835" type="curve" smooth="yes"/>
      <point x="281.71405317417253" y="551.5659251220835"/>
      <point x="253.62072707542052" y="550.5659251220835"/>
      <point x="213.78296256104178" y="548.3488876831253" type="curve"/>
      <point x="222.78296256104178" y="510.0"/>
      <point x="225.21703743895822" y="494.6592512208356"/>
      <point x="225.21703743895822" y="458.7911014650027" type="curve" smooth="yes"/>
      <point x="225.21703743895822" y="79.11557243624526" type="line" smooth="yes"/>
      <point x="225.21703743895822" y="53.30222463374932"/>
      <point x="246.90667390124796" y="47.65111231687466"/>
      <point x="276.50298426478565" y="47.65111231687466" type="curve" smooth="yes"/>
      <point x="312.8133478024959" y="47.65111231687466"/>
      <point x="340.6429734129137" y="48.085187194791104"/>
    </contour>
  </outline>
</glyph>
<glyph name="hyphen" format="1">
  <advance width="600.0"/>
  <unicode hex="002D"/>
  <outline>
    <contour>
      <point x="95.30222463374932" y="371.6511123168747" type="line"/>
      <point x="95.30222463374932" y="342.1622354856213"/>
      <point x="95.30222463374932" y="316.58817145957676"/>
      <point x="95.30222463374932" y="286.8822571893652" type="curve" smooth="yes"/>
      <point x="95.30222463374932" y="261.4488799317882"/>
      <point x="99.38725470684233" y="245.55794333982072"/>
      <point x="109.55778621812263" y="235.38741182854042" type="curve" smooth="yes"/>
      <point x="115.16223548562127" y="229.78296256104178"/>
      <point x="122.63483450895279" y="227.1318502441671"/>
      <point x="136.53336950623984" y="227.1318502441671" type="curve"/>
      <point x="505.78296256104176" y="227.1318502441671" type="line"/>
      <point x="506.6511123168747" y="259.87628865979383"/>
      <point x="507.30222463374935" y="289.13998914812805"/>
      <point x="507.30222463374935" y="321.4503526858383" type="curve" smooth="yes"/>
      <point x="507.30222463374935" y="353.0"/>
      <point x="499.69777536625065" y="371.6511123168747"/>
      <point x="473.4503526858383" y="371.6511123168747" type="curve"/>
    </contour>
  </outline>
</glyph>
<glyph name="zero" format="1">
  <advance width="600.0"/>
  <unicode hex="0030"/>
  <outline>
    <contour>
      <point x="303.56592512208357" y="720.0" type="curve" smooth="yes"/>
      <point x="170.20347259902334" y="720.0"/>
      <point x="50.0" y="594.4888768312534"/>
      <point x="50.0" y="361.7444384156267" type="curve" smooth="yes"/>
      <point x="50.0" y="313.9148128052089" type="line" smooth="yes"/>
      <point x="50.0" y="93.47259902333153"/>
      <point x="162.6657929518483" y="-20.0"/>
      <point x="296.0851871947911" y="-20.0" type="curve"/>
      <point x="327.9053174172545" y="-20.0"/>
      <point x="342.11557243624526" y="6.255561584373304"/>
      <point x="330.37113402061857" y="96.70591427021161" type="curve"/>
      <point x="207.15968190365336" y="112.49523800584214"/>
      <point x="200.0" y="224.17254476397179"/>
      <point x="200.0" y="311.79924036896364" type="curve" smooth="yes"/>
      <point x="200.0" y="355.23331524688007" type="line" smooth="yes"/>
      <point x="200.0" y="481.0081389039609"/>
      <point x="234.1703743895822" y="575.6977753662507"/>
      <point x="312.2555615843733" y="575.6977753662507" type="curve" smooth="yes"/>
      <point x="366.2555615843733" y="575.6977753662507"/>
      <point x="404.87628865979383" y="567.0"/>
      <point x="435.7911014650027" y="549.6511123168747" type="curve"/>
      <point x="446.1060189591776" y="631.2156228658515"/>
      <point x="391.3303497806127" y="720.0"/>
    </contour>
    <contour>
      <point x="296.0851871947911" y="-20.0" type="curve" smooth="yes"/>
      <point x="429.97377464279253" y="-20.0"/>
      <point x="550.0" y="101.17037438958221"/>
      <point x="550.0" y="327.4036896364623" type="curve" smooth="yes"/>
      <point x="550.0" y="375.23331524688007" type="line" smooth="yes"/>
      <point x="550.0" y="602.4036896364623"/>
      <point x="437.99793035324234" y="720.0"/>
      <point x="303.56592512208357" y="720.0" type="curve"/>
      <point x="272.1378187737385" y="720.0"/>
      <point x="257.88442756375474" y="693.7444384156267"/>
      <point x="269.62886597938143" y="603.2940857297884" type="curve"/>
      <point x="391.76071622354857" y="587.6348345089527"/>
      <point x="400.0" y="471.2230059685296"/>
      <point x="400.0" y="377.3488876831253" type="curve" smooth="yes"/>
      <point x="400.0" y="333.9148128052089" type="line" smooth="yes"/>
      <point x="400.0" y="212.0851871947911"/>
      <point x="365.8296256104178" y="124.30222463374932"/>
      <point x="276.78296256104176" y="124.30222463374932" type="curve" smooth="yes"/>
      <point x="213.38741182854042" y="124.30222463374932"/>
      <point x="195.12371134020617" y="132.21703743895822"/>
      <point x="164.20889853499727" y="150.34888768312533" type="curve"/>
      <point x="153.81277650088924" y="64.00539722796468"/>
      <point x="210.93821696053593" y="-20.0"/>
    </contour>
    <contour>
      <point x="154.30222463374932" y="180.20889853499727" type="curve"/>
      <point x="270.0295623688233" y="241.65842923170322"/>
      <point x="350.19226394281543" y="303.37662858939086"/>
      <point x="430.43407487791643" y="395.9148128052089" type="curve"/>
      <point x="462.13185024416714" y="428.8296256104178"/>
      <point x="461.03852414541507" y="450.07704829083013"/>
      <point x="430.6511123168747" y="525.4807379272925" type="curve"/>
      <point x="335.2685581886378" y="406.265709700691"/>
      <point x="248.27203616117419" y="350.89424834152754"/>
      <point x="136.43407487791643" y="285.39555073250136" type="curve" smooth="yes"/>
      <point x="114.56592512208356" y="271.96147585458493"/>
      <point x="115.4259359739555" y="249.79110146500273"/>
    </contour>
  </outline>
</glyph>
<glyph name="one" format="1">
  <advance width="600.0"/>
  <unicode hex="0031"/>
  <outline>
    <contour>
      <point x="410.0" y="59.774823657080844" type="curve"/>
      <point x="410.0" y="266.7131691553573"/>
      <point x="410.0" y="475.2939540648815"/>
      <point x="410.0" y="682.2251763429191" type="curve" smooth="yes"/>
      <point x="410.0" y="703.1758003255562"/>
      <point x="382.75257731958766" y="710.0"/>
      <point x="351.5518176885513" y="710.0" type="curve" smooth="yes"/>
      <point x="260.0" y="710.0" type="line"/>
      <point x="260.0" y="533.5737067084333"/>
      <point x="260.0" y="351.6348345089528"/>
      <point x="260.0" y="175.62669560499185" type="curve" smooth="yes"/>
      <point x="260.0" y="92.46988605534455"/>
      <point x="323.1703743895822" y="59.774823657080844"/>
    </contour>
    <contour>
      <point x="71.38741182854042" y="146.0851871947911" type="line"/>
      <point x="69.82148670645687" y="116.59631036353771"/>
      <point x="69.03852414541508" y="91.805208898535"/>
      <point x="69.03852414541508" y="55.05263157894737" type="curve" smooth="yes"/>
      <point x="69.03852414541508" y="32.851871947911015"/>
      <point x="72.34074877916441" y="19.20889853499729"/>
      <point x="81.72816060770484" y="9.821486706456863" type="curve" smooth="yes"/>
      <point x="88.89853499728703" y="2.651112316874661"/>
      <point x="96.37113402061856" y="0.0"/>
      <point x="114.96744438415627" y="0.0" type="curve" smooth="yes"/>
      <point x="562.2637004883343" y="0.0" type="line"/>
      <point x="563.1318502441671" y="24.961475854584915"/>
      <point x="563.5659251220835" y="54.40368963646229"/>
      <point x="563.5659251220835" y="89.97775366250679" type="curve" smooth="yes"/>
      <point x="563.5659251220835" y="123.22517634291916"/>
      <point x="486.6429734129137" y="146.0851871947911"/>
      <point x="365.4259359739555" y="146.0851871947911" type="curve" smooth="yes"/>
    </contour>
    <contour>
      <point x="120.95333695062398" y="427.3570265870863" type="curve" smooth="yes"/>
      <point x="138.64297341291373" y="427.3570265870863"/>
      <point x="194.96147585458493" y="467.76071622354857"/>
      <point x="227.31036353771026" y="464.0933260987521" type="curve" smooth="yes"/>
      <point x="294.60016042823526" y="521.9875722567757"/>
      <point x="358.6370048833424" y="602.220480626366"/>
      <point x="358.6370048833424" y="633.4725990233316" type="curve" smooth="yes"/>
      <point x="358.6370048833424" y="665.8406615766219"/>
      <point x="340.6660479195819" y="710.0"/>
      <point x="272.1785132935431" y="710.0" type="curve"/>
      <point x="250.9148128052089" y="710.0" type="line"/>
      <point x="235.7444384156267" y="685.9614758545849"/>
      <point x="219.22517634291916" y="665.5740640260445"/>
      <point x="193.44221378187737" y="644.2718393922952" type="curve"/>
      <point x="161.52740097666847" y="617.0548019533369"/>
      <point x="128.7444384156267" y="600.101465002713"/>
      <point x="94.5740640260445" y="592.9777536625068" type="curve"/>
      <point x="94.5740640260445" y="481.85187194791104" type="line" smooth="yes"/>
      <point x="94.5740640260445" y="444.1703743895822"/>
      <point x="108.96147585458492" y="427.3570265870863"/>
    </contour>
  </outline>
</glyph>
<glyph name="six" format="1">
  <advance width="600.0"/>
  <unicode hex="0036"/>
  <outline>
    <contour>
      <point x="112.68149755832881" y="200.27183939229516" type="curve"/>
      <point x="101.73629951166576" y="63.11557243624526"/>
      <point x="225.2876156001213" y="-20.782962561041778"/>
      <point x="310.78296256104176" y="-20.782962561041778" type="curve"/>
      <point x="452.8896963130343" y="-20.782962561041778"/>
      <point x="553.1318502441671" y="72.14218536030798"/>
      <point x="553.1318502441671" y="195.30222463374932" type="curve" smooth="yes"/>
      <point x="553.1318502441671" y="198.73629951166578" type="line" smooth="yes"/>
      <point x="553.1318502441671" y="294.9197996959819"/>
      <point x="445.52547940049527" y="363.15873861607446"/>
      <point x="356.4259359739555" y="340.093326098752" type="curve"/>
      <point x="393.0" y="286.1232772653283"/>
      <point x="406.2637004883342" y="250.10992946283233"/>
      <point x="406.2637004883342" y="189.51112316874662" type="curve" smooth="yes"/>
      <point x="406.2637004883342" y="212.34888768312533" type="line" smooth="yes"/>
      <point x="406.2637004883342" y="162.76963026122007"/>
      <point x="372.8296256104178" y="125.30222463374932"/>
      <point x="308.52740097666845" y="125.30222463374932" type="curve" smooth="yes"/>
      <point x="236.79784512828462" y="125.30222463374932"/>
      <point x="171.60444926749864" y="143.86814975583286"/>
    </contour>
    <contour>
      <point x="152.11557243624526" y="484.77482365708084" type="curve"/>
      <point x="212.51112316874662" y="542.3022246337493"/>
      <point x="263.3807763749359" y="567.6511123168747"/>
      <point x="350.3407487791644" y="567.6511123168747" type="curve" smooth="yes"/>
      <point x="420.3511461408911" y="567.6511123168747"/>
      <point x="462.0410529800524" y="555.8197227638087"/>
      <point x="501.60444926749864" y="540.6977753662507" type="curve"/>
      <point x="512.6511123168747" y="540.6977753662507" type="line"/>
      <point x="515.6511123168747" y="575.2718393922952"/>
      <point x="516.8681497558329" y="609.2799782962561"/>
      <point x="516.8681497558329" y="646.3733043950082" type="curve" smooth="yes"/>
      <point x="516.8681497558329" y="671.5731632153148"/>
      <point x="510.63905175802466" y="687.8498250732288"/>
      <point x="501.31036353771026" y="697.1785132935431" type="curve" smooth="yes"/>
      <point x="494.63786840821257" y="703.8510084230409"/>
      <point x="437.09286989483167" y="720.0"/>
      <point x="367.7444384156267" y="720.0" type="curve" smooth="yes"/>
      <point x="219.57093991724318" y="720.0"/>
      <point x="118.21694016914614" y="599.6775654303109"/>
    </contour>
    <contour>
      <point x="50.0" y="309.48073792729247" type="curve" smooth="yes"/>
      <point x="50.0" y="305.6125881714596" type="line" smooth="yes"/>
      <point x="50.0" y="95.95653602770139"/>
      <point x="155.98190277184517" y="-20.782962561041778"/>
      <point x="310.78296256104176" y="-20.782962561041778" type="curve" smooth="yes"/>
      <point x="326.86532826912645" y="-20.782962561041778"/>
      <point x="353.78211698418505" y="-3.454467979123833"/>
      <point x="341.0" y="93.32664134563213" type="curve"/>
      <point x="243.61258817145958" y="99.6207270754205"/>
      <point x="204.0" y="167.5219552380085"/>
      <point x="204.0" y="299.96147585458493" type="curve" smooth="yes"/>
      <point x="204.0" y="312.4422137818774" type="line" smooth="yes"/>
      <point x="204.0" y="509.13185024416714"/>
      <point x="251.7444384156267" y="587.6977753662507"/>
      <point x="374.94519804666305" y="604.1926207270755" type="curve"/>
      <point x="404.69777536625065" y="695.0"/>
      <point x="388.85723144385264" y="720.0"/>
      <point x="367.7444384156267" y="720.0" type="curve" smooth="yes"/>
      <point x="218.66116695762366" y="720.0"/>
      <point x="50.0" y="638.4036896364623"/>
    </contour>
    <contour>
      <point x="360.7444384156267" y="407.13185024416714" type="curve" smooth="yes"/>
      <point x="302.093326098752" y="407.13185024416714"/>
      <point x="232.31036353771026" y="382.21703743895824"/>
      <point x="195.69777536625068" y="346.38741182854045" type="curve" smooth="yes"/>
      <point x="179.7444384156267" y="330.43407487791643"/>
      <point x="176.52740097666847" y="313.13185024416714"/>
      <point x="175.65925122083559" y="231.68963646228974" type="curve"/>
      <point x="213.65111231687467" y="257.60444926749864"/>
      <point x="267.0851871947911" y="272.95333695062396"/>
      <point x="319.21703743895824" y="272.95333695062396" type="curve" smooth="yes"/>
      <point x="393.1622354856213" y="272.95333695062396"/>
      <point x="436.3326098752035" y="229.06131307650568"/>
      <point x="436.3326098752035" y="155.07704829083016" type="curve" smooth="yes"/>
      <point x="436.3326098752035" y="136.13314124272642"/>
      <point x="435.3326098752035" y="123.61807023780568"/>
      <point x="431.898534997287" y="111.64297341291373" type="curve"/>
      <point x="523.0081389039609" y="108.51112316874661"/>
      <point x="553.1318502441671" y="172.24735266833528"/>
      <point x="553.1318502441671" y="198.51926207270753" type="curve" smooth="yes"/>
      <point x="553.1318502441671" y="326.4365811435806"/>
      <point x="474.87628865979383" y="407.13185024416714"/>
    </contour>
  </outline>
</glyph>
<glyph name="equal" format="1">
  <advance width="600.0"/>
  <unicode hex="003D"/>
  <outline>
    <contour>
      <point x="45.30222463374932" y="500.0" type="line"/>
      <point x="45.30222463374932" y="470.5111231687466"/>
      <point x="45.30222463374932" y="445.7200217037439"/>
      <point x="45.30222463374932" y="416.0141074335323" type="curve" smooth="yes"/>
      <point x="45.30222463374932" y="390.68149755832883"/>
      <point x="49.38741182854042" y="374.68963646228974"/>
      <point x="59.55778621812263" y="364.51926207270753" type="curve" smooth="yes"/>
      <point x="65.16223548562127" y="358.9148128052089"/>
      <point x="72.63483450895279" y="356.2637004883342"/>
      <point x="86.53336950623984" y="356.2637004883342" type="curve"/>
      <point x="555.7829625610418" y="356.2637004883342" type="line"/>
      <point x="556.6511123168747" y="389.0081389039609"/>
      <point x="557.3022246337493" y="417.4888768312534"/>
      <point x="557.3022246337493" y="449.79924036896364" type="curve" smooth="yes"/>
      <point x="557.3022246337493" y="481.3488876831253"/>
      <point x="549.6977753662507" y="500.0"/>
      <point x="523.4503526858383" y="500.0" type="curve"/>
    </contour>
    <contour>
      <point x="557.3022246337493" y="98.43407487791643" type="line"/>
      <point x="557.3022246337493" y="127.92295170916984"/>
      <point x="557.3022246337493" y="152.71405317417253"/>
      <point x="557.3022246337493" y="182.41996744438416" type="curve" smooth="yes"/>
      <point x="557.3022246337493" y="207.75257731958763"/>
      <point x="553.2170374389582" y="223.7444384156267"/>
      <point x="543.046663049376" y="233.9148128052089" type="curve" smooth="yes"/>
      <point x="537.4422137818774" y="239.51926207270753"/>
      <point x="529.9696147585458" y="242.1703743895822"/>
      <point x="516.0710797612588" y="242.1703743895822" type="curve"/>
      <point x="46.82148670645687" y="242.1703743895822" type="line"/>
      <point x="45.95333695062398" y="209.42593597395552"/>
      <point x="45.30222463374932" y="180.94519804666305"/>
      <point x="45.30222463374932" y="148.6348345089528" type="curve" smooth="yes"/>
      <point x="45.30222463374932" y="117.0851871947911"/>
      <point x="52.90667390124797" y="98.43407487791643"/>
      <point x="79.15409658166034" y="98.43407487791643" type="curve"/>
    </contour>
  </outline>
</glyph>
<glyph name="question" format="1">
  <advance width="600.0"/>
  <unicode hex="003F"/>
  <outline>
    <contour>
      <point x="300.30222463374935" y="720.0" type="curve" smooth="yes"/>
      <point x="214.25872671369146" y="720.0"/>
      <point x="149.53314282678036" y="701.184255143655"/>
      <point x="134.13998914812805" y="686.5740640260445" type="curve" smooth="yes"/>
      <point x="103.74443841562669" y="656.9614758545849"/>
      <point x="84.9148128052089" y="620.9614758545849"/>
      <point x="84.9148128052089" y="583.8762886597938" type="curve" smooth="yes"/>
      <point x="84.9148128052089" y="540.4340748779165"/>
      <point x="94.96147585458492" y="489.5496473141617"/>
      <point x="106.09332609875203" y="466.41779706999455" type="curve"/>
      <point x="117.92295170916984" y="466.41779706999455" type="line"/>
      <point x="139.0876458958468" y="522.1893556877465"/>
      <point x="202.17339819008225" y="567.6511123168747"/>
      <point x="301.03852414541507" y="567.6511123168747" type="curve" smooth="yes"/>
      <point x="379.11868661275986" y="567.6511123168747"/>
      <point x="402.0770482908302" y="540.1703743895822"/>
      <point x="402.0770482908302" y="523.4807379272925" type="curve" smooth="yes"/>
      <point x="402.0770482908302" y="497.48073792729247"/>
      <point x="401.4259359739555" y="485.7444384156267"/>
      <point x="397.77482365708084" y="465.52740097666845" type="curve"/>
      <point x="504.1851970901143" y="464.8201343304416"/>
      <point x="527.953336950624" y="508.8270514454441"/>
      <point x="527.953336950624" y="547.3570265870862" type="curve" smooth="yes"/>
      <point x="527.953336950624" y="618.0385241454151"/>
      <point x="475.314161692892" y="720.0"/>
    </contour>
    <contour>
      <point x="328.07704829083013" y="668.3185024416712" type="curve"/>
      <point x="356.86001085187195" y="631.7992403689636"/>
      <point x="376.95333695062396" y="598.9229517091699"/>
      <point x="376.95333695062396" y="551.9614758545849" type="curve" smooth="yes"/>
      <point x="376.95333695062396" y="508.86814975583286"/>
      <point x="370.1703743895822" y="480.51926207270753"/>
      <point x="310.2555615843733" y="436.8214867064569" type="curve" smooth="yes"/>
      <point x="304.48073792729247" y="431.78296256104176" type="line" smooth="yes"/>
      <point x="245.79110146500273" y="388.04666304937604"/>
      <point x="206.73629951166578" y="345.8214867064569"/>
      <point x="206.73629951166578" y="305.7281606077048" type="curve" smooth="yes"/>
      <point x="206.73629951166578" y="286.85187194791104" type="line" smooth="yes"/>
      <point x="206.73629951166578" y="269.0770482908302"/>
      <point x="225.24742268041237" y="252.78296256104178"/>
      <point x="267.8822571893652" y="252.78296256104178" type="curve" smooth="yes"/>
      <point x="354.1785132935431" y="252.78296256104178" type="line"/>
      <point x="354.1785132935431" y="258.9148128052089" type="line" smooth="yes"/>
      <point x="354.1785132935431" y="285.13185024416714"/>
      <point x="370.6592512208356" y="305.78296256104176"/>
      <point x="407.4422137818774" y="331.69777536625065" type="curve" smooth="yes"/>
      <point x="420.21703743895824" y="339.51926207270753" type="line" smooth="yes"/>
      <point x="504.0" y="397.3488876831253"/>
      <point x="527.953336950624" y="461.0"/>
      <point x="527.953336950624" y="540.4422137818774" type="curve" smooth="yes"/>
      <point x="527.953336950624" y="547.3570265870862" type="line" smooth="yes"/>
      <point x="527.953336950624" y="611.6592512208356"/>
      <point x="473.4422137818774" y="686.9614758545849"/>
    </contour>
    <contour>
      <point x="380.0851871947911" y="2.0466630493760167" type="curve"/>
      <point x="380.0851871947911" y="130.44221378187737" type="line" smooth="yes"/>
      <point x="380.0851871947911" y="170.73629951166578"/>
      <point x="347.101465002713" y="189.13185024416714"/>
      <point x="294.71405317417253" y="189.13185024416714" type="curve" smooth="yes"/>
      <point x="246.65925122083559" y="189.13185024416714"/>
      <point x="219.79110146500273" y="184.78296256104178"/>
      <point x="178.34888768312533" y="176.8681497558329" type="curve"/>
      <point x="178.34888768312533" y="48.472599023331526" type="line" smooth="yes"/>
      <point x="178.34888768312533" y="8.178513293543137"/>
      <point x="211.33260987520347" y="-10.21703743895822"/>
      <point x="263.7200217037439" y="-10.21703743895822" type="curve" smooth="yes"/>
      <point x="311.77482365708084" y="-10.21703743895822"/>
      <point x="338.6429734129137" y="-5.8681497558328815"/>
    </contour>
  </outline>
</glyph>
<glyph name="D" format="1">
  <advance width="600.0"/>
  <unicode hex="0044"/>
  <outline>
    <contour>
      <point x="229.51926207270753" y="23.557786218122626" type="curve"/>
      <point x="229.51926207270753" y="562.334780249593" type="line" smooth="yes"/>
      <point x="229.51926207270753" y="620.6288659793814"/>
      <point x="206.76780724362453" y="644.2333152468801"/>
      <point x="75.0" y="644.2333152468801" type="curve"/>
      <point x="75.0" y="51.15409658166034" type="line" smooth="yes"/>
      <point x="75.0" y="36.59631036353771"/>
      <point x="105.00701641345633" y="23.557786218122626"/>
    </contour>
    <contour>
      <point x="52.62072707542051" y="700.0" type="curve"/>
      <point x="51.75257731958763" y="668.1237113402062"/>
      <point x="51.318502441671185" y="638.5963103635377"/>
      <point x="51.318502441671185" y="605.4177970699945" type="curve"/>
      <point x="51.318502441671185" y="582.7748236570808"/>
      <point x="55.18665219750407" y="569.3022246337493"/>
      <point x="64.48887683125339" y="559.7829625610418" type="curve" smooth="yes"/>
      <point x="69.13998914812805" y="555.1318502441671"/>
      <point x="75.13998914812805" y="553.9148128052088"/>
      <point x="80.44221378187737" y="553.9148128052088" type="curve" smooth="yes"/>
      <point x="90.44221378187737" y="553.9148128052088"/>
      <point x="101.96147585458492" y="555.5659251220835"/>
      <point x="115.68963646228974" y="558.2170374389582" type="curve" smooth="yes"/>
      <point x="181.17851329354312" y="566.5659251220835"/>
      <point x="237.13998914812805" y="573.9148128052088"/>
      <point x="300.7911014650027" y="573.9148128052088" type="curve" smooth="yes"/>
      <point x="380.87628865979383" y="573.9148128052088"/>
      <point x="436.88442756375474" y="552.3955507325013"/>
      <point x="490.0162778079218" y="503.2170374389582" type="curve"/>
      <point x="546.1318502441671" y="604.7444384156267"/>
      <point x="420.4259359739555" y="720.0"/>
      <point x="306.7444384156267" y="720.0" type="curve" smooth="yes"/>
      <point x="226.13998914812805" y="720.0"/>
      <point x="135.27183939229516" y="715.5659251220835"/>
    </contour>
    <contour>
      <point x="536.0770482908301" y="373.24742268041234" type="curve" smooth="yes"/>
      <point x="536.0770482908301" y="421.7362995116658" type="line" smooth="yes"/>
      <point x="536.0770482908301" y="561.982171924657"/>
      <point x="515.8540423223006" y="720.0"/>
      <point x="306.7444384156267" y="720.0" type="curve"/>
      <point x="287.9229517091698" y="720.0"/>
      <point x="282.101465002713" y="700.4807379272925"/>
      <point x="289.9310906131308" y="608.9370591427021" type="curve"/>
      <point x="376.95333695062396" y="598.5192620727075"/>
      <point x="381.9918610960391" y="543.2003365919604"/>
      <point x="381.9918610960391" y="398.30222463374935" type="curve" smooth="yes"/>
      <point x="381.9918610960391" y="375.77482365708084" type="line" smooth="yes"/>
      <point x="381.9918610960391" y="245.7444384156267"/>
      <point x="324.64297341291376" y="137.1703743895822"/>
      <point x="249.1318502441671" y="137.1703743895822" type="curve" smooth="yes"/>
      <point x="229.241454150841" y="137.1703743895822"/>
      <point x="143.12371134020617" y="145.65111231687467"/>
      <point x="103.78296256104178" y="165.1703743895822" type="curve"/>
      <point x="84.56592512208356" y="125.68149755832881"/>
      <point x="75.0" y="96.63483450895279"/>
      <point x="75.0" y="51.15409658166034" type="curve" smooth="yes"/>
      <point x="75.0" y="19.464460119370592"/>
      <point x="130.37113402061857" y="-10.0"/>
      <point x="208.851871947911" y="-10.0" type="curve" smooth="yes"/>
      <point x="256.69777536625065" y="-10.0" type="line" smooth="yes"/>
      <point x="423.9918610960391" y="-10.0"/>
      <point x="536.0770482908301" y="149.34888768312533"/>
    </contour>
    <contour>
      <point x="293.69777536625065" y="711.0" type="move" name="top"/>
    </contour>
  </outline>
</glyph>
<glyph name="F" format="1">
  <advance width="600.0"/>
  <unicode hex="0046"/>
  <outline>
    <contour>
      <point x="245.77482365708084" y="-6.78296256104178" type="curve"/>
      <point x="236.64297341291373" y="17.689636462289744"/>
      <point x="235.42593597395552" y="34.46446011937059"/>
      <point x="235.42593597395552" y="83.47259902333153" type="curve" smooth="yes"/>
      <point x="235.42593597395552" y="539.6370048833423" type="line"/>
      <point x="235.42593597395552" y="604.194791101465"/>
      <point x="209.953336950624" y="631.7607162235486"/>
      <point x="75.4259359739555" y="631.7607162235486" type="curve"/>
      <point x="75.4259359739555" y="43.472599023331526" type="line" smooth="yes"/>
      <point x="75.4259359739555" y="9.43407487791644"/>
      <point x="99.63483450895279" y="-6.78296256104178"/>
      <point x="151.6956049918611" y="-6.78296256104178" type="curve" smooth="yes"/>
      <point x="183.31633206728162" y="-6.78296256104178"/>
      <point x="214.15409658166033" y="-6.78296256104178"/>
    </contour>
    <contour>
      <point x="40.65925122083559" y="700.0" type="line"/>
      <point x="40.65925122083559" y="670.0770482908301"/>
      <point x="40.65925122083559" y="642.2859468258274"/>
      <point x="40.65925122083559" y="612.3629951166577" type="curve" smooth="yes"/>
      <point x="40.65925122083559" y="587.0303852414542"/>
      <point x="44.96147585458492" y="568.8681497558329"/>
      <point x="54.26370048833424" y="559.5659251220835" type="curve" smooth="yes"/>
      <point x="58.13185024416712" y="555.6977753662507"/>
      <point x="61.914812805208896" y="553.9148128052088"/>
      <point x="67.34888768312534" y="553.9148128052088" type="curve"/>
      <point x="538.3022246337493" y="553.9148128052088" type="line"/>
      <point x="540.953336950624" y="586.4888768312534"/>
      <point x="542.1703743895822" y="617.7992403689636"/>
      <point x="542.1703743895822" y="653.3266413456321" type="curve" smooth="yes"/>
      <point x="542.1703743895822" y="667.7525773195877"/>
      <point x="538.4340748779165" y="684.1785132935431"/>
      <point x="529.1318502441671" y="693.4807379272925" type="curve" smooth="yes"/>
      <point x="524.6125881714596" y="698.0"/>
      <point x="520.1785132935431" y="700.0"/>
      <point x="512.3570265870862" y="700.0" type="curve"/>
    </contour>
    <contour>
      <point x="134.57406402604448" y="334.3407487791644" type="line"/>
      <point x="134.57406402604448" y="223.42989064652113"/>
      <point x="138.7444384156267" y="189.82148670645688"/>
      <point x="164.51926207270753" y="189.82148670645688" type="curve"/>
      <point x="507.1785132935431" y="189.82148670645688" type="line"/>
      <point x="507.6125881714596" y="219.96147585458493"/>
      <point x="507.8296256104178" y="246.1866521975041"/>
      <point x="507.8296256104178" y="276.76071622354857" type="curve"/>
      <point x="507.8296256104178" y="296.88442756375474"/>
      <point x="501.7911014650027" y="314.39555073250136"/>
      <point x="490.5355398806294" y="325.6511123168747" type="curve" smooth="yes"/>
      <point x="483.8459034183397" y="332.3407487791644"/>
      <point x="478.76071622354857" y="334.3407487791644"/>
      <point x="468.33478024959305" y="334.3407487791644" type="curve"/>
    </contour>
  </outline>
</glyph>
<glyph name="I" format="1">
  <advance width="600.0"/>
  <unicode hex="0049"/>
  <outline>
    <contour>
      <point x="378.9148128052089" y="61.72816060770483" type="curve"/>
      <point x="378.9148128052089" y="551.3814432989691" type="line" smooth="yes"/>
      <point x="378.9148128052089" y="607.3266413456321"/>
      <point x="360.4888768312534" y="631.7607162235486"/>
      <point x="218.9148128052089" y="631.7607162235486" type="curve"/>
      <point x="218.9148128052089" y="149.70374389582202" type="line" smooth="yes"/>
      <point x="218.9148128052089" y="90.76642413729753"/>
      <point x="237.34074877916441" y="61.72816060770483"/>
    </contour>
    <contour>
      <point x="51.48073792729246" y="700.0" type="line"/>
      <point x="49.26370048833424" y="669.0770482908301"/>
      <point x="48.046663049376015" y="639.0689093868692"/>
      <point x="48.046663049376015" y="605.2778079218665" type="curve"/>
      <point x="48.046663049376015" y="587.6348345089527"/>
      <point x="52.34888768312534" y="574.2940857297884"/>
      <point x="62.17037438958221" y="564.4725990233316" type="curve" smooth="yes"/>
      <point x="70.07704829083016" y="556.5659251220835"/>
      <point x="80.50298426478568" y="553.9148128052088"/>
      <point x="101.04449267498643" y="553.9148128052088" type="curve" smooth="yes"/>
      <point x="547.1318502441671" y="553.9148128052088" type="line"/>
      <point x="549.0" y="587.2251763429192"/>
      <point x="550.2170374389582" y="618.9696147585458"/>
      <point x="550.2170374389582" y="651.8459034183396" type="curve" smooth="yes"/>
      <point x="550.2170374389582" y="681.7059142702116"/>
      <point x="542.2170374389582" y="700.0"/>
      <point x="518.7525773195877" y="700.0" type="curve" smooth="yes"/>
    </contour>
    <contour>
      <point x="51.914812805208896" y="146.0851871947911" type="line"/>
      <point x="49.161939982904215" y="113.55472933558188"/>
      <point x="48.046663049376015" y="82.26877533433341"/>
      <point x="48.046663049376015" y="47.67335865436788" type="curve"/>
      <point x="48.046663049376015" y="31.715774736574158"/>
      <point x="51.23827465268002" y="18.017286931693288"/>
      <point x="60.65111231687466" y="8.604449267498644" type="curve" smooth="yes"/>
      <point x="66.83112705918883" y="2.4244345251844734"/>
      <point x="73.36093830836982" y="0.0"/>
      <point x="86.7200217037439" y="0.0" type="curve" smooth="yes"/>
      <point x="548.6977753662507" y="0.0" type="line"/>
      <point x="549.5762700763321" y="31.491185873603044"/>
      <point x="550.2170374389582" y="60.83776451437873"/>
      <point x="550.2170374389582" y="94.79924036896364" type="curve" smooth="yes"/>
      <point x="550.2170374389582" y="127.00813890396093"/>
      <point x="542.2170374389582" y="146.0851871947911"/>
      <point x="518.7525773195877" y="146.0851871947911" type="curve" smooth="yes"/>
    </contour>
    <contour>
      <point x="300.0" y="711.2170374389582" type="move" name="top"/>
    </contour>
    <contour>
      <point x="548.6977753662507" y="-1.0" type="move" name="ogonek"/>
    </contour>
    <contour>
      <point x="300.0" y="-1.0" type="move" name="bottom"/>
    </contour>
  </outline>
</glyph>
<glyph name="M" format="1">
  <advance width="600.0"/>
  <unicode hex="004D"/>
  <outline>
    <contour>
      <point x="203.61258817145958" y="-9.348887683125339" type="curve"/>
      <point x="203.61258817145958" y="59.65111231687466"/>
      <point x="203.61258817145958" y="129.43407487791643"/>
      <point x="203.61258817145958" y="198.43407487791643" type="curve" smooth="yes"/>
      <point x="203.61258817145958" y="250.92892023874117"/>
      <point x="165.78296256104178" y="579.6147585458491"/>
      <point x="165.78296256104178" y="687.7059142702116" type="curve" smooth="yes"/>
      <point x="165.78296256104178" y="693.3570265870862"/>
      <point x="163.78296256104178" y="698.5274009766684"/>
      <point x="160.1318502441671" y="702.1785132935431" type="curve" smooth="yes"/>
      <point x="154.7444384156267" y="707.5659251220835"/>
      <point x="151.00813890396094" y="710.0"/>
      <point x="141.10146500271296" y="710.0" type="curve" smooth="yes"/>
      <point x="112.92295170916984" y="710.0"/>
      <point x="73.56592512208356" y="708.2170374389582"/>
      <point x="49.434074877916444" y="705.2170374389582" type="curve"/>
      <point x="54.0" y="670.6511123168747"/>
      <point x="55.782962561041785" y="636.0"/>
      <point x="55.782962561041785" y="600.0" type="curve" smooth="yes"/>
      <point x="55.782962561041785" y="22.11557243624525" type="line" smooth="yes"/>
      <point x="55.782962561041785" y="14.294085729788389"/>
      <point x="58.217037438958215" y="8.991861096039067"/>
      <point x="62.953336950623985" y="4.255561584373305" type="curve" smooth="yes"/>
      <point x="72.68963646228974" y="-5.4807379272924575"/>
      <point x="90.85187194791101" y="-10.0"/>
      <point x="110.75854584915898" y="-10.0" type="curve" smooth="yes"/>
      <point x="141.5496473141617" y="-10.0"/>
      <point x="173.68963646228974" y="-9.78296256104178"/>
    </contour>
    <contour>
      <point x="553.2170374389582" y="-6.78296256104178" type="curve"/>
      <point x="547.0" y="27.217037438958222"/>
      <point x="544.2170374389582" y="62.21703743895822"/>
      <point x="544.2170374389582" y="98.43407487791644" type="curve" smooth="yes"/>
      <point x="544.2170374389582" y="680.9229517091699" type="line" smooth="yes"/>
      <point x="544.2170374389582" y="687.0949538795442"/>
      <point x="541.7829625610418" y="692.0933260987521"/>
      <point x="537.914812805209" y="695.9614758545849" type="curve" smooth="yes"/>
      <point x="529.6268306414095" y="704.2494580183843"/>
      <point x="506.3105904404874" y="710.0"/>
      <point x="471.96961475854584" y="710.0" type="curve" smooth="yes"/>
      <point x="418.5577862181226" y="710.0" type="line"/>
      <point x="431.3874118285404" y="698.6977753662507"/>
      <point x="435.30222463374935" y="690.6977753662507"/>
      <point x="435.30222463374935" y="666.8681497558329" type="curve" smooth="yes"/>
      <point x="435.30222463374935" y="478.0141074335323"/>
      <point x="396.3874118285404" y="181.1600651112317"/>
      <point x="396.3874118285404" y="189.0385241454151" type="curve" smooth="yes"/>
      <point x="396.3874118285404" y="137.90667390124796"/>
      <point x="396.3874118285404" y="88.90667390124797"/>
      <point x="396.3874118285404" y="37.774823657080844" type="curve" smooth="yes"/>
      <point x="396.3874118285404" y="20.557786218122626"/>
      <point x="398.8214867064569" y="11.340748779164407"/>
      <point x="405.906673901248" y="4.255561584373305" type="curve" smooth="yes"/>
      <point x="415.64297341291376" y="-5.4807379272924575"/>
      <point x="431.4563212154097" y="-10.0"/>
      <point x="451.36299511665766" y="-10.0" type="curve"/>
      <point x="484.93705914270214" y="-10.0"/>
      <point x="519.4259359739555" y="-9.0"/>
    </contour>
    <contour>
      <point x="110.56592512208356" y="710.0" type="line"/>
      <point x="144.9614758545849" y="475.75040694519805"/>
      <point x="218.51926207270753" y="276.3326098752035"/>
      <point x="280.86814975583286" y="216.33260987520347" type="curve"/>
      <point x="285.6511123168747" y="209.98372219207812"/>
      <point x="293.56592512208357" y="208.98372219207812"/>
      <point x="298.56592512208357" y="208.98372219207812" type="curve"/>
      <point x="315.69777536625065" y="208.98372219207812"/>
      <point x="330.4556181731398" y="271.0980024043218"/>
      <point x="329.6125881714596" y="317.8822571893652" type="curve"/>
      <point x="282.69304953956896" y="383.57012942395977"/>
      <point x="232.04848631402018" y="542.2386099218053"/>
      <point x="218.43407487791643" y="685.7444384156267" type="curve"/>
      <point x="217.78296256104178" y="696.3488876831253"/>
      <point x="191.92295170916984" y="710.0"/>
      <point x="159.97775366250679" y="710.0" type="curve"/>
    </contour>
    <contour>
      <point x="410.7281606077048" y="710.0" type="curve" smooth="yes"/>
      <point x="399.2088985349973" y="710.0"/>
      <point x="389.906673901248" y="709.0"/>
      <point x="381.1703743895822" y="706.7829625610418" type="curve"/>
      <point x="365.7746284398319" y="516.0958221579291"/>
      <point x="318.66177459748803" y="386.57473949022875"/>
      <point x="271.0" y="323.92892023874117" type="curve"/>
      <point x="265.2941783781712" y="318.2744950269267"/>
      <point x="275.48073792729247" y="208.98372219207812"/>
      <point x="298.56592512208357" y="208.98372219207812" type="curve"/>
      <point x="307.56592512208357" y="208.98372219207812" type="line"/>
      <point x="384.43407487791643" y="292.4259359739555"/>
      <point x="459.69777536625065" y="484.2474226804124"/>
      <point x="472.6125881714596" y="655.4340748779165" type="curve"/>
      <point x="478.52740097666845" y="696.2637004883343"/>
      <point x="460.04666304937604" y="710.0"/>
    </contour>
  </outline>
</glyph>
<glyph name="O" format="1">
  <advance width="600.0"/>
  <unicode hex="004F"/>
  <outline>
    <contour>
      <point x="295.21703743895824" y="720.0" type="curve" smooth="yes"/>
      <point x="133.63765599565926" y="720.0"/>
      <point x="52.34888768312534" y="558.6901103731533"/>
      <point x="52.34888768312534" y="323.2088985349973" type="curve" smooth="yes"/>
      <point x="52.34888768312534" y="329.13185024416714" type="line" smooth="yes"/>
      <point x="52.34888768312534" y="114.92295170916984"/>
      <point x="127.25556158437331" y="-20.0"/>
      <point x="304.0" y="-20.0" type="curve" smooth="yes"/>
      <point x="328.122083559414" y="-20.0"/>
      <point x="350.7281606077048" y="7.642973412913726"/>
      <point x="330.37113402061857" y="103.48073792729245" type="curve"/>
      <point x="255.04666304937604" y="108.96147585458492"/>
      <point x="202.34888768312533" y="157.57840477482364"/>
      <point x="202.34888768312533" y="323.2718393922952" type="curve" smooth="yes"/>
      <point x="202.34888768312533" y="313.56592512208357" type="line" smooth="yes"/>
      <point x="202.34888768312533" y="490.96147585458493"/>
      <point x="247.42702116115032" y="574.1318502441671"/>
      <point x="308.0" y="574.1318502441671" type="curve" smooth="yes"/>
      <point x="365.33036198744287" y="574.1318502441671"/>
      <point x="404.2356635208098" y="563.8296256104178"/>
      <point x="445.1866521975041" y="541.139989148128" type="curve"/>
      <point x="480.14925589032407" y="602.5032323248219"/>
      <point x="411.88981837349195" y="720.0"/>
    </contour>
    <contour>
      <point x="304.0" y="-20.0" type="curve" smooth="yes"/>
      <point x="465.579381443299" y="-20.0"/>
      <point x="546.8681497558329" y="128.464269065287"/>
      <point x="546.8681497558329" y="345.47259902333155" type="curve" smooth="yes"/>
      <point x="546.8681497558329" y="340.3326098752035" type="line" smooth="yes"/>
      <point x="546.8681497558329" y="573.420831008842"/>
      <point x="471.96147585458493" y="720.0"/>
      <point x="295.21703743895824" y="720.0" type="curve" smooth="yes"/>
      <point x="271.0949538795442" y="720.0"/>
      <point x="248.48887683125338" y="692.3570265870862"/>
      <point x="268.8459034183397" y="596.5192620727075" type="curve"/>
      <point x="344.18783565495477" y="591.0376811877766"/>
      <point x="396.86814975583286" y="530.2036785230994"/>
      <point x="396.86814975583286" y="345.40965816603364" type="curve" smooth="yes"/>
      <point x="396.86814975583286" y="355.11557243624526" type="line" smooth="yes"/>
      <point x="396.86814975583286" y="196.58813587966876"/>
      <point x="351.47259902333155" y="125.86814975583287"/>
      <point x="291.21703743895824" y="125.86814975583287" type="curve" smooth="yes"/>
      <point x="233.77482365708084" y="125.86814975583287"/>
      <point x="193.72816060770484" y="135.51926207270753"/>
      <point x="154.03038524145416" y="158.86001085187195" type="curve"/>
      <point x="119.58909247441152" y="98.09843353913291"/>
      <point x="187.0912149658702" y="-20.0"/>
    </contour>
    <contour>
      <point x="300.0" y="711.2170374389582" type="move" name="top"/>
    </contour>
    <contour>
      <point x="394.56592512208357" y="-1.0" type="move" name="ogonek"/>
    </contour>
    <contour>
      <point x="300.0" y="-1.0" type="move" name="bottom"/>
    </contour>
  </outline>
</glyph>
<glyph name="V" format="1">
  <advance width="600.0"/>
  <unicode hex="0056"/>
  <outline>
    <contour>
      <point x="147.3814432989691" y="710.0" type="curve"/>
      <point x="60.744438415626696" y="710.0" type="line"/>
      <point x="56.86814975583288" y="330.7666847531199"/>
      <point x="78.03038524145416" y="149.48073792729247"/>
      <point x="180.33260987520347" y="29.95333695062398" type="curve" smooth="yes"/>
      <point x="201.19262072707542" y="6.744438415626696"/>
      <point x="221.88225718936516" y="-2.1703743895822036"/>
      <point x="246.18448182311448" y="-2.1703743895822036" type="curve" smooth="yes"/>
      <point x="273.58003255561584" y="-2.1703743895822036" type="line" smooth="yes"/>
      <point x="319.0689093868692" y="-2.1703743895822036"/>
      <point x="386.86814975583286" y="35.17851329354313"/>
      <point x="382.2940857297884" y="109.10146500271297" type="curve"/>
      <point x="364.41779706999455" y="109.10146500271297"/>
      <point x="355.37113402061857" y="109.10146500271297"/>
      <point x="337.711882799783" y="109.10146500271297" type="curve" smooth="yes"/>
      <point x="333.6266956049919" y="109.10146500271297"/>
      <point x="327.6266956049919" y="111.10146500271297"/>
      <point x="325.58817145957676" y="110.70591427021161" type="curve"/>
      <point x="219.805208898535" y="208.194791101465"/>
      <point x="208.20889853499727" y="309.5355398806294"/>
      <point x="216.8296256104178" y="675.6592512208356" type="curve"/>
      <point x="215.8296256104178" y="696.6125881714596"/>
      <point x="185.76071622354857" y="710.0"/>
    </contour>
    <contour>
      <point x="469.67552902875747" y="710.0" type="curve"/>
      <point x="384.60444926749864" y="710.0" type="line"/>
      <point x="385.87628865979383" y="314.9918610960391"/>
      <point x="387.88442756375474" y="191.30222463374932"/>
      <point x="278.7059142702116" y="96.77482365708084" type="curve"/>
      <point x="261.88442756375474" y="52.06890938686924"/>
      <point x="243.29408572978838" y="2.527400976668475"/>
      <point x="260.3163320672816" y="-2.1703743895822036" type="curve"/>
      <point x="394.23331524688007" y="-2.1703743895822036" type="line"/>
      <point x="514.148128052089" y="116.18665219750407"/>
      <point x="536.698467173462" y="302.3067688619959"/>
      <point x="534.6896364622897" y="666.5355398806294" type="curve"/>
      <point x="535.9066739012479" y="688.3955507325013"/>
      <point x="508.8377645143787" y="710.0"/>
    </contour>
  </outline>
</glyph>
<glyph name="W" format="1">
  <advance width="600.0"/>
  <unicode hex="0057"/>
  <outline>
    <contour>
      <point x="37.395550732501356" y="710.0" type="curve"/>
      <point x="30.34888768312534" y="238.56592512208357"/>
      <point x="45.90903075335252" y="105.43985692977282"/>
      <point x="130.73629951166575" y="17.48073792729246" type="curve"/>
      <point x="141.60444926749864" y="5.046663049376017"/>
      <point x="156.12371134020617" y="-2.1703743895822036"/>
      <point x="171.99186109603906" y="-2.1703743895822036" type="curve"/>
      <point x="183.60444926749864" y="-2.1703743895822036" type="line" smooth="yes"/>
      <point x="204.23660272573488" y="-2.1703743895822036"/>
      <point x="218.2555615843733" y="45.549647314161696"/>
      <point x="228.43407487791643" y="57.277807921866525" type="curve"/>
      <point x="161.2414756590481" y="145.41676704575107"/>
      <point x="162.42593597395552" y="218.17851329354315"/>
      <point x="176.51926207270753" y="678.7911014650027" type="curve"/>
      <point x="176.51926207270753" y="687.3570265870862"/>
      <point x="176.30222463374932" y="687.7911014650027"/>
      <point x="169.0851871947911" y="696.7911014650027" type="curve" smooth="yes"/>
      <point x="162.04666304937604" y="703.8296256104178"/>
      <point x="133.79924036896364" y="710.0"/>
      <point x="112.28811720021704" y="710.0" type="curve"/>
      <point x="87.06294085729789" y="710.0"/>
      <point x="62.62072707542051" y="710.0"/>
    </contour>
    <contour>
      <point x="425.8296256104178" y="710.0" type="curve"/>
      <point x="442.2718393922952" y="226.40368963646227"/>
      <point x="436.318666097509" y="200.02455746710376"/>
      <point x="386.96147585458493" y="113.56592512208356" type="curve"/>
      <point x="386.6125881714596" y="37.34074877916441"/>
      <point x="394.60444926749864" y="8.791101465002713"/>
      <point x="401.85187194791104" y="-2.1703743895822036" type="curve"/>
      <point x="466.8296256104178" y="-2.1703743895822036" type="line"/>
      <point x="547.2976349230391" y="155.68460531993009"/>
      <point x="568.8681497558329" y="269.8296256104178"/>
      <point x="562.6044492674987" y="678.8844275637548" type="curve"/>
      <point x="562.6044492674987" y="687.4036896364623"/>
      <point x="560.8214867064569" y="690.8377645143787"/>
      <point x="557.3874118285404" y="694.2718393922952" type="curve" smooth="yes"/>
      <point x="548.046663049376" y="703.6125881714596"/>
      <point x="526.6207270754205" y="710.0"/>
      <point x="503.8540423223006" y="710.0" type="curve"/>
      <point x="477.8459034183397" y="710.0"/>
      <point x="451.8377645143787" y="710.0"/>
    </contour>
    <contour>
      <point x="290.31036353771026" y="561.0162778079218" type="curve"/>
      <point x="257.78296256104176" y="561.0162778079218" type="line"/>
      <point x="268.7444384156267" y="311.9392295170917"/>
      <point x="268.67552902875747" y="208.18665219750406"/>
      <point x="193.97775366250679" y="90.23331524688008" type="curve"/>
      <point x="184.79924036896364" y="35.225176342919156"/>
      <point x="177.44221378187737" y="2.527400976668475"/>
      <point x="171.99186109603906" y="-2.1703743895822036" type="curve"/>
      <point x="246.23331524688007" y="-2.1703743895822036" type="line"/>
      <point x="334.76071622354857" y="131.9148128052089"/>
      <point x="338.96147585458493" y="323.24145415084104"/>
      <point x="329.56592512208357" y="525.8925664677157" type="curve"/>
      <point x="328.78296256104176" y="547.9310906131308"/>
      <point x="314.6592512208356" y="561.0162778079218"/>
    </contour>
    <contour>
      <point x="295.0081389039609" y="561.0162778079218" type="curve"/>
      <point x="270.43407487791643" y="561.0162778079218" type="line"/>
      <point x="263.82313207747256" y="269.67254481667317"/>
      <point x="283.5869691095219" y="90.97314051636083"/>
      <point x="346.58817145957676" y="11.914812805208898" type="curve"/>
      <point x="352.67335865436786" y="3.0466630493760167"/>
      <point x="363.32447097124253" y="-2.1703743895822036"/>
      <point x="375.5415084102008" y="-2.1703743895822036" type="curve"/>
      <point x="411.8133478024959" y="-2.1703743895822036" type="line"/>
      <point x="420.9837221920781" y="-2.1703743895822036"/>
      <point x="425.8903960933261" y="17.472599023331526"/>
      <point x="432.1540965816603" y="34.34074877916441" type="curve"/>
      <point x="358.6266956049919" y="92.95333695062398"/>
      <point x="336.3874118285404" y="282.67552902875747"/>
      <point x="342.6511123168747" y="534.3266413456321" type="curve"/>
      <point x="344.21703743895824" y="546.4970157352143"/>
      <point x="328.31036353771026" y="561.0162778079218"/>
    </contour>
    <contour>
      <point x="300.0" y="711.0" type="move" name="top"/>
    </contour>
  </outline>
</glyph>
<glyph name="X" format="1">
  <advance width="600.0"/>
  <unicode hex="0058"/>
  <outline>
    <contour>
      <point x="460.0141074335323" y="-6.8681497558328815" type="curve" smooth="yes"/>
      <point x="500.4563212154097" y="-6.8681497558328815"/>
      <point x="544.2940857297884" y="-4.8681497558328815"/>
      <point x="582.4340748779165" y="-1.0851871947911016" type="curve"/>
      <point x="510.0457317753225" y="79.50037409102882"/>
      <point x="431.88610118063815" y="202.99404742471006"/>
      <point x="359.906673901248" y="338.093326098752" type="curve" smooth="yes"/>
      <point x="348.3975633279081" y="360.0815329672624"/>
      <point x="319.8883834979194" y="378.01179313148964"/>
      <point x="309.1622354856213" y="400.0" type="curve" smooth="yes"/>
      <point x="249.39304801982934" y="509.8449963875162"/>
      <point x="209.46050332446816" y="618.2810702496155"/>
      <point x="197.03038524145416" y="687.7525773195877" type="curve" smooth="yes"/>
      <point x="191.64297341291373" y="704.6977753662507"/>
      <point x="166.09332609875202" y="706.8681497558329"/>
      <point x="117.86218122626153" y="706.8681497558329" type="curve" smooth="yes"/>
      <point x="20.263700488334237" y="706.8681497558329" type="line"/>
      <point x="59.93557807773058" y="577.5869907796291"/>
      <point x="124.78468980883319" y="421.89373358265703"/>
      <point x="202.12371134020617" y="277.906673901248" type="curve" smooth="yes"/>
      <point x="212.07442270084056" y="257.1317191771711"/>
      <point x="244.48336351728207" y="235.94532911365906"/>
      <point x="253.65111231687467" y="217.51926207270753" type="curve" smooth="yes"/>
      <point x="305.83046861565657" y="124.09177067470637"/>
      <point x="357.2510651457183" y="48.80259183178056"/>
      <point x="390.7911014650027" y="13.596310363537711" type="curve" smooth="yes"/>
      <point x="404.7384209066714" y="-3.5374190948529716"/>
      <point x="428.4891338492733" y="-6.8681497558328815"/>
    </contour>
    <contour>
      <point x="512.1644058600109" y="706.8681497558329" type="curve"/>
      <point x="415.3488876831253" y="706.8681497558329" type="line"/>
      <point x="380.0" y="567.6592512208356"/>
      <point x="333.30222463374935" y="468.2718393922952"/>
      <point x="248.89853499728702" y="355.6429734129137" type="curve"/>
      <point x="232.03852414541507" y="332.3488876831253"/>
      <point x="248.81334780249594" y="309.62886597938143"/>
      <point x="347.0" y="274.39555073250136" type="curve"/>
      <point x="457.12371134020617" y="406.4888768312534"/>
      <point x="518.3022246337493" y="522.0548019533369"/>
      <point x="570.6977753662507" y="675.4503526858383" type="curve"/>
      <point x="572.3488876831253" y="682.4036896364623"/>
      <point x="572.6977753662507" y="687.2718393922952"/>
      <point x="570.3955507325013" y="689.5740640260445" type="curve" smooth="yes"/>
      <point x="558.054801953337" y="702.6977753662507"/>
      <point x="535.4584915897992" y="706.8681497558329"/>
    </contour>
    <contour>
      <point x="90.00596852957135" y="-6.8681497558328815" type="curve" smooth="yes"/>
      <point x="187.0" y="-6.8681497558328815" type="line"/>
      <point x="210.65111231687467" y="96.13185024416711"/>
      <point x="264.84994835739724" y="197.24549908989863"/>
      <point x="325.093326098752" y="269.88442756375474" type="curve"/>
      <point x="342.0" y="288.7911014650027"/>
      <point x="321.0" y="318.1540965816603"/>
      <point x="226.5496473141617" y="354.77482365708084" type="curve"/>
      <point x="137.63764721103595" y="251.72815508620138"/>
      <point x="70.52016452039113" y="137.90856727187827"/>
      <point x="27.302224633749322" y="28.11557243624525" type="curve"/>
      <point x="23.43407487791644" y="18.59631036353771"/>
      <point x="24.302224633749322" y="13.51112316874661"/>
      <point x="28.170374389582204" y="8.860010851871948" type="curve" smooth="yes"/>
      <point x="39.18898161544732" y="-2.158596373993164"/>
      <point x="59.66206245380478" y="-6.8681497558328815"/>
    </contour>
  </outline>
</glyph>
<glyph name="Y" format="1">
  <advance width="600.0"/>
  <unicode hex="0059"/>
  <outline>
    <contour>
      <point x="22.16223548562127" y="710.0" type="line"/>
      <point x="56.68030202838303" y="439.8197122819092"/>
      <point x="110.23254261305759" y="330.2015322648589"/>
      <point x="221.44221378187737" y="200.20075963103636" type="curve"/>
      <point x="233.8511177209913" y="183.09408032567174"/>
      <point x="247.59359739555072" y="179.03852414541507"/>
      <point x="262.23928377645143" y="179.03852414541507" type="curve"/>
      <point x="323.44877075802617" y="179.03852414541507"/>
      <point x="353.68149755832883" y="238.4841140652318"/>
      <point x="339.58817145957676" y="276.30222463374935" type="curve"/>
      <point x="240.112912610113" y="379.371567155251"/>
      <point x="204.48396562432032" y="449.1273602973376"/>
      <point x="185.8133478024959" y="678.7911014650027" type="curve"/>
      <point x="183.59620405140856" y="698.9624681011237"/>
      <point x="155.20967366870786" y="710.0"/>
      <point x="122.1096039066739" y="710.0" type="curve" smooth="yes"/>
    </contour>
    <contour>
      <point x="414.0081389039609" y="710.0" type="line"/>
      <point x="405.95713736798365" y="485.3141854457597"/>
      <point x="373.4036896364623" y="393.1785132935431"/>
      <point x="272.8377645143787" y="282.4259359739555" type="curve"/>
      <point x="235.87628865979383" y="226.9755832881172"/>
      <point x="257.04666304937604" y="199.39555073250136"/>
      <point x="262.23928377645143" y="179.03852414541507" type="curve"/>
      <point x="362.52740097666845" y="179.03852414541507" type="line"/>
      <point x="479.9903406823213" y="310.47107860961376"/>
      <point x="549.2237141446753" y="441.6464116967129"/>
      <point x="572.0548019533369" y="668.101465002713" type="curve"/>
      <point x="574.4887069224143" y="689.9596493345649"/>
      <point x="548.8773738469886" y="710.0"/>
      <point x="509.25773195876286" y="710.0" type="curve"/>
    </contour>
    <contour>
      <point x="388.30222463374935" y="-6.1318502441671185" type="curve"/>
      <point x="381.6511123168747" y="29.86814975583288"/>
      <point x="380.0" y="66.0851871947911"/>
      <point x="380.0" y="102.17037438958221" type="curve" smooth="yes"/>
      <point x="380.0" y="228.72816060770484" type="line" smooth="yes"/>
      <point x="380.0" y="252.6348345089528"/>
      <point x="345.6673901247965" y="261.2778079218665"/>
      <point x="220.0" y="261.2778079218665" type="curve"/>
      <point x="220.0" y="52.1703743895822" type="line" smooth="yes"/>
      <point x="220.0" y="29.51926207270754"/>
      <point x="222.43407487791643" y="12.821486706456863"/>
      <point x="234.21703743895822" y="1.0385241454150842" type="curve" smooth="yes"/>
      <point x="241.60444926749864" y="-6.348887683125339"/>
      <point x="252.51112316874662" y="-10.0"/>
      <point x="274.32447097124253" y="-10.0" type="curve" smooth="yes"/>
      <point x="313.41779706999455" y="-10.0"/>
      <point x="349.6429734129137" y="-8.78296256104178"/>
    </contour>
    <contour>
      <point x="300.0" y="711.2170374389582" type="move" name="top"/>
    </contour>
  </outline>
</glyph>
<glyph name="bracketleft" format="1">
  <advance width="600.0"/>
  <unicode hex="005B"/>
  <outline>
    <contour>
      <point x="204.21703743895822" y="640.0" type="curve" smooth="yes"/>
      <point x="204.21703743895822" y="6.357026587086267" type="line" smooth="yes"/>
      <point x="204.21703743895822" y="-13.192620727075422"/>
      <point x="261.898534997287" y="-16.1459576776994"/>
      <point x="364.2170374389582" y="-16.1459576776994" type="curve"/>
      <point x="364.2170374389582" y="705.6592512208356" type="line" smooth="yes"/>
      <point x="364.2170374389582" y="733.7748236570809"/>
      <point x="355.52740097666845" y="752.1703743895822"/>
      <point x="317.7221920781335" y="752.1703743895822" type="curve" smooth="yes"/>
      <point x="270.0162778079219" y="752.1703743895822"/>
      <point x="242.40368963646227" y="750.953336950624"/>
      <point x="195.9148128052089" y="747.5192620727075" type="curve"/>
      <point x="202.56592512208357" y="712.3022246337493"/>
      <point x="204.21703743895822" y="677.6511123168747"/>
    </contour>
    <contour>
      <point x="508.30222463374935" y="608.4340748779165" type="line"/>
      <point x="510.95333695062396" y="641.2251763429192"/>
      <point x="512.1703743895822" y="670.4036896364623"/>
      <point x="512.1703743895822" y="705.4970157352143" type="curve" smooth="yes"/>
      <point x="512.1703743895822" y="717.101465002713"/>
      <point x="509.51926207270753" y="735.2637004883343"/>
      <point x="499.13185024416714" y="745.6511123168747" type="curve" smooth="yes"/>
      <point x="494.6125881714596" y="750.1703743895822"/>
      <point x="489.96147585458493" y="752.1703743895822"/>
      <point x="482.3570265870863" y="752.1703743895822" type="curve" smooth="yes"/>
      <point x="317.7221920781335" y="752.1703743895822" type="line"/>
      <point x="317.7221920781335" y="637.0770482908301"/>
      <point x="333.35702658708624" y="608.4340748779165"/>
      <point x="403.94519804666305" y="608.4340748779165" type="curve"/>
    </contour>
    <contour>
      <point x="511.0851871947911" y="-136.72816060770484" type="line"/>
      <point x="511.95333695062396" y="-106.06890938686924"/>
      <point x="512.3874118285404" y="-76.67335865436789"/>
      <point x="512.3874118285404" y="-44.277807921866525" type="curve" smooth="yes"/>
      <point x="512.3874118285404" y="-8.813347802495926"/>
      <point x="502.21703743895824" y="7.008138903960926"/>
      <point x="480.9229517091698" y="7.008138903960926" type="curve" smooth="yes"/>
      <point x="204.21703743895822" y="7.008138903960926" type="line"/>
      <point x="204.21703743895822" y="-76.76071622354856" type="line" smooth="yes"/>
      <point x="204.21703743895822" y="-104.44221378187737"/>
      <point x="228.20075963103636" y="-136.72816060770484"/>
      <point x="251.1459576776994" y="-136.72816060770484" type="curve" smooth="yes"/>
    </contour>
  </outline>
</glyph>
<glyph name="backslash" format="1">
  <advance width="600.0"/>
  <unicode hex="005C"/>
  <outline>
    <contour>
      <point x="57.574064026044496" y="750.2170374389582" type="curve"/>
      <point x="130.83776451437873" y="428.9918610960391"/>
      <point x="238.31850244167117" y="145.33260987520347"/>
      <point x="381.0162778079219" y="-100.97775366250679" type="curve" smooth="yes"/>
      <point x="397.5740640260445" y="-128.57406402604448"/>
      <point x="418.0" y="-138.1318502441671"/>
      <point x="445.94519804666305" y="-138.1318502441671" type="curve" smooth="yes"/>
      <point x="488.3407487791644" y="-138.1318502441671"/>
      <point x="528.7829625610418" y="-135.26370048833422"/>
      <point x="566.9614758545849" y="-128.65925122083559" type="curve"/>
      <point x="548.0933260987521" y="-108.00813890396094"/>
      <point x="534.7911014650027" y="-86.70591427021161"/>
      <point x="516.5740640260445" y="-54.83776451437873" type="curve"/>
      <point x="386.4422137818774" y="181.90667390124796"/>
      <point x="288.52740097666845" y="444.13185024416714"/>
      <point x="222.26370048833422" y="727.9229517091699" type="curve"/>
      <point x="216.39555073250136" y="751.4807379272925"/>
      <point x="194.83776451437873" y="758.6044492674987"/>
      <point x="171.41996744438416" y="758.6044492674987" type="curve" smooth="yes"/>
      <point x="131.54367878459033" y="758.6044492674987"/>
      <point x="94.53553988062941" y="755.953336950624"/>
    </contour>
  </outline>
</glyph>
<glyph name="asciicircum" format="1">
  <advance width="600.0"/>
  <unicode hex="005E"/>
  <outline>
    <contour>
      <point x="183.04666304937604" y="355.0" type="line"/>
      <point x="202.78296256104178" y="501.52740097666845"/>
      <point x="244.64297341291373" y="573.2170374389582"/>
      <point x="322.1622354856213" y="656.9148128052088" type="curve"/>
      <point x="344.0851871947911" y="718.6896364622897"/>
      <point x="342.093326098752" y="741.2088985349973"/>
      <point x="339.62886597938143" y="760.0" type="curve"/>
      <point x="225.06890938686922" y="760.0" type="line"/>
      <point x="156.7666847531199" y="687.2088985349973"/>
      <point x="105.56592512208356" y="591.9148128052088"/>
      <point x="61.914812805208896" y="463.3407487791644" type="curve" smooth="yes"/>
      <point x="49.26370048833424" y="423.0770482908302"/>
      <point x="42.48073792729246" y="395.1622354856213"/>
      <point x="42.48073792729246" y="384.1622354856213" type="curve" smooth="yes"/>
      <point x="42.48073792729246" y="367.60444926749864"/>
      <point x="64.54964731416169" y="355.0"/>
      <point x="98.06077048290831" y="355.0" type="curve"/>
    </contour>
    <contour>
      <point x="557.5192620727075" y="360.1703743895822" type="curve"/>
      <point x="527.3955507325013" y="540.7911014650027"/>
      <point x="474.7911014650027" y="640.9614758545849"/>
      <point x="407.6673901247965" y="728.7444384156267" type="curve" smooth="yes"/>
      <point x="390.0244167118828" y="750.7362995116657"/>
      <point x="375.4584915897992" y="760.0"/>
      <point x="356.9392295170917" y="760.0" type="curve" smooth="yes"/>
      <point x="335.62886597938143" y="760.0" type="line" smooth="yes"/>
      <point x="288.6592512208356" y="760.0"/>
      <point x="235.8296256104178" y="719.3570265870862"/>
      <point x="229.09332609875204" y="641.5577862181226" type="curve"/>
      <point x="250.53553988062941" y="641.5577862181226"/>
      <point x="261.58220293000545" y="641.5577862181226"/>
      <point x="268.14812805208896" y="641.5577862181226" type="curve" smooth="yes"/>
      <point x="276.62886597938143" y="641.5577862181226"/>
      <point x="285.194791101465" y="636.4259359739555"/>
      <point x="291.194791101465" y="626.5111231687466" type="curve" smooth="yes"/>
      <point x="360.49701573521435" y="562.6429734129138"/>
      <point x="385.2718393922952" y="509.1703743895822"/>
      <point x="406.8296256104178" y="381.2088985349973" type="curve" smooth="yes"/>
      <point x="411.69777536625065" y="364.68963646228974"/>
      <point x="431.1703743895822" y="356.43407487791643"/>
      <point x="459.0689093868692" y="356.43407487791643" type="curve" smooth="yes"/>
      <point x="494.2474226804124" y="356.43407487791643"/>
      <point x="523.9918610960391" y="357.6511123168747"/>
    </contour>
  </outline>
</glyph>
<glyph name="underscore" format="1">
  <advance width="600.0"/>
  <unicode hex="005F"/>
  <outline>
    <contour>
      <point x="37.472599023331526" y="-50.0" type="line"/>
      <point x="37.472599023331526" y="-79.48887683125339"/>
      <point x="37.472599023331526" y="-104.2799782962561"/>
      <point x="37.472599023331526" y="-133.98589256646773" type="curve" smooth="yes"/>
      <point x="37.472599023331526" y="-159.31850244167117"/>
      <point x="41.55778621812263" y="-175.31036353771026"/>
      <point x="51.72816060770483" y="-185.48073792729247" type="curve" smooth="yes"/>
      <point x="57.332609875203474" y="-191.0851871947911"/>
      <point x="64.805208898535" y="-193.73629951166578"/>
      <point x="78.70374389582203" y="-193.73629951166578" type="curve"/>
      <point x="563.6125881714596" y="-193.73629951166578" type="line"/>
      <point x="564.4807379272925" y="-160.99186109603906"/>
      <point x="565.1318502441671" y="-132.51112316874662"/>
      <point x="565.1318502441671" y="-100.20075963103636" type="curve" smooth="yes"/>
      <point x="565.1318502441671" y="-68.65111231687466"/>
      <point x="557.5274009766684" y="-50.0"/>
      <point x="531.2799782962561" y="-50.0" type="curve"/>
    </contour>
  </outline>
</glyph>
<glyph name="grave" format="1">
  <advance width="600.0"/>
  <unicode hex="0060"/>
  <outline>
    <contour>
      <point x="456.96147585458493" y="395.2088985349973" type="curve"/>
      <point x="396.86814975583286" y="495.1785132935431"/>
      <point x="363.0" y="576.2007596310364"/>
      <point x="341.68963646228974" y="705.1703743895822" type="curve"/>
      <point x="294.68149755832883" y="710.953336950624"/>
      <point x="265.93705914270214" y="712.953336950624"/>
      <point x="220.58003255561584" y="712.953336950624" type="curve" smooth="yes"/>
      <point x="187.42593597395552" y="712.953336950624"/>
      <point x="158.43407487791643" y="702.085187194791"/>
      <point x="159.21703743895822" y="667.0548019533369" type="curve" smooth="yes"/>
      <point x="160.0" y="602.139989148128"/>
      <point x="244.48887683125338" y="449.48073792729247"/>
      <point x="306.13998914812805" y="390.0851871947911" type="curve" smooth="yes"/>
      <point x="313.6592512208356" y="384.0"/>
      <point x="321.04666304937604" y="379.0"/>
      <point x="338.9148128052089" y="379.0" type="curve" smooth="yes"/>
      <point x="393.96147585458493" y="379.0"/>
      <point x="419.69777536625065" y="383.51926207270753"/>
    </contour>
  </outline>
</glyph>
<glyph name="a" format="1">
  <advance width="600.0"/>
  <unicode hex="0061"/>
  <outline>
    <contour>
      <point x="370.4747693977211" y="550.0" type="curve" smooth="yes"/>
      <point x="262.4747693977211" y="550.0"/>
      <point x="214.12588171459578" y="541.0"/>
      <point x="183.6451437873033" y="517.5659251220835" type="curve" smooth="yes"/>
      <point x="158.16440586001085" y="498.3488876831253"/>
      <point x="141.5518176885513" y="462.9148128052089"/>
      <point x="133.72219207813347" y="433.69777536625065" type="curve" smooth="yes"/>
      <point x="129.0244167118828" y="416.48073792729247"/>
      <point x="127.1096039066739" y="399.2637004883342"/>
      <point x="127.76071622354856" y="391.04666304937604" type="curve"/>
      <point x="131.76071622354857" y="391.04666304937604" type="line"/>
      <point x="191.67552902875747" y="406.2637004883343"/>
      <point x="232.45849158979925" y="410.48073792729247"/>
      <point x="293.4584915897992" y="410.48073792729247" type="curve" smooth="yes"/>
      <point x="404.4584915897992" y="410.48073792729247"/>
      <point x="437.76071622354857" y="391.04666304937604"/>
      <point x="468.8377645143787" y="305.1785132935431" type="curve"/>
      <point x="511.8377645143787" y="305.1785132935431"/>
      <point x="528.8377645143787" y="312.0"/>
      <point x="539.7992403689636" y="352.0" type="curve"/>
      <point x="563.288117200217" y="440.51926207270753"/>
      <point x="472.5599565925122" y="550.0"/>
    </contour>
    <contour>
      <point x="385.41996744438416" y="454.0" type="curve"/>
      <point x="401.0244167118828" y="416.0"/>
      <point x="396.8459034183397" y="379.0"/>
      <point x="386.66739012479655" y="338.0" type="curve" smooth="yes"/>
      <point x="362.39555073250136" y="247.0"/>
      <point x="356.13185024416714" y="223.0"/>
      <point x="338.9066739012479" y="156.0" type="curve" smooth="yes"/>
      <point x="316.9837221920782" y="71.0"/>
      <point x="383.37113402061857" y="40.0"/>
      <point x="479.20075963103636" y="68.0" type="curve"/>
      <point x="472.11557243624526" y="83.0"/>
      <point x="472.4644601193706" y="94.0"/>
      <point x="479.5111231687466" y="120.0" type="curve" smooth="yes"/>
      <point x="503.78296256104176" y="212.0"/>
      <point x="521.0081389039609" y="278.0"/>
      <point x="539.7992403689636" y="352.0" type="curve" smooth="yes"/>
      <point x="550.7607162235486" y="392.0"/>
      <point x="487.03255561584376" y="486.0"/>
    </contour>
    <contour>
      <point x="542.5577862181226" y="133.51926207270753" type="line"/>
      <point x="539.5577862181226" y="133.51926207270753" type="line"/>
      <point x="538.5577862181226" y="133.51926207270753"/>
      <point x="536.5577862181226" y="133.51926207270753"/>
      <point x="535.5577862181226" y="133.51926207270753" type="curve" smooth="yes"/>
      <point x="504.5577862181226" y="133.51926207270753"/>
      <point x="472.906673901248" y="148.30222463374932"/>
      <point x="458.86814975583286" y="197.0" type="curve"/>
      <point x="381.86814975583286" y="197.0"/>
      <point x="347.51926207270753" y="188.0"/>
      <point x="338.906673901248" y="156.0" type="curve" smooth="yes"/>
      <point x="316.9837221920781" y="71.78296256104178"/>
      <point x="366.5415084102008" y="-10.0"/>
      <point x="447.75854584915896" y="-10.0" type="curve" smooth="yes"/>
      <point x="450.75854584915896" y="-10.0" type="line" smooth="yes"/>
      <point x="489.75854584915896" y="-10.0"/>
      <point x="526.1155724362452" y="69.86814975583289"/>
      <point x="538.6429734129138" y="117.51926207270755" type="curve"/>
    </contour>
    <contour>
      <point x="181.2555615843733" y="165.0" type="curve" smooth="yes"/>
      <point x="182.03852414541507" y="167.0" type="line" smooth="yes"/>
      <point x="194.56592512208357" y="215.0"/>
      <point x="202.69777536625065" y="229.0"/>
      <point x="222.96147585458493" y="251.0" type="curve"/>
      <point x="175.00813890396094" y="269.21703743895824"/>
      <point x="45.348887683125334" y="214.8296256104178"/>
      <point x="33.60444926749864" y="168.87628865979383" type="curve" smooth="yes"/>
      <point x="26.55778621812263" y="146.0" type="line" smooth="yes"/>
      <point x="3.0689093868692368" y="53.527400976668474"/>
      <point x="54.37113402061854" y="-10.0"/>
      <point x="140.8437330439501" y="-10.0" type="curve" smooth="yes"/>
      <point x="218.84373304395007" y="-10.0"/>
      <point x="293.1074335322843" y="15.217037438958219"/>
      <point x="354.11557243624526" y="84.0851871947911" type="curve" smooth="yes"/>
      <point x="386.5111231687466" y="120.51926207270755"/>
      <point x="381.3407487791644" y="151.953336950624"/>
      <point x="372.03852414541507" y="171.1703743895822" type="curve"/>
      <point x="313.86001085187195" y="130.51926207270753"/>
      <point x="263.7281606077048" y="119.51926207270753"/>
      <point x="229.72816060770484" y="119.51926207270753" type="curve" smooth="yes"/>
      <point x="226.72816060770484" y="119.51926207270753" type="line" smooth="yes"/>
      <point x="178.7281606077048" y="119.51926207270753"/>
      <point x="172.6429734129137" y="133.0"/>
    </contour>
    <contour>
      <point x="418.6592512208356" y="271.0" type="curve" smooth="yes"/>
      <point x="401.9229517091698" y="294.0"/>
      <point x="338.8377645143787" y="310.0"/>
      <point x="226.83776451437873" y="310.0" type="curve" smooth="yes"/>
      <point x="155.18665219750406" y="310.0"/>
      <point x="50.046663049376015" y="232.61258817145958"/>
      <point x="33.60444926749864" y="168.87628865979383" type="curve" smooth="yes"/>
      <point x="23.425935973955504" y="131.046663049376"/>
      <point x="38.294085729788385" y="103.0"/>
      <point x="63.813347802495926" y="103.0" type="curve"/>
      <point x="129.73629951166575" y="185.0"/>
      <point x="193.56592512208357" y="215.0"/>
      <point x="267.56592512208357" y="215.0" type="curve" smooth="yes"/>
      <point x="312.56592512208357" y="215.0"/>
      <point x="372.21703743895824" y="208.0"/>
      <point x="423.0851871947911" y="195.0" type="curve"/>
      <point x="433.2637004883342" y="235.0"/>
      <point x="427.5274009766685" y="259.0"/>
    </contour>
  </outline>
</glyph>
<glyph name="b" format="1">
  <advance width="600.0"/>
  <unicode hex="0062"/>
  <outline>
    <contour>
      <point x="10.192620727075422" y="0.0" type="line"/>
      <point x="24.14897120158591" y="-4.0"/>
      <point x="43.62714643884115" y="-6.0"/>
      <point x="66.62714643884115" y="-6.0" type="curve" smooth="yes"/>
      <point x="132.62714643884118" y="-6.0"/>
      <point x="165.67178073589534" y="21.0"/>
      <point x="180.8046988554932" y="79.0" type="curve" smooth="yes"/>
      <point x="341.2658133995051" y="677.288117200217" type="line"/>
      <point x="352.4850457985173" y="732.4422137818774"/>
      <point x="327.6594184835507" y="756.0"/>
      <point x="253.5823701927206" y="756.0" type="curve" smooth="yes"/>
      <point x="232.75274458230277" y="756.0"/>
      <point x="212.4012942091402" y="754.2170374389582"/>
      <point x="194.44283187844178" y="750.4340748779165" type="curve"/>
      <point x="193.52793596936684" y="715.2170374389582"/>
      <point x="188.91760196715376" y="685.0"/>
      <point x="178.742019093631" y="646.0" type="curve" smooth="yes"/>
    </contour>
    <contour>
      <point x="488.7769940314704" y="552.0" type="curve" smooth="yes"/>
      <point x="405.95550732501357" y="552.0"/>
      <point x="281.7688551275095" y="461.78296256104176"/>
      <point x="231.93109061313078" y="363.0" type="curve" smooth="yes"/>
      <point x="207.40368963646227" y="314.0"/>
      <point x="194.61258817145958" y="243.99999999999997"/>
      <point x="203.21703743895822" y="206.0" type="curve"/>
      <point x="281.79924036896364" y="346.9148128052089"/>
      <point x="354.32664134563214" y="396.48073792729247"/>
      <point x="426.71405317417253" y="396.48073792729247" type="curve" smooth="yes"/>
      <point x="467.9392295170917" y="396.48073792729247"/>
      <point x="505.15626695604993" y="370.7362995116658"/>
      <point x="537.8377645143787" y="309.60444926749864" type="curve"/>
      <point x="571.6207270754205" y="313.60444926749864"/>
      <point x="588.9696147585458" y="321.4725990233315"/>
      <point x="590.5355398806294" y="329.12371134020617" type="curve" smooth="yes"/>
      <point x="617.9392295170917" y="439.5577862181226"/>
      <point x="567.5599565925122" y="552.0"/>
    </contour>
    <contour>
      <point x="308.50298426478565" y="-12.0" type="curve" smooth="yes"/>
      <point x="436.4725990233315" y="-12.0"/>
      <point x="534.1622354856213" y="83.43407487791643"/>
      <point x="584.2718393922952" y="303.2088985349973" type="curve" smooth="yes"/>
      <point x="590.5355398806294" y="329.12371134020617" type="line" smooth="yes"/>
      <point x="602.2799782962561" y="381.12371134020617"/>
      <point x="586.9007053716766" y="474.0"/>
      <point x="499.9007053716766" y="474.0" type="curve"/>
      <point x="472.9007053716766" y="474.0"/>
      <point x="446.9858925664677" y="459.56592512208357"/>
      <point x="437.59034183396636" y="433.3570265870863" type="curve"/>
      <point x="450.1096039066739" y="399.69777536625065"/>
      <point x="450.41182854042324" y="381.9148128052089"/>
      <point x="430.83776451437876" y="310.0" type="curve" smooth="yes"/>
      <point x="426.13998914812805" y="293.51926207270753" type="line" smooth="yes"/>
      <point x="398.7362995116658" y="187.0851871947911"/>
      <point x="347.07704829083013" y="126.51926207270755"/>
      <point x="273.07704829083013" y="126.51926207270755" type="curve" smooth="yes"/>
      <point x="230.07704829083016" y="126.51926207270755"/>
      <point x="203.2088985349973" y="140.51926207270753"/>
      <point x="186.2555615843733" y="166.51926207270753" type="curve"/>
      <point x="166.20889853499727" y="138.0851871947911"/>
      <point x="156.37927292457948" y="97.9148128052089"/>
      <point x="169.76668475311993" y="66.69777536625068" type="curve" smooth="yes"/>
      <point x="185.37113402061857" y="30.69777536625067"/>
      <point x="238.15409658166035" y="-12.0"/>
    </contour>
  </outline>
</glyph>
<glyph name="d" format="1">
  <advance width="600.0"/>
  <unicode hex="0064"/>
  <outline>
    <contour>
      <point x="325.16440586001085" y="552.0" type="curve" smooth="yes"/>
      <point x="195.62886597938146" y="552.0"/>
      <point x="97.9392295170917" y="456.56592512208357"/>
      <point x="47.8296256104178" y="236.79110146500273" type="curve" smooth="yes"/>
      <point x="41.565925122083556" y="210.87628865979383" type="line" smooth="yes"/>
      <point x="29.821486706456867" y="158.87628865979383"/>
      <point x="45.200759631036355" y="66.0"/>
      <point x="132.20075963103636" y="66.0" type="curve" smooth="yes"/>
      <point x="159.20075963103636" y="66.0"/>
      <point x="185.11557243624526" y="80.43407487791643"/>
      <point x="194.5111231687466" y="106.64297341291373" type="curve"/>
      <point x="181.99186109603906" y="140.30222463374932"/>
      <point x="181.68963646228974" y="158.0851871947911"/>
      <point x="201.26370048833422" y="230.0" type="curve" smooth="yes"/>
      <point x="205.9614758545849" y="246.48073792729247" type="line" smooth="yes"/>
      <point x="233.3651654910472" y="352.9148128052089"/>
      <point x="285.0244167118828" y="413.48073792729247"/>
      <point x="359.0244167118828" y="413.48073792729247" type="curve" smooth="yes"/>
      <point x="402.0244167118828" y="413.48073792729247"/>
      <point x="428.8925664677157" y="399.48073792729247"/>
      <point x="445.8459034183397" y="373.48073792729247" type="curve"/>
      <point x="465.8925664677157" y="401.9148128052089"/>
      <point x="474.15626695604993" y="438.95333695062396"/>
      <point x="460.7688551275095" y="470.1703743895822" type="curve" smooth="yes"/>
      <point x="445.16440586001085" y="506.1703743895822"/>
      <point x="393.94736842105266" y="552.0"/>
    </contour>
    <contour>
      <point x="143.32447097124253" y="-12.0" type="curve" smooth="yes"/>
      <point x="226.1459576776994" y="-12.0"/>
      <point x="350.3326098752035" y="78.21703743895822"/>
      <point x="400.1703743895822" y="177.0" type="curve" smooth="yes"/>
      <point x="424.69777536625065" y="226.0"/>
      <point x="437.4888768312534" y="296.0"/>
      <point x="428.88442756375474" y="334.0" type="curve"/>
      <point x="350.30222463374935" y="193.0851871947911"/>
      <point x="277.77482365708084" y="143.51926207270753"/>
      <point x="205.38741182854042" y="143.51926207270753" type="curve" smooth="yes"/>
      <point x="164.16223548562127" y="143.51926207270753"/>
      <point x="126.94519804666305" y="169.26370048833422"/>
      <point x="94.26370048833422" y="230.39555073250136" type="curve"/>
      <point x="60.48073792729245" y="226.39555073250136"/>
      <point x="43.13185024416712" y="218.52740097666847"/>
      <point x="41.565925122083556" y="210.87628865979383" type="curve" smooth="yes"/>
      <point x="14.162235485621267" y="100.44221378187737"/>
      <point x="64.54150841020075" y="-12.0"/>
    </contour>
    <contour>
      <point x="514.9332609875204" y="750.0" type="curve"/>
      <point x="513.537710255019" y="714.0"/>
      <point x="508.7080846446012" y="684.0"/>
      <point x="498.52957135105805" y="646.0" type="curve" smooth="yes"/>
      <point x="385.78296256104176" y="213.00000000000003" type="line"/>
      <point x="356.81334780249597" y="104.90667390124796"/>
      <point x="350.92892023874117" y="50.86814975583288"/>
      <point x="369.75040694519805" y="25.0" type="curve" smooth="yes"/>
      <point x="385.83559413998915" y="3.4340748779164407"/>
      <point x="420.7970699945741" y="-4.0"/>
      <point x="451.2778079218665" y="-4.0" type="curve" smooth="yes"/>
      <point x="465.2778079218665" y="-4.0"/>
      <point x="478.40965816603364" y="-3.0"/>
      <point x="493.1926207270754" y="5.551115123125783e-17" type="curve"/>
      <point x="493.58817145957676" y="36.0"/>
      <point x="497.41779706999455" y="67.0"/>
      <point x="507.5963103635377" y="106.0" type="curve" smooth="yes"/>
      <point x="661.0569723277265" y="694.0" type="line"/>
      <point x="665.7547476939772" y="711.0"/>
      <point x="663.8865979381443" y="724.0"/>
      <point x="657.2354856212696" y="733.0" type="curve" smooth="yes"/>
      <point x="643.7162235485621" y="752.0"/>
      <point x="618.4991861096039" y="756.0"/>
      <point x="579.4991861096039" y="756.0" type="curve" smooth="yes"/>
      <point x="556.4991861096039" y="756.0"/>
      <point x="533.7162235485621" y="754.0"/>
    </contour>
  </outline>
</glyph>
<glyph name="h" format="1">
  <advance width="600.0"/>
  <unicode hex="0068"/>
  <outline>
    <contour>
      <point x="173.10743353228432" y="2.220446049250313e-16" type="curve"/>
      <point x="343.2223061870742" y="644.4036896364623" type="line" smooth="yes"/>
      <point x="352.8760642978521" y="686.3955507325013"/>
      <point x="349.61658752189373" y="704.7829625610418"/>
      <point x="337.9671362273576" y="720.085187194791" type="curve" smooth="yes"/>
      <point x="320.44607081925295" y="743.8681497558329"/>
      <point x="287.7035188428895" y="754.4340748779165"/>
      <point x="239.05240652601483" y="754.4340748779165" type="curve" smooth="yes"/>
      <point x="225.26944396497308" y="754.4340748779165"/>
      <point x="211.44260646151716" y="753.4340748779165"/>
      <point x="196.87690675635824" y="750.4340748779165" type="curve"/>
      <point x="196.48406102695265" y="714.4340748779165"/>
      <point x="192.39577720440894" y="683.4340748779165"/>
      <point x="182.22019433088627" y="644.4340748779165" type="curve" smooth="yes"/>
      <point x="28.80371408392854" y="56.0" type="line" smooth="yes"/>
      <point x="14.714445489820164" y="2.0"/>
      <point x="56.97603412196649" y="-6.0"/>
      <point x="113.9760341219665" y="-6.0" type="curve" smooth="yes"/>
      <point x="136.7589966830083" y="-6.0"/>
      <point x="157.0637840067948" y="-4.0"/>
    </contour>
    <contour>
      <point x="498.296256104178" y="552.0" type="curve" smooth="yes"/>
      <point x="407.39105027692744" y="552.0"/>
      <point x="295.93083414804426" y="453.68175189034963"/>
      <point x="240.1866521975041" y="338.0" type="curve" smooth="yes"/>
      <point x="199.3075703832862" y="252.35798827620545"/>
      <point x="182.47261338431605" y="157.518242442806"/>
      <point x="187.59631036353773" y="89.5577862181226" type="curve"/>
      <point x="285.66739012479655" y="323.47259902333155"/>
      <point x="360.24145415084104" y="390.48073792729247"/>
      <point x="410.76071622354857" y="390.48073792729247" type="curve" smooth="yes"/>
      <point x="435.76071622354857" y="390.48073792729247"/>
      <point x="453.730201834855" y="368.48073792729247"/>
      <point x="459.98914467309794" y="323.48073792729247" type="curve"/>
      <point x="516.4588111008339" y="323.48073792729247"/>
      <point x="565.0162778079218" y="347.43407487791643"/>
      <point x="571.2799782962561" y="374.60444926749864" type="curve" smooth="yes"/>
      <point x="593.202930005426" y="457.0851871947911"/>
      <point x="564.6283800746673" y="552.0"/>
    </contour>
    <contour>
      <point x="495.1926207270754" y="0.0" type="curve"/>
      <point x="494.5864512280457" y="59.0"/>
      <point x="498.9792969574512" y="95.0"/>
      <point x="515.6776893652834" y="159.0" type="curve" smooth="yes"/>
      <point x="571.2799782962561" y="374.60444926749864" type="line"/>
      <point x="582.241454150841" y="411.0"/>
      <point x="555.5903418339664" y="432.48073792729247"/>
      <point x="467.41996744438416" y="429.48073792729247" type="curve"/>
      <point x="410.96961475854584" y="322.9148128052089"/>
      <point x="366.9148128052089" y="218.56592512208354"/>
      <point x="346.5577862181226" y="143.39555073250136" type="curve" smooth="yes"/>
      <point x="341.86001085187195" y="129.0" type="line" smooth="yes"/>
      <point x="312.1074335322843" y="22.0"/>
      <point x="350.6271464388412" y="-6.0"/>
      <point x="435.6271464388412" y="-6.0" type="curve" smooth="yes"/>
      <point x="456.6271464388412" y="-6.0"/>
      <point x="474.14897120158594" y="-4.0"/>
    </contour>
  </outline>
</glyph>
<glyph name="i" format="1">
  <advance width="600.0"/>
  <unicode hex="0069"/>
  <outline>
    <contour>
      <point x="142.08530666815906" y="540.0" type="curve"/>
      <point x="134.1716209475734" y="525.0"/>
      <point x="126.95337332012585" y="505.0"/>
      <point x="120.95238854856119" y="482.0" type="curve" smooth="yes"/>
      <point x="106.97088811197618" y="427.45524782372786"/>
      <point x="114.77483613190913" y="395.48073792729247"/>
      <point x="141.77483613190913" y="395.48073792729247" type="curve" smooth="yes"/>
      <point x="186.77483613190915" y="395.48073792729247"/>
      <point x="226.86213518288812" y="403.48073792729247"/>
      <point x="344.29863043778323" y="443.48073792729247" type="curve"/>
      <point x="363.3778483256383" y="517.6637954422138"/>
      <point x="364.6944304818828" y="550.0"/>
      <point x="328.6944304818828" y="550.0" type="curve" smooth="yes"/>
      <point x="262.6944304818828" y="550.0"/>
      <point x="199.9116933377657" y="547.0"/>
    </contour>
    <contour>
      <point x="454.3452342779667" y="518.0" type="curve" smooth="yes"/>
      <point x="439.5634819054143" y="538.0"/>
      <point x="395.6944304818828" y="550.0"/>
      <point x="338.6944304818828" y="550.0" type="curve" smooth="yes"/>
      <point x="328.6944304818828" y="550.0" type="line"/>
      <point x="249.1161541633078" y="245.00000000000003" type="line" smooth="yes"/>
      <point x="217.80666839862255" y="125.0"/>
      <point x="248.28287409274844" y="77.0"/>
      <point x="355.28287409274844" y="77.0" type="curve"/>
      <point x="460.16965140444404" y="479.0" type="line" smooth="yes"/>
      <point x="465.12698665051926" y="498.0"/>
      <point x="463.9533733201258" y="505.0"/>
    </contour>
    <contour>
      <point x="32.50309126332535" y="144.51926207270753" type="line"/>
      <point x="30.937616975091075" y="138.51926207270753"/>
      <point x="29.37214268685682" y="132.51926207270756"/>
      <point x="27.54575601725017" y="125.51926207270755" type="curve" smooth="yes"/>
      <point x="13.12270761994472" y="69.43244709712425"/>
      <point x="13.398767779396621" y="37.56284808832062"/>
      <point x="26.41086835452296" y="20.0" type="curve" smooth="yes"/>
      <point x="37.416836872102984" y="5.08034576183432"/>
      <point x="56.19262072707542" y="0.2170374389582203"/>
      <point x="102.19262072707542" y="0.2170374389582203" type="curve"/>
      <point x="500.1926207270754" y="0.0" type="line"/>
      <point x="508.8683392505195" y="14.064246515846328"/>
      <point x="514.2372550241296" y="26.999999999999996"/>
      <point x="518.4118531260876" y="42.99999999999999" type="curve" smooth="yes"/>
      <point x="533.7739839919378" y="102.77302346336985"/>
      <point x="488.5030912633253" y="144.51926207270753"/>
      <point x="337.50309126332536" y="144.51926207270753" type="curve"/>
    </contour>
    <contour>
      <point x="513.0488334237656" y="625.0" type="curve"/>
      <point x="534.9717851329355" y="708.0" type="line" smooth="yes"/>
      <point x="549.0651112316875" y="762.0"/>
      <point x="502.41399891481285" y="770.0"/>
      <point x="441.41399891481285" y="770.0" type="curve" smooth="yes"/>
      <point x="418.4139989148128" y="770.0"/>
      <point x="387.63103635377104" y="768.0"/>
      <point x="361.8480737927292" y="764.0" type="curve"/>
      <point x="339.9251220835594" y="681.0" type="line" smooth="yes"/>
      <point x="325.8317959848074" y="627.0"/>
      <point x="372.4829083016821" y="619.0"/>
      <point x="433.4829083016821" y="619.0" type="curve" smooth="yes"/>
      <point x="456.4829083016821" y="619.0"/>
      <point x="487.26587086272383" y="621.0"/>
    </contour>
  </outline>
</glyph>
<glyph name="j" format="1">
  <advance width="600.0"/>
  <unicode hex="006A"/>
  <outline>
    <contour>
      <point x="142.08530666815906" y="540.0" type="curve"/>
      <point x="134.1716209475734" y="525.0"/>
      <point x="126.95337332012585" y="505.0"/>
      <point x="120.95238854856119" y="482.0" type="curve" smooth="yes"/>
      <point x="104.73278380963919" y="418.7856643415319"/>
      <point x="117.47027422504723" y="390.48073792729247"/>
      <point x="146.47027422504723" y="390.48073792729247" type="curve" smooth="yes"/>
      <point x="192.47027422504726" y="390.48073792729247"/>
      <point x="262.2966608946539" y="397.48073792729247"/>
      <point x="399.0803828103357" y="423.48073792729247" type="curve"/>
      <point x="419.58770066441457" y="503.034516351798"/>
      <point x="421.6944304818828" y="550.0"/>
      <point x="388.6944304818828" y="550.0" type="curve" smooth="yes"/>
      <point x="325.6944304818828" y="550.0"/>
      <point x="202.91169333776568" y="547.0"/>
    </contour>
    <contour>
      <point x="393.6266956049919" y="-6.0" type="curve" smooth="yes"/>
      <point x="520.169651404444" y="479.0" type="line" smooth="yes"/>
      <point x="525.1269866505193" y="498.0"/>
      <point x="523.9533733201258" y="505.0"/>
      <point x="514.3452342779667" y="518.0" type="curve" smooth="yes"/>
      <point x="498.8243942867866" y="539.0"/>
      <point x="451.6944304818828" y="550.0"/>
      <point x="398.6944304818828" y="550.0" type="curve" smooth="yes"/>
      <point x="388.6944304818828" y="550.0" type="line"/>
      <point x="243.62669560499188" y="-5.48073792729246" type="line" smooth="yes"/>
      <point x="224.05263157894737" y="-81.78296256104178"/>
      <point x="202.39338035811178" y="-111.43407487791644"/>
      <point x="136.50895279435701" y="-149.47259902333153" type="curve"/>
      <point x="221.56375474769396" y="-207.046663049376"/>
      <point x="354.47856755290286" y="-144.148128052089"/>
    </contour>
    <contour>
      <point x="114.00596852957135" y="-105.48073792729245" type="curve" smooth="yes"/>
      <point x="37.005968529571334" y="-105.48073792729245"/>
      <point x="-6.645143787303326" y="-96.48073792729245"/>
      <point x="-47.16440586001086" y="-76.48073792729245" type="curve"/>
      <point x="-51.16440586001087" y="-76.48073792729245" type="line"/>
      <point x="-57.29625610417797" y="-88.48073792729247"/>
      <point x="-61.42810634834511" y="-100.48073792729245"/>
      <point x="-65.34291915355396" y="-114.48073792729244" type="curve" smooth="yes"/>
      <point x="-75.52143244709714" y="-156.1318502441671"/>
      <point x="-75.48290830168204" y="-199.78296256104178"/>
      <point x="-59.96364622897448" y="-220.0" type="curve" smooth="yes"/>
      <point x="-46.66142159522519" y="-238.0"/>
      <point x="-2.7932718393922755" y="-250.0"/>
      <point x="103.30005425935973" y="-250.0" type="curve" smooth="yes"/>
      <point x="244.82745523602821" y="-250.0"/>
      <point x="357.2615301139447" y="-150.69777536625068"/>
      <point x="393.6266956049919" y="-6.0" type="curve" smooth="yes"/>
      <point x="395.9755832881172" y="4.651112316874663"/>
      <point x="374.84373304395007" y="32.61258817145958"/>
      <point x="345.84373304395007" y="32.61258817145958" type="curve"/>
      <point x="283.657080846446" y="-74.38741182854042"/>
      <point x="195.00596852957136" y="-105.48073792729245"/>
    </contour>
    <contour>
      <point x="570.0488334237656" y="625.0" type="curve"/>
      <point x="591.9717851329355" y="708.0" type="line" smooth="yes"/>
      <point x="606.0651112316875" y="762.0"/>
      <point x="559.4139989148129" y="770.0"/>
      <point x="498.41399891481285" y="770.0" type="curve" smooth="yes"/>
      <point x="475.41399891481285" y="770.0"/>
      <point x="444.63103635377104" y="768.0"/>
      <point x="418.8480737927293" y="764.0" type="curve"/>
      <point x="396.9251220835594" y="681.0" type="line" smooth="yes"/>
      <point x="382.8317959848074" y="627.0"/>
      <point x="429.4829083016821" y="619.0"/>
      <point x="490.4829083016821" y="619.0" type="curve" smooth="yes"/>
      <point x="513.4829083016821" y="619.0"/>
      <point x="544.2658708627239" y="621.0"/>
    </contour>
  </outline>
</glyph>
<glyph name="k" format="1">
  <advance width="600.0"/>
  <unicode hex="006B"/>
  <outline>
    <contour>
      <point x="175.19262072707542" y="4.440892098500626e-16" type="curve"/>
      <point x="341.39380766127965" y="637.0" type="line" smooth="yes"/>
      <point x="354.9612514926432" y="689.0"/>
      <point x="352.13584959460127" y="705.0"/>
      <point x="337.35409722204884" y="725.0" type="curve" smooth="yes"/>
      <point x="321.0941696122411" y="747.0"/>
      <point x="272.9205562818477" y="754.0"/>
      <point x="240.92055628184772" y="754.0" type="curve" smooth="yes"/>
      <point x="226.92055628184775" y="754.0"/>
      <point x="212.65964390047537" y="753.0"/>
      <point x="197.87690675635824" y="750.0" type="curve"/>
      <point x="197.48406102695265" y="714.0"/>
      <point x="193.39577720440897" y="683.0"/>
      <point x="183.22019433088627" y="644.0" type="curve" smooth="yes"/>
      <point x="29.803714083928554" y="56.00000000000001" type="line" smooth="yes"/>
      <point x="15.714445489820179" y="2.0"/>
      <point x="58.62714643884115" y="-6.0"/>
      <point x="115.62714643884118" y="-6.0" type="curve" smooth="yes"/>
      <point x="138.62714643884118" y="-6.0"/>
      <point x="159.1489712015859" y="-4.0"/>
    </contour>
    <contour>
      <point x="492.21625524462763" y="552.0" type="line"/>
      <point x="404.5139237505367" y="396.0"/>
      <point x="277.46731991035324" y="323.0"/>
      <point x="134.8998760789896" y="271.0" type="curve"/>
      <point x="117.94057128978511" y="206.0"/>
      <point x="140.06955032312428" y="172.0"/>
      <point x="165.1131998486138" y="176.0" type="curve" smooth="yes"/>
      <point x="304.8532722388061" y="198.0"/>
      <point x="490.98815990153327" y="302.0"/>
      <point x="591.6895066240595" y="435.0" type="curve" smooth="yes"/>
      <point x="617.5605275907203" y="469.0"/>
      <point x="621.6914761671889" y="481.0"/>
      <point x="625.3442495064021" y="495.0" type="curve" smooth="yes"/>
      <point x="633.4325333289457" y="526.0"/>
      <point x="579.2162552446276" y="552.0"/>
      <point x="516.2162552446276" y="552.0" type="curve"/>
    </contour>
    <contour>
      <point x="432.5834969133516" y="-10.0" type="curve" smooth="yes"/>
      <point x="480.58349691335167" y="-10.0"/>
      <point x="506.4098835829583" y="-2.999999999999999"/>
      <point x="536.8890435917782" y="18.0" type="curve"/>
      <point x="467.28385886431306" y="100.0"/>
      <point x="417.4623960525298" y="208.0"/>
      <point x="389.5109694358427" y="327.0" type="curve"/>
      <point x="334.64093324074656" y="316.0"/>
      <point x="259.1171389348725" y="268.0"/>
      <point x="263.7242932054669" y="232.0" type="curve" smooth="yes"/>
      <point x="271.85130269567674" y="152.0"/>
      <point x="312.58645122804563" y="59.0"/>
      <point x="334.01999216824674" y="30.0" type="curve" smooth="yes"/>
      <point x="355.4535331084478" y="1.0000000000000002"/>
      <point x="382.5834969133516" y="-10.0"/>
    </contour>
  </outline>
</glyph>
<glyph name="l" format="1">
  <advance width="600.0"/>
  <unicode hex="006C"/>
  <outline>
    <contour>
      <point x="196.87690675635824" y="750.0" type="curve"/>
      <point x="188.9632210357726" y="735.0"/>
      <point x="181.74497340832505" y="715.0"/>
      <point x="175.74398863676035" y="692.0" type="curve" smooth="yes"/>
      <point x="160.6110705171625" y="634.0"/>
      <point x="169.56643622010833" y="605.4807379272925"/>
      <point x="196.56643622010836" y="605.4807379272925" type="curve" smooth="yes"/>
      <point x="241.56643622010836" y="605.4807379272925"/>
      <point x="281.6537352710873" y="613.4807379272925"/>
      <point x="399.0902305259824" y="653.4807379272925" type="curve"/>
      <point x="419.44139627302786" y="731.4807379272925"/>
      <point x="419.486030570082" y="760.0"/>
      <point x="383.486030570082" y="760.0" type="curve" smooth="yes"/>
      <point x="317.486030570082" y="760.0"/>
      <point x="254.70329342596486" y="757.0"/>
    </contour>
    <contour>
      <point x="509.136834366166" y="728.0" type="curve" smooth="yes"/>
      <point x="494.3550819936135" y="748.0"/>
      <point x="450.486030570082" y="760.0"/>
      <point x="393.486030570082" y="760.0" type="curve" smooth="yes"/>
      <point x="383.486030570082" y="760.0" type="line"/>
      <point x="249.1161541633078" y="245.00000000000003" type="line" smooth="yes"/>
      <point x="217.80666839862255" y="125.0"/>
      <point x="248.28287409274844" y="77.0"/>
      <point x="355.28287409274844" y="77.0" type="curve"/>
      <point x="514.9612514926432" y="689.0" type="line" smooth="yes"/>
      <point x="519.9185867387184" y="708.0"/>
      <point x="518.744973408325" y="715.0"/>
    </contour>
    <contour>
      <point x="32.50309126332535" y="144.51926207270753" type="line"/>
      <point x="30.937616975091075" y="138.5192620727075"/>
      <point x="29.37214268685682" y="132.51926207270756"/>
      <point x="27.54575601725017" y="125.51926207270755" type="curve" smooth="yes"/>
      <point x="12.151925516279931" y="66.51926207270753"/>
      <point x="13.107291219225743" y="38.0"/>
      <point x="26.41086835452296" y="20.0" type="curve" smooth="yes"/>
      <point x="37.4971826339373" y="5.0"/>
      <point x="56.19262072707542" y="0.0"/>
      <point x="102.19262072707542" y="0.0" type="curve"/>
      <point x="500.1926207270754" y="0.0" type="line"/>
      <point x="508.84539406628863" y="14.0"/>
      <point x="514.2372550241296" y="27.0"/>
      <point x="518.4118531260876" y="43.0" type="curve" smooth="yes"/>
      <point x="534.8493331525474" y="106.0"/>
      <point x="488.5030912633253" y="144.51926207270753"/>
      <point x="337.50309126332536" y="144.51926207270753" type="curve"/>
    </contour>
  </outline>
</glyph>
<glyph name="m" format="1">
  <advance width="600.0"/>
  <unicode hex="006D"/>
  <outline>
    <contour>
      <point x="125.19262072707542" y="4.440892098500626e-16" type="curve"/>
      <point x="231.90578470837764" y="409.0" type="line" smooth="yes"/>
      <point x="253.30059998091258" y="491.0"/>
      <point x="246.21428570149826" y="506.0"/>
      <point x="233.64979618482863" y="523.0" type="curve" smooth="yes"/>
      <point x="218.86804381227617" y="543.0"/>
      <point x="187.6507809563933" y="546.0"/>
      <point x="156.6507809563933" y="546.0" type="curve" smooth="yes"/>
      <point x="142.6507809563933" y="546.0"/>
      <point x="128.38986857502093" y="545.0"/>
      <point x="113.60713143090378" y="542.0" type="curve"/>
      <point x="113.21428570149823" y="506.0"/>
      <point x="109.12600187895455" y="475.0"/>
      <point x="98.95041900543183" y="436.0" type="curve" smooth="yes"/>
      <point x="-0.19628591607146717" y="56.00000000000001" type="line" smooth="yes"/>
      <point x="-14.285554510179836" y="2.0"/>
      <point x="8.627146438841159" y="-6.0"/>
      <point x="65.62714643884115" y="-6.0" type="curve" smooth="yes"/>
      <point x="88.62714643884117" y="-6.0"/>
      <point x="109.14897120158591" y="-4.0"/>
    </contour>
    <contour>
      <point x="357.99403147042864" y="550.0" type="curve" smooth="yes"/>
      <point x="308.61609528132925" y="550.0"/>
      <point x="243.1179465730641" y="471.51961828189394"/>
      <point x="211.20936184367486" y="391.0" type="curve" smooth="yes"/>
      <point x="200.42563992799305" y="365.0"/>
      <point x="193.0327941985875" y="329.0"/>
      <point x="195.72724752016094" y="301.0" type="curve"/>
      <point x="236.81785813573603" y="365.06208158337597"/>
      <point x="269.60122280151575" y="402.48073792729247"/>
      <point x="298.60122280151575" y="402.48073792729247" type="curve" smooth="yes"/>
      <point x="311.3724536091003" y="402.48073792729247"/>
      <point x="321.1779199045295" y="395.3904111114674"/>
      <point x="327.90547618758694" y="375.48073792729247" type="curve"/>
      <point x="359.34076727801545" y="384.88083719989794"/>
      <point x="395.254719844379" y="414.1276374141126"/>
      <point x="399.15626695604993" y="430.95333695062396" type="curve" smooth="yes"/>
      <point x="417.0308605043642" y="500.2388636103133"/>
      <point x="388.432168842625" y="550.0"/>
    </contour>
    <contour>
      <point x="287.1926207270754" y="0.0" type="curve"/>
      <point x="399.15626695604993" y="430.95333695062396" type="line" smooth="yes"/>
      <point x="411.68366793271844" y="478.78296256104176"/>
      <point x="399.4666304937602" y="485.0"/>
      <point x="346.1177428106348" y="471.0" type="curve"/>
      <point x="275.9229517091698" y="293.0"/>
      <point x="242.30222463374932" y="192.0"/>
      <point x="218.03038524145416" y="98.0" type="curve" smooth="yes"/>
      <point x="216.46446011937059" y="94.0" type="line" smooth="yes"/>
      <point x="199.23928377645143" y="28.0"/>
      <point x="214.40965816603364" y="-3.0"/>
      <point x="271.40965816603364" y="-3.0" type="curve" smooth="yes"/>
      <point x="276.40965816603364" y="-3.0"/>
      <point x="281.40965816603364" y="-2.0"/>
    </contour>
    <contour>
      <point x="546.7769940314704" y="552.0" type="curve" smooth="yes"/>
      <point x="494.41616532213504" y="552.0"/>
      <point x="412.8492657088534" y="479.50208797073395"/>
      <point x="373.67552902875747" y="407.0" type="curve" smooth="yes"/>
      <point x="356.06294085729786" y="375.0"/>
      <point x="346.4503526858383" y="342.0"/>
      <point x="357.4888768312534" y="301.0" type="curve"/>
      <point x="391.7180699407777" y="366.52447182686694"/>
      <point x="429.6368423464295" y="402.48073792729247"/>
      <point x="465.60122280151575" y="402.48073792729247" type="curve" smooth="yes"/>
      <point x="486.49270408203665" y="402.48073792729247"/>
      <point x="495.2975770990707" y="393.58883691536863"/>
      <point x="498.77385136034445" y="372.48073792729247" type="curve"/>
      <point x="576.9423355516232" y="380.64689574004893"/>
      <point x="608.5436787845904" y="398.3344511354438"/>
      <point x="614.8073792729245" y="420.95333695062396" type="curve" smooth="yes"/>
      <point x="627.3347802495931" y="469.0851871947911"/>
      <point x="594.3218915615054" y="552.0"/>
    </contour>
    <contour>
      <point x="526.1926207270755" y="0.0" type="curve"/>
      <point x="525.5864512280457" y="59.0"/>
      <point x="529.9792969574512" y="95.0"/>
      <point x="546.6776893652834" y="159.0" type="curve" smooth="yes"/>
      <point x="614.8073792729245" y="420.95333695062396" type="line" smooth="yes"/>
      <point x="619.5051546391753" y="440.86814975583286"/>
      <point x="586.663178707392" y="457.0"/>
      <point x="507.4295790142518" y="457.0" type="curve"/>
      <point x="450.25005705447035" y="326.0"/>
      <point x="412.5933446289984" y="220.0"/>
      <point x="390.154879830974" y="134.0" type="curve" smooth="yes"/>
      <point x="388.85031792411206" y="129.0" type="line" smooth="yes"/>
      <point x="360.9326931172677" y="22.0"/>
      <point x="381.6271464388412" y="-6.0"/>
      <point x="466.6271464388411" y="-6.0" type="curve" smooth="yes"/>
      <point x="487.6271464388411" y="-6.0"/>
      <point x="505.14897120158594" y="-4.0"/>
    </contour>
  </outline>
</glyph>
<glyph name="n" format="1">
  <advance width="600.0"/>
  <unicode hex="006E"/>
  <outline>
    <contour>
      <point x="167.62669560499185" y="-3.1318502441671185" type="curve"/>
      <point x="283.50515463917526" y="423.07107976125883" type="line" smooth="yes"/>
      <point x="293.6836679327184" y="469.4036896364623"/>
      <point x="288.42810634834507" y="491.04666304937604"/>
      <point x="274.87032013022247" y="508.51926207270753" type="curve" smooth="yes"/>
      <point x="257.1340206185567" y="532.5192620727075"/>
      <point x="224.08735756918068" y="542.8681497558329"/>
      <point x="179.342919153554" y="542.8681497558329" type="curve" smooth="yes"/>
      <point x="165.5599565925122" y="542.8681497558329"/>
      <point x="151.99403147042864" y="541.8681497558329"/>
      <point x="137.4281063483451" y="538.8681497558329" type="curve"/>
      <point x="137.03255561584373" y="502.86814975583286"/>
      <point x="133.20293000542594" y="471.86814975583286"/>
      <point x="123.02441671188281" y="432.86814975583286" type="curve" smooth="yes"/>
      <point x="23.58817145957677" y="52.86814975583288" type="line" smooth="yes"/>
      <point x="9.49484536082474" y="-1.1318502441671185"/>
      <point x="51.06077048290829" y="-9.131850244167119"/>
      <point x="108.0607704829083" y="-9.131850244167119" type="curve" smooth="yes"/>
      <point x="131.0607704829083" y="-9.131850244167119"/>
      <point x="151.84373304395007" y="-7.1318502441671185"/>
    </contour>
    <contour>
      <point x="487.33478024959305" y="548.8681497558329" type="curve" smooth="yes"/>
      <point x="398.24959305480195" y="548.8681497558329"/>
      <point x="292.0244167118828" y="446.95333695062396"/>
      <point x="234.70591427021162" y="329.3874118285404" type="curve" smooth="yes"/>
      <point x="193.78296256104178" y="243.953336950624"/>
      <point x="177.77482365708084" y="154.38741182854045"/>
      <point x="182.89853499728702" y="97.3874118285404" type="curve"/>
      <point x="284.101465002713" y="336.7829625610418"/>
      <point x="360.24145415084104" y="387.3488876831253"/>
      <point x="410.76071622354857" y="387.3488876831253" type="curve" smooth="yes"/>
      <point x="436.5436787845903" y="387.3488876831253"/>
      <point x="456.62886597938143" y="371.6125881714596"/>
      <point x="462.101465002713" y="339.13998914812805" type="curve"/>
      <point x="520.101465002713" y="339.13998914812805"/>
      <point x="566.5822029300055" y="365.4422137818774"/>
      <point x="575.1947911014651" y="396.5274009766685" type="curve" smooth="yes"/>
      <point x="590.8540423223006" y="455.51926207270753"/>
      <point x="554.7303309820944" y="548.8681497558329"/>
    </contour>
    <contour>
      <point x="489.711882799783" y="-3.131850244167119" type="curve"/>
      <point x="489.37113402061857" y="55.86814975583288"/>
      <point x="493.76668475311993" y="91.86814975583289"/>
      <point x="510.2088985349973" y="155.8681497558329" type="curve" smooth="yes"/>
      <point x="575.1947911014651" y="396.5274009766685" type="line"/>
      <point x="580.6755290287574" y="419.61258817145955"/>
      <point x="558.7221920781335" y="429.3488876831253"/>
      <point x="461.9392295170917" y="426.3488876831253" type="curve"/>
      <point x="405.4888768312534" y="324.48073792729247"/>
      <point x="354.7235489067882" y="216.44248611265974"/>
      <point x="334.8133478024959" y="138.69777536625068" type="curve" smooth="yes"/>
      <point x="330.898534997287" y="125.86814975583289" type="line" smooth="yes"/>
      <point x="302.4682598408116" y="17.35431831787694"/>
      <point x="339.59997287032013" y="-9.131850244167119"/>
      <point x="430.1459576776994" y="-9.131850244167119" type="curve" smooth="yes"/>
      <point x="451.1459576776994" y="-9.131850244167119"/>
      <point x="468.92892023874117" y="-7.131850244167119"/>
    </contour>
  </outline>
</glyph>
<glyph name="o" format="1">
  <advance width="600.0"/>
  <unicode hex="006F"/>
  <outline>
    <contour>
      <point x="393.25773195876286" y="552.0" type="curve" smooth="yes"/>
      <point x="239.95640228019016" y="552.0"/>
      <point x="112.63700488334237" y="444.7444384156267"/>
      <point x="62.527400976668474" y="258.0" type="curve" smooth="yes"/>
      <point x="58.61258817145958" y="244.0" type="line" smooth="yes"/>
      <point x="10.297371169715873" y="70.46847561639356"/>
      <point x="112.80813190275322" y="-12.0"/>
      <point x="253.50298426478568" y="-12.0" type="curve" smooth="yes"/>
      <point x="287.46203380460486" y="-12.0"/>
      <point x="316.5496473141617" y="14.0"/>
      <point x="325.94519804666305" y="52.0" type="curve"/>
      <point x="205.8429224221901" y="52.0"/>
      <point x="167.04623757447098" y="103.63405600801363"/>
      <point x="202.55067987507357" y="239.0" type="curve" smooth="yes"/>
      <point x="204.3770665446802" y="246.0" type="line" smooth="yes"/>
      <point x="236.83921317227762" y="369.3251882353816"/>
      <point x="291.51490852210145" y="417.48073792729247"/>
      <point x="377.5149085221014" y="417.48073792729247" type="curve" smooth="yes"/>
      <point x="431.58067744299785" y="417.48073792729247"/>
      <point x="448.6034796264886" y="406.4822554149901"/>
      <point x="478.8175008858339" y="376.48073792729247" type="curve"/>
      <point x="590.0421586484761" y="430.0956018775772"/>
      <point x="486.62131794706784" y="552.0"/>
    </contour>
    <contour>
      <point x="253.50298426478568" y="-12.0" type="curve" smooth="yes"/>
      <point x="400.5390796579077" y="-12.0"/>
      <point x="519.1738497620468" y="71.16958327600335"/>
      <point x="558.6125881714596" y="242.0" type="curve" smooth="yes"/>
      <point x="561.7444384156267" y="256.0" type="line" smooth="yes"/>
      <point x="610.288117200217" y="456.0851871947911"/>
      <point x="515.4281063483451" y="552.0"/>
      <point x="393.25773195876286" y="552.0" type="curve" smooth="yes"/>
      <point x="365.25773195876286" y="552.0"/>
      <point x="340.4325333289458" y="526.0"/>
      <point x="330.5178628367955" y="488.0" type="curve"/>
      <point x="426.8619674018393" y="488.0"/>
      <point x="460.35058441026507" y="422.2028985507246"/>
      <point x="418.29075226526584" y="261.0" type="curve" smooth="yes"/>
      <point x="416.4643655956592" y="254.0" type="line" smooth="yes"/>
      <point x="391.78691811791157" y="160.27917761945855"/>
      <point x="347.5305596579552" y="122.51926207270755"/>
      <point x="264.95333695062396" y="122.51926207270755" type="curve" smooth="yes"/>
      <point x="203.4000645897079" y="122.51926207270755"/>
      <point x="177.85239728961147" y="133.01552956818267"/>
      <point x="142.46042650940052" y="163.51926207270753" type="curve"/>
      <point x="69.60385358232764" y="105.6505891857908"/>
      <point x="146.24742987820053" y="-12.0"/>
    </contour>
  </outline>
</glyph>
<glyph name="p" format="1">
  <advance width="600.0"/>
  <unicode hex="0070"/>
  <outline>
    <contour>
      <point x="108.0101444526" y="-200.0" type="curve"/>
      <point x="246.0327941985875" y="329.0" type="line" smooth="yes"/>
      <point x="275.2549809122937" y="440.7829625610418"/>
      <point x="284.3911379727027" y="489.1785132935431"/>
      <point x="263.74357311742995" y="516.3488876831253" type="curve" smooth="yes"/>
      <point x="248.23891663828795" y="537.3246159090211"/>
      <point x="209.7224033112495" y="546.0"/>
      <point x="180.78263120056044" y="546.0" type="curve"/>
      <point x="166.78263120056044" y="546.0"/>
      <point x="153.38986857502093" y="545.0"/>
      <point x="138.6071314309038" y="542.0" type="curve"/>
      <point x="138.21428570149823" y="506.0"/>
      <point x="134.12600187895455" y="475.0"/>
      <point x="123.95041900543183" y="436.0" type="curve" smooth="yes"/>
      <point x="-27.378762190546894" y="-144.0" type="line" smooth="yes"/>
      <point x="-41.46803078465524" y="-198.0"/>
      <point x="-2.555329835634282" y="-206.0"/>
      <point x="48.444670164365746" y="-206.0" type="curve"/>
      <point x="71.44467016436573" y="-206.0"/>
      <point x="91.96649492711049" y="-204.0"/>
    </contour>
    <contour>
      <point x="494.21625524462763" y="552.0" type="curve" smooth="yes"/>
      <point x="401.2162552446276" y="552.0"/>
      <point x="281.4732285397413" y="461.0"/>
      <point x="231.90381516524826" y="363.0" type="curve" smooth="yes"/>
      <point x="207.1191084780018" y="314.0"/>
      <point x="194.85524178193543" y="243.99999999999997"/>
      <point x="202.9405712897851" y="205.99999999999997" type="curve"/>
      <point x="279.68556753780075" y="343.0"/>
      <point x="354.03574851328153" y="396.48073792729247"/>
      <point x="435.0357485132815" y="396.48073792729247" type="curve" smooth="yes"/>
      <point x="459.0357485132815" y="396.48073792729247"/>
      <point x="491.5565885044616" y="377.0"/>
      <point x="540.4236703848637" y="319.0" type="curve"/>
      <point x="574.4673199103532" y="323.0"/>
      <point x="592.3373561054494" y="334.0"/>
      <point x="594.9464799191732" y="344.0" type="curve" smooth="yes"/>
      <point x="624.1686666328794" y="456.0"/>
      <point x="572.2162552446276" y="552.0"/>
    </contour>
    <contour>
      <point x="292.0616721506069" y="-12.0" type="curve" smooth="yes"/>
      <point x="391.0616721506069" y="-12.0"/>
      <point x="527.3701731437275" y="85.0"/>
      <point x="589.2064075289808" y="322.0" type="curve" smooth="yes"/>
      <point x="594.9464799191732" y="344.0" type="line" smooth="yes"/>
      <point x="608.5139237505367" y="396.0"/>
      <point x="588.6914761671889" y="479.48073792729247"/>
      <point x="501.69147616718885" y="479.48073792729247" type="curve" smooth="yes"/>
      <point x="474.69147616718885" y="479.48073792729247"/>
      <point x="448.5168780652308" y="463.48073792729247"/>
      <point x="436.7758209034738" y="418.48073792729247" type="curve"/>
      <point x="450.07939803877105" y="400.48073792729247"/>
      <point x="448.8175008858339" y="378.0"/>
      <point x="431.0754589525123" y="310.0" type="curve" smooth="yes"/>
      <point x="428.20542275741616" y="299.0" type="line" smooth="yes"/>
      <point x="400.02688556919946" y="191.0"/>
      <point x="346.80666839862255" y="126.51926207270755"/>
      <point x="272.80666839862255" y="126.51926207270755" type="curve" smooth="yes"/>
      <point x="229.80666839862255" y="126.51926207270755"/>
      <point x="205.28582840744244" y="146.0"/>
      <point x="188.0695503231243" y="172.0" type="curve"/>
      <point x="167.24217888195295" y="142.0"/>
      <point x="152.71838457607885" y="94.0"/>
      <point x="166.3691883721628" y="62.0" type="curve" smooth="yes"/>
      <point x="181.97634264275723" y="26.0"/>
      <point x="224.0616721506069" y="-12.0"/>
    </contour>
  </outline>
</glyph>
<glyph name="q" format="1">
  <advance width="600.0"/>
  <unicode hex="0071"/>
  <outline>
    <contour>
      <point x="325.16440586001085" y="552.0" type="curve" smooth="yes"/>
      <point x="195.62886597938143" y="552.0"/>
      <point x="97.9392295170917" y="456.56592512208357"/>
      <point x="47.8296256104178" y="236.79110146500273" type="curve" smooth="yes"/>
      <point x="41.565925122083556" y="210.87628865979383" type="line" smooth="yes"/>
      <point x="29.821486706456867" y="158.8762886597938"/>
      <point x="45.200759631036355" y="66.0"/>
      <point x="132.20075963103636" y="66.0" type="curve" smooth="yes"/>
      <point x="159.20075963103636" y="66.0"/>
      <point x="185.11557243624526" y="80.43407487791644"/>
      <point x="194.5111231687466" y="106.64297341291373" type="curve"/>
      <point x="181.99186109603906" y="140.30222463374932"/>
      <point x="181.68963646228974" y="158.0851871947911"/>
      <point x="201.26370048833422" y="230.0" type="curve" smooth="yes"/>
      <point x="205.9614758545849" y="246.48073792729247" type="line" smooth="yes"/>
      <point x="233.3651654910472" y="352.9148128052089"/>
      <point x="285.0244167118828" y="413.48073792729247"/>
      <point x="359.0244167118828" y="413.48073792729247" type="curve" smooth="yes"/>
      <point x="402.0244167118828" y="413.48073792729247"/>
      <point x="428.8925664677157" y="399.48073792729247"/>
      <point x="445.8459034183397" y="373.48073792729247" type="curve"/>
      <point x="466.97775366250676" y="401.9148128052089"/>
      <point x="477.62886597938143" y="438.30222463374935"/>
      <point x="465.1096039066739" y="468.43407487791643" type="curve" smooth="yes"/>
      <point x="449.288117200217" y="505.0851871947911"/>
      <point x="395.9007053716766" y="552.0"/>
    </contour>
    <contour>
      <point x="143.32447097124253" y="-12.0" type="curve" smooth="yes"/>
      <point x="226.1459576776994" y="-12.0"/>
      <point x="350.3326098752035" y="78.21703743895822"/>
      <point x="400.1703743895822" y="177.0" type="curve" smooth="yes"/>
      <point x="424.69777536625065" y="226.0"/>
      <point x="437.4888768312534" y="296.0"/>
      <point x="428.88442756375474" y="334.0" type="curve"/>
      <point x="350.30222463374935" y="193.0851871947911"/>
      <point x="277.77482365708084" y="143.51926207270753"/>
      <point x="205.38741182854042" y="143.51926207270753" type="curve" smooth="yes"/>
      <point x="164.16223548562127" y="143.51926207270753"/>
      <point x="126.94519804666305" y="169.26370048833422"/>
      <point x="94.26370048833422" y="230.39555073250136" type="curve"/>
      <point x="60.48073792729245" y="226.39555073250136"/>
      <point x="43.13185024416712" y="218.52740097666847"/>
      <point x="41.565925122083556" y="210.87628865979383" type="curve" smooth="yes"/>
      <point x="14.162235485621267" y="100.44221378187737"/>
      <point x="64.54150841020075" y="-12.0"/>
    </contour>
    <contour>
      <point x="427.73412913727617" y="-200.0" type="curve"/>
      <point x="593.7221920781335" y="434.78296256104176" type="line" smooth="yes"/>
      <point x="603.9007053716766" y="473.78296256104176"/>
      <point x="615.7303309820944" y="504.78296256104176"/>
      <point x="634.1258817145958" y="540.7829625610418" type="curve"/>
      <point x="620.9088442756375" y="543.7829625610418"/>
      <point x="607.6918068366793" y="544.7829625610418"/>
      <point x="593.6918068366793" y="544.7829625610418" type="curve" smooth="yes"/>
      <point x="561.6918068366793" y="544.7829625610418"/>
      <point x="523.6836679327184" y="537.3488876831253"/>
      <point x="496.20293000542597" y="515.3488876831253" type="curve" smooth="yes"/>
      <point x="465.7221920781335" y="491.13185024416714"/>
      <point x="446.8540423223006" y="445.2637004883342"/>
      <point x="420.23331524688007" y="345.78296256104176" type="curve" smooth="yes"/>
      <point x="292.61041779707" y="-133.148128052089" type="line" smooth="yes"/>
      <point x="278.5170916983179" y="-193.44221378187737"/>
      <point x="312.25339120998376" y="-206.0"/>
      <point x="368.1682040151926" y="-206.0" type="curve" smooth="yes"/>
      <point x="391.1682040151926" y="-206.0"/>
      <point x="411.9511665762344" y="-204.0"/>
    </contour>
  </outline>
</glyph>
<glyph name="r" format="1">
  <advance width="600.0"/>
  <unicode hex="0072"/>
  <outline>
    <contour>
      <point x="137.08530666815906" y="540.0" type="curve"/>
      <point x="124.51884760836012" y="511.0"/>
      <point x="117.56151236228496" y="492.0"/>
      <point x="111.03870282797551" y="467.0" type="curve" smooth="yes"/>
      <point x="99.416242203206" y="421.4877423173679"/>
      <point x="107.77483613190913" y="395.48073792729247"/>
      <point x="134.77483613190913" y="395.48073792729247" type="curve" smooth="yes"/>
      <point x="173.77483613190913" y="395.48073792729247"/>
      <point x="226.77582090347383" y="418.48073792729247"/>
      <point x="297.7758209034738" y="418.48073792729247" type="curve"/>
      <point x="321.2960246257282" y="509.68022622588524"/>
      <point x="316.6944304818828" y="550.0"/>
      <point x="281.6944304818828" y="550.0" type="curve" smooth="yes"/>
      <point x="233.6944304818828" y="550.0"/>
      <point x="174.91169333776568" y="547.0"/>
    </contour>
    <contour>
      <point x="285.28287409274844" y="77.0" type="curve"/>
      <point x="375.5585580475909" y="423.0" type="line" smooth="yes"/>
      <point x="395.3878990318916" y="499.0"/>
      <point x="352.6944304818828" y="550.0"/>
      <point x="281.6944304818828" y="550.0" type="curve" smooth="yes"/>
      <point x="272.6944304818828" y="550.0"/>
      <point x="264.9116933377657" y="547.0"/>
      <point x="256.08530666815903" y="540.0" type="curve"/>
      <point x="175.7242932054669" y="232.0" type="line" smooth="yes"/>
      <point x="147.80666839862255" y="125.0"/>
      <point x="182.28287409274844" y="77.0"/>
    </contour>
    <contour>
      <point x="32.503091263325345" y="144.51926207270753" type="line"/>
      <point x="30.937616975091082" y="138.51926207270753"/>
      <point x="29.37214268685682" y="132.51926207270756"/>
      <point x="27.54575601725017" y="125.51926207270755" type="curve" smooth="yes"/>
      <point x="13.12270761994472" y="69.43244709712425"/>
      <point x="13.398767779396621" y="37.56284808832062"/>
      <point x="26.41086835452296" y="20.0" type="curve" smooth="yes"/>
      <point x="37.4971826339373" y="5.0"/>
      <point x="56.19262072707542" y="0.0"/>
      <point x="102.19262072707542" y="0.0" type="curve"/>
      <point x="438.6266956049919" y="0.0" type="line"/>
      <point x="449.459188806153" y="12.036037382064318"/>
      <point x="455.0348896205247" y="24.704846269758704"/>
      <point x="458.1540965816603" y="41.43407487791644" type="curve" smooth="yes"/>
      <point x="467.5496473141617" y="99.0"/>
      <point x="388.43999898455843" y="144.51926207270753"/>
      <point x="302.50309126332536" y="144.51926207270753" type="curve"/>
    </contour>
    <contour>
      <point x="302.8214867064569" y="171.07704829083016" type="curve"/>
      <point x="382.1866521975041" y="340.0"/>
      <point x="454.9777536625068" y="385.6592512208356"/>
      <point x="514.9777536625068" y="385.6592512208356" type="curve" smooth="yes"/>
      <point x="548.9777536625068" y="385.6592512208356"/>
      <point x="569.4118285404232" y="376.6592512208356"/>
      <point x="594.5822029300055" y="356.6592512208356" type="curve"/>
      <point x="598.5822029300055" y="356.6592512208356" type="line"/>
      <point x="614.194791101465" y="383.6592512208356"/>
      <point x="625.241454150841" y="409.52740097666845"/>
      <point x="634.6370048833423" y="445.6592512208356" type="curve"/>
      <point x="653.4281063483451" y="522.8681497558329"/>
      <point x="641.6066196418882" y="560.0"/>
      <point x="585.5132935431362" y="560.0" type="curve" smooth="yes"/>
      <point x="583.5132935431362" y="560.0" type="line" smooth="yes"/>
      <point x="507.51329354313623" y="560.0"/>
      <point x="386.8540423223006" y="477.3488876831253"/>
      <point x="316.05480195333695" y="310.48073792729247" type="curve" smooth="yes"/>
      <point x="304.7911014650027" y="283.9148128052089"/>
      <point x="296.48073792729247" y="255.1318502441671"/>
    </contour>
  </outline>
</glyph>
<glyph name="s" format="1">
  <advance width="600.0"/>
  <unicode hex="0073"/>
  <outline>
    <contour>
      <point x="464.21625524462763" y="552.0" type="curve" smooth="yes"/>
      <point x="452.2577319587629" y="552.0" type="line" smooth="yes"/>
      <point x="300.2110689093869" y="552.0"/>
      <point x="152.5132935431362" y="498.39555073250136"/>
      <point x="122.76071622354856" y="380.96147585458493" type="curve" smooth="yes"/>
      <point x="111.01627780792187" y="336.96147585458493"/>
      <point x="167.46633513878854" y="300.0"/>
      <point x="263.4663351387885" y="300.0" type="curve"/>
      <point x="258.35584803101256" y="329.6395945484236"/>
      <point x="261.0684031590743" y="348.3"/>
      <point x="266.4692894534826" y="369.0" type="curve" smooth="yes"/>
      <point x="272.33981803436103" y="390.645415084102"/>
      <point x="316.67552902875747" y="407.48073792729247"/>
      <point x="417.9057847083776" y="407.48073792729247" type="curve" smooth="yes"/>
      <point x="467.88442756375474" y="407.48073792729247"/>
      <point x="519.4118285404232" y="396.48073792729247"/>
      <point x="560.0784132672063" y="377.48073792729247" type="curve"/>
      <point x="564.0784132672063" y="377.48073792729247" type="line"/>
      <point x="570.4702742250472" y="390.48073792729247"/>
      <point x="575.8621351828882" y="403.48073792729247"/>
      <point x="579.253996140729" y="416.48073792729247" type="curve"/>
      <point x="593.4891987786559" y="471.7868158952334"/>
      <point x="589.5874229707997" y="505.548846516831"/>
      <point x="572.2152704730628" y="529.0" type="curve" smooth="yes"/>
      <point x="562.7830820344097" y="541.3022246337493"/>
      <point x="520.2162552446276" y="552.0"/>
    </contour>
    <contour>
      <point x="421.13998914812805" y="311.0851871947911" type="curve" smooth="yes"/>
      <point x="334.1866521975041" y="330.30222463374935" type="line" smooth="yes"/>
      <point x="275.6673901247965" y="343.51926207270753"/>
      <point x="261.1205856353488" y="349.25963103635377"/>
      <point x="266.4692894534826" y="369.0" type="curve" smooth="yes"/>
      <point x="270.6438875554406" y="385.0"/>
      <point x="279.9057847083776" y="409.0"/>
      <point x="301.99406853092137" y="440.0" type="curve"/>
      <point x="199.12403233582518" y="429.0"/>
      <point x="131.37330439500815" y="413.96147585458493"/>
      <point x="122.76071622354856" y="380.96147585458493" type="curve"/>
      <point x="102.40368963646229" y="303.093326098752"/>
      <point x="132.39479475042387" y="259.25691964405235"/>
      <point x="240.24611796821168" y="232.48073792729247" type="curve" smooth="yes"/>
      <point x="349.20148367115746" y="205.48073792729247" type="line" smooth="yes"/>
      <point x="388.1195334806528" y="195.7355292143273"/>
      <point x="400.4040295248771" y="180.30767912728103"/>
      <point x="395.4604265094005" y="162.0" type="curve" smooth="yes"/>
      <point x="389.1985293564635" y="138.65111231687467"/>
      <point x="377.59569182926106" y="122.38594277929843"/>
      <point x="359.8493331525474" y="107.51926207270755" type="curve"/>
      <point x="477.8493331525474" y="107.51926207270755"/>
      <point x="526.5111231687466" y="121.82148670645687"/>
      <point x="535.9066739012479" y="156.953336950624" type="curve" smooth="yes"/>
      <point x="553.914812805209" y="228.60444926749864"/>
      <point x="517.9614758545849" y="289.6511123168747"/>
    </contour>
    <contour>
      <point x="279.3721426868568" y="132.51926207270753" type="curve" smooth="yes"/>
      <point x="150.37214268685682" y="132.51926207270753"/>
      <point x="117.12371134020619" y="151.21703743895822"/>
      <point x="55.085187194791104" y="192.21703743895822" type="curve"/>
      <point x="51.0851871947911" y="192.21703743895822" type="line"/>
      <point x="44.17037438958221" y="177.21703743895824"/>
      <point x="38.25556158437331" y="161.21703743895824"/>
      <point x="31.991861096039074" y="138.21703743895824" type="curve" smooth="yes"/>
      <point x="15.549647314161689" y="75.34888768312534"/>
      <point x="28.285946825827445" y="48.69777536625068"/>
      <point x="39.371134020618555" y="33.69777536625068" type="curve" smooth="yes"/>
      <point x="46.23928377645143" y="23.697775366250678"/>
      <point x="108.0616721506069" y="-12.0"/>
      <point x="211.0616721506069" y="-12.0" type="curve" smooth="yes"/>
      <point x="230.0616721506069" y="-12.0" type="line" smooth="yes"/>
      <point x="413.0616721506069" y="-12.0"/>
      <point x="503.805208898535" y="34.953336950623985"/>
      <point x="535.9066739012479" y="156.953336950624" type="curve" smooth="yes"/>
      <point x="550.7829625610418" y="213.953336950624"/>
      <point x="517.0715198662537" y="218.0"/>
      <point x="468.20246844272214" y="230.0" type="curve"/>
      <point x="467.768589001981" y="207.40943491921655"/>
      <point x="464.0053069993458" y="195.88944655453065"/>
      <point x="460.9395865182205" y="184.51926207270753" type="curve" smooth="yes"/>
      <point x="453.6340398397939" y="156.5771387230964"/>
      <point x="384.3721426868568" y="132.51926207270753"/>
    </contour>
  </outline>
</glyph>
<glyph name="u" format="1">
  <advance width="600.0"/>
  <unicode hex="0075"/>
  <outline>
    <contour>
      <point x="464.69231862569484" y="541.7829625610418" type="curve"/>
      <point x="348.84722129635946" y="115.58003255561584" type="line" smooth="yes"/>
      <point x="339.19346318558155" y="69.24742268041237"/>
      <point x="344.1892394732057" y="47.604449267498644"/>
      <point x="358.0090651573239" y="30.13185024416712" type="curve" smooth="yes"/>
      <point x="375.7471680043868" y="6.13185024416712"/>
      <point x="408.27268254179205" y="-4.21703743895822"/>
      <point x="453.0171209574188" y="-4.21703743895822" type="curve" smooth="yes"/>
      <point x="466.8000835184606" y="-4.21703743895822"/>
      <point x="480.58707935261805" y="-3.0091942313765565"/>
      <point x="495.1926207270754" y="2.220446049250313e-16" type="curve"/>
      <point x="495.60280532533307" y="35.93064452459191"/>
      <point x="499.67375027902466" y="66.86281595839434"/>
      <point x="509.8493331525474" y="105.78296256104178" type="curve" smooth="yes"/>
      <point x="608.9960380740507" y="485.78296256104176" type="line" smooth="yes"/>
      <point x="623.0853066681591" y="539.7829625610418"/>
      <point x="580.172605719138" y="547.7829625610418"/>
      <point x="523.172605719138" y="547.7829625610418" type="curve" smooth="yes"/>
      <point x="500.17260571913806" y="547.7829625610418"/>
      <point x="480.7359681511844" y="545.7829625610418"/>
    </contour>
    <contour>
      <point x="145.28594682582747" y="-10.21703743895822" type="curve" smooth="yes"/>
      <point x="234.37113402061857" y="-10.21703743895822"/>
      <point x="340.5963103635377" y="91.69777536625068"/>
      <point x="397.9148128052089" y="209.26370048833422" type="curve" smooth="yes"/>
      <point x="438.8377645143787" y="294.69777536625065"/>
      <point x="454.8459034183397" y="384.2637004883343"/>
      <point x="449.7221920781335" y="441.2637004883342" type="curve"/>
      <point x="348.51926207270753" y="201.86814975583286"/>
      <point x="272.3792729245795" y="151.30222463374932"/>
      <point x="221.86001085187195" y="151.30222463374932" type="curve" smooth="yes"/>
      <point x="196.07704829083016" y="151.30222463374932"/>
      <point x="175.99186109603906" y="167.03852414541507"/>
      <point x="170.51926207270753" y="199.51112316874662" type="curve"/>
      <point x="112.51926207270753" y="199.51112316874662"/>
      <point x="66.03852414541507" y="173.20889853499727"/>
      <point x="57.425935973955504" y="142.12371134020617" type="curve" smooth="yes"/>
      <point x="41.76668475311993" y="83.13185024416711"/>
      <point x="77.8903960933261" y="-10.21703743895822"/>
    </contour>
    <contour>
      <point x="142.90884427563753" y="541.7829625610418" type="curve"/>
      <point x="143.24959305480195" y="482.78296256104176"/>
      <point x="138.8540423223006" y="446.78296256104176"/>
      <point x="122.41182854042323" y="382.78296256104176" type="curve" smooth="yes"/>
      <point x="57.425935973955504" y="142.12371134020617" type="line"/>
      <point x="51.945198046663045" y="119.03852414541508"/>
      <point x="73.89853499728703" y="109.30222463374932"/>
      <point x="170.6814975583288" y="112.30222463374932" type="curve"/>
      <point x="226.34888768312533" y="213.38741182854042"/>
      <point x="272.7525773195876" y="320.86814975583286"/>
      <point x="298.59034183396636" y="403.86814975583286" type="curve" smooth="yes"/>
      <point x="301.7221920781335" y="412.7829625610418" type="line" smooth="yes"/>
      <point x="334.60661964188824" y="519.0"/>
      <point x="292.95550732501357" y="547.7829625610418"/>
      <point x="202.4747693977211" y="547.7829625610418" type="curve" smooth="yes"/>
      <point x="181.4747693977211" y="547.7829625610418"/>
      <point x="163.69180683667935" y="545.7829625610418"/>
    </contour>
  </outline>
</glyph>
<glyph name="v" format="1">
  <advance width="600.0"/>
  <unicode hex="0076"/>
  <outline>
    <contour>
      <point x="506.21625524462763" y="552.0" type="curve" smooth="yes"/>
      <point x="482.21625524462763" y="552.0" type="line"/>
      <point x="390.6835979946714" y="297.0"/>
      <point x="339.2441484250823" y="188.0"/>
      <point x="228.93663220352641" y="114.00000000000001" type="curve"/>
      <point x="196.19655981333412" y="92.00000000000001"/>
      <point x="199.58349691335164" y="-10.0"/>
      <point x="259.5834969133516" y="-10.0" type="curve"/>
      <point x="299.58349691335167" y="-10.0" type="line"/>
      <point x="422.7610493300037" y="75.0"/>
      <point x="541.3344017907554" y="265.0"/>
      <point x="616.9087390230717" y="478.0" type="curve"/>
      <point x="632.1279714220839" y="521.0"/>
      <point x="571.2162552446276" y="552.0"/>
    </contour>
    <contour>
      <point x="161.2577319587629" y="552.0" type="curve" smooth="yes"/>
      <point x="137.2577319587629" y="552.0" type="line"/>
      <point x="94.70591427021162" y="296.0"/>
      <point x="98.86001085187193" y="129.0"/>
      <point x="166.58817145957678" y="37.0" type="curve"/>
      <point x="197.62669560499188" y="-5.0"/>
      <point x="227.84373304395007" y="-10.0"/>
      <point x="256.84373304395007" y="-10.0" type="curve" smooth="yes"/>
      <point x="267.8437330439501" y="-10.0" type="line" smooth="yes"/>
      <point x="305.84373304395007" y="-10.0"/>
      <point x="342.4563212154097" y="23.0"/>
      <point x="370.9837221920781" y="72.0" type="curve"/>
      <point x="363.9837221920781" y="72.0"/>
      <point x="360.9837221920781" y="72.0"/>
      <point x="353.9837221920781" y="72.0" type="curve" smooth="yes"/>
      <point x="345.9837221920782" y="72.0"/>
      <point x="336.7666847531199" y="75.0"/>
      <point x="325.898534997287" y="86.0" type="curve"/>
      <point x="263.3407487791644" y="149.0"/>
      <point x="252.87628865979383" y="266.0"/>
      <point x="287.9473684210526" y="502.0" type="curve"/>
      <point x="292.77699403147045" y="530.0"/>
      <point x="226.25773195876286" y="552.0"/>
    </contour>
  </outline>
</glyph>
<glyph name="w" format="1">
  <advance width="600.0"/>
  <unicode hex="0077"/>
  <outline>
    <contour>
      <point x="125.69180683667933" y="546.5192620727075" type="curve"/>
      <point x="46.61258817145958" y="244.0"/>
      <point x="27.885455784695978" y="91.06791028018971"/>
      <point x="86.32356930354395" y="12.0" type="curve" smooth="yes"/>
      <point x="96.67079596433065" y="-2.0"/>
      <point x="114.58349691335165" y="-10.0"/>
      <point x="133.58349691335164" y="-10.0" type="curve" smooth="yes"/>
      <point x="136.58349691335164" y="-10.0" type="line" smooth="yes"/>
      <point x="149.58349691335167" y="-10.0"/>
      <point x="176.9755832881172" y="28.425935973955507"/>
      <point x="189.50298426478568" y="75.0385241454151" type="curve" smooth="yes"/>
      <point x="159.21034947603454" y="112.00668615273884"/>
      <point x="168.0851871947911" y="208.0"/>
      <point x="244.0325556158437" y="498.0" type="curve"/>
      <point x="246.38144329896906" y="507.0"/>
      <point x="245.16440586001085" y="511.0"/>
      <point x="240.5132935431362" y="520.0" type="curve" smooth="yes"/>
      <point x="229.99403147042867" y="540.0"/>
      <point x="196.2577319587629" y="550.4340748779165"/>
      <point x="160.65328269126425" y="550.4340748779165" type="curve"/>
      <point x="146.38958220293" y="550.4340748779165"/>
      <point x="136.82365708084643" y="550.4340748779165"/>
    </contour>
    <contour>
      <point x="323.8073792729246" y="425.0" type="curve" smooth="yes"/>
      <point x="308.67552902875747" y="425.0" type="line"/>
      <point x="253.0851871947911" y="212.0"/>
      <point x="194.38182197446034" y="146.93850775827946"/>
      <point x="104.15409658166033" y="55.0" type="curve"/>
      <point x="95.75854584915896" y="18.0"/>
      <point x="104.58349691335164" y="-10.0"/>
      <point x="133.58349691335164" y="-10.0" type="curve"/>
      <point x="154.58349691335164" y="-10.0" type="line"/>
      <point x="254.33260987520347" y="85.94519804666305"/>
      <point x="318.43407487791643" y="210.0"/>
      <point x="361.49701573521435" y="375.0" type="curve" smooth="yes"/>
      <point x="370.1096039066739" y="408.0"/>
      <point x="345.8073792729246" y="425.0"/>
    </contour>
    <contour>
      <point x="323.8073792729246" y="425.0" type="curve" smooth="yes"/>
      <point x="318.8073792729246" y="425.0" type="line"/>
      <point x="277.31036353771026" y="268.0"/>
      <point x="283.413822669217" y="89.0"/>
      <point x="330.2799197780545" y="8.0" type="curve" smooth="yes"/>
      <point x="337.14897120158594" y="-4.0"/>
      <point x="348.58349691335167" y="-10.0"/>
      <point x="361.58349691335167" y="-10.0" type="curve" smooth="yes"/>
      <point x="371.58349691335167" y="-10.0" type="line" smooth="yes"/>
      <point x="397.58349691335167" y="-10.0"/>
      <point x="408.2778079218665" y="11.472599023331526"/>
      <point x="421.58817145957676" y="52.34888768312534" type="curve" smooth="yes"/>
      <point x="370.20075963103636" y="100.82962561041779"/>
      <point x="333.3874118285404" y="196.0"/>
      <point x="382.71405317417253" y="385.0" type="curve" smooth="yes"/>
      <point x="388.194791101465" y="405.0"/>
      <point x="361.80737927292455" y="425.0"/>
    </contour>
    <contour>
      <point x="507.99403147042864" y="546.5192620727075" type="curve"/>
      <point x="423.43407487791643" y="216.9364325492591"/>
      <point x="397.1017541379276" y="150.02747427491187"/>
      <point x="340.20075963103636" y="82.0" type="curve"/>
      <point x="328.8903960933261" y="30.0"/>
      <point x="335.58349691335167" y="-10.0"/>
      <point x="366.58349691335167" y="-10.0" type="curve"/>
      <point x="390.5834969133516" y="-10.0" type="line"/>
      <point x="498.88412512022717" y="83.33442062108281"/>
      <point x="556.6511123168747" y="209.6746347144092"/>
      <point x="631.8155181768855" y="488.78296256104176" type="curve"/>
      <point x="635.7303309820944" y="504.3488876831253"/>
      <point x="633.1644058600109" y="513.2637004883343"/>
      <point x="628.9473684210526" y="517.4807379272925" type="curve" smooth="yes"/>
      <point x="607.8621812262616" y="541.6977753662507"/>
      <point x="569.1258817145957" y="550.4340748779165"/>
      <point x="541.38958220293" y="550.4340748779165" type="curve"/>
      <point x="530.2577319587629" y="550.4340748779165"/>
      <point x="520.6918068366793" y="550.4340748779165"/>
    </contour>
  </outline>
</glyph>
<glyph name="x" format="1">
  <advance width="600.0"/>
  <unicode hex="0078"/>
  <outline>
    <contour>
      <point x="438.32447097124253" y="-10.0" type="curve" smooth="yes"/>
      <point x="487.4633256054851" y="-10.0"/>
      <point x="510.6238768169783" y="-1.750887898289361"/>
      <point x="539.2392837764514" y="18.0" type="curve"/>
      <point x="476.67554807197877" y="88.41087275831114"/>
      <point x="420.4268335285635" y="167.1161041495985"/>
      <point x="381.9148128052089" y="258.0" type="curve" smooth="yes"/>
      <point x="373.39555073250136" y="280.0"/>
      <point x="365.6592512208356" y="302.0"/>
      <point x="357.13998914812805" y="324.0" type="curve" smooth="yes"/>
      <point x="337.2182568813775" y="379.1051375297173"/>
      <point x="324.75136868276013" y="439.08552924308935"/>
      <point x="312.5518176885513" y="498.0" type="curve" smooth="yes"/>
      <point x="303.72343576268054" y="538.0459681294259"/>
      <point x="257.5169108337855" y="550.0"/>
      <point x="193.82365708084643" y="550.0" type="curve" smooth="yes"/>
      <point x="168.82365708084643" y="550.0"/>
      <point x="142.04069451980467" y="547.0"/>
      <point x="123.25773195876289" y="542.0" type="curve"/>
      <point x="151.00333633107917" y="422.0913726547328"/>
      <point x="189.20667329004726" y="308.89184176112934"/>
      <point x="238.78296256104178" y="203.0" type="curve" smooth="yes"/>
      <point x="248.30222463374932" y="183.0"/>
      <point x="257.8214867064569" y="163.0"/>
      <point x="269.12371134020617" y="143.0" type="curve" smooth="yes"/>
      <point x="290.11029659135244" y="103.43039471896739"/>
      <point x="313.76473178408537" y="64.69101577981903"/>
      <point x="344.3792729245795" y="27.689636462289748" type="curve" smooth="yes"/>
      <point x="368.08400499676463" y="-1.0906480488584238"/>
      <point x="391.70115513600797" y="-10.0"/>
    </contour>
    <contour>
      <point x="500.7688551275095" y="552.0" type="curve" smooth="yes"/>
      <point x="475.9858925664677" y="551.2170374389582" type="line"/>
      <point x="427.5436787845903" y="462.43407487791643"/>
      <point x="372.4503526858383" y="389.43407487791643"/>
      <point x="313.7059142702116" y="320.6511123168747" type="curve" smooth="yes"/>
      <point x="293.22517634291916" y="299.86814975583286"/>
      <point x="264.13185024416714" y="290.04666304937604"/>
      <point x="243.21703743895822" y="268.48073792729247" type="curve" smooth="yes"/>
      <point x="182.2555615843733" y="208.9148128052089"/>
      <point x="113.51112316874662" y="150.9148128052089"/>
      <point x="27.681497558328815" y="92.56592512208357" type="curve" smooth="yes"/>
      <point x="-1.2333152468800819" y="73.0"/>
      <point x="-5.016277807921867" y="64.0"/>
      <point x="-8.148128052088978" y="49.00000000000001" type="curve" smooth="yes"/>
      <point x="-14.428226294615342" y="13.928259825409476"/>
      <point x="48.054057464447496" y="-10.0"/>
      <point x="134.851871947911" y="-10.0" type="curve" smooth="yes"/>
      <point x="152.5496473141617" y="-10.0" type="line"/>
      <point x="218.16223548562127" y="44.34888768312534"/>
      <point x="274.12371134020617" y="94.0"/>
      <point x="325.51926207270753" y="143.9148128052089" type="curve" smooth="yes"/>
      <point x="345.89670901006076" y="163.93167697880887"/>
      <point x="368.3585530143163" y="175.3709523287812"/>
      <point x="387.6125881714596" y="194.43407487791643" type="curve" smooth="yes"/>
      <point x="484.4036896364623" y="292.21703743895824"/>
      <point x="552.0629408572979" y="374.2170374389582"/>
      <point x="606.5051546391753" y="461.0" type="curve" smooth="yes"/>
      <point x="613.8540423223006" y="473.0"/>
      <point x="617.4199674443842" y="483.0"/>
      <point x="618.9858925664677" y="492.0" type="curve" smooth="yes"/>
      <point x="627.6696962456451" y="535.2783878938059"/>
      <point x="574.4058072907585" y="554.3638177501219"/>
    </contour>
  </outline>
</glyph>
<glyph name="y" format="1">
  <advance width="600.0"/>
  <unicode hex="0079"/>
  <outline>
    <contour>
      <point x="537.172605719138" y="548.0" type="curve" smooth="yes"/>
      <point x="520.172605719138" y="548.0"/>
      <point x="489.94736842105266" y="546.0"/>
      <point x="476.3814432989691" y="540.0" type="curve"/>
      <point x="345.94519804666305" y="158.0"/>
      <point x="252.49484536082474" y="26.0"/>
      <point x="163.70374389582202" y="-44.0" type="curve" smooth="yes"/>
      <point x="110.74226804123711" y="-86.0"/>
      <point x="55.827455236028214" y="-101.0"/>
      <point x="7.827455236028214" y="-101.0" type="curve" smooth="yes"/>
      <point x="-17.1725447639718" y="-101.0" type="line"/>
      <point x="-17.955507325013585" y="-105.0" type="line" smooth="yes"/>
      <point x="-39.87845903418341" y="-188.0"/>
      <point x="-13.035474616018845" y="-250.0"/>
      <point x="40.964525383981155" y="-250.0" type="curve" smooth="yes"/>
      <point x="42.96452538398114" y="-250.0" type="line" smooth="yes"/>
      <point x="106.96452538398114" y="-250.0"/>
      <point x="174.53098444378008" y="-221.0"/>
      <point x="242.6202530378884" y="-167.0" type="curve" smooth="yes"/>
      <point x="376.2769654633604" y="-61.0"/>
      <point x="528.678674136848" y="182.0"/>
      <point x="630.2569504554231" y="487.0" type="curve" smooth="yes"/>
      <point x="643.6934457103181" y="527.0"/>
      <point x="604.172605719138" y="548.0"/>
    </contour>
    <contour>
      <point x="178.91169333776566" y="547.0" type="curve" smooth="yes"/>
      <point x="159.91169333776568" y="547.0"/>
      <point x="142.38986857502093" y="545.0"/>
      <point x="124.08530666815903" y="540.0" type="curve"/>
      <point x="72.76892750252108" y="259.0"/>
      <point x="93.32947793293198" y="150.0"/>
      <point x="145.8046988554932" y="79.0" type="curve" smooth="yes"/>
      <point x="178.32455407510864" y="35.0"/>
      <point x="223.54150841020078" y="15.48073792729246"/>
      <point x="280.5415084102008" y="15.48073792729246" type="curve" smooth="yes"/>
      <point x="287.5415084102008" y="15.48073792729246" type="line" smooth="yes"/>
      <point x="319.5415084102008" y="15.48073792729246"/>
      <point x="333.0607704829083" y="33.0"/>
      <point x="350.28594682582747" y="98.0" type="curve"/>
      <point x="330.41779706999455" y="110.0" type="line"/>
      <point x="310.33260987520345" y="125.0"/>
      <point x="293.24742268041234" y="141.0"/>
      <point x="277.7281606077048" y="162.0" type="curve" smooth="yes"/>
      <point x="234.38741182854042" y="221.0"/>
      <point x="242.57406402604448" y="329.0"/>
      <point x="274.8540423223006" y="491.0" type="curve" smooth="yes"/>
      <point x="281.24959305480195" y="528.0"/>
      <point x="257.91169333776566" y="547.0"/>
    </contour>
  </outline>
</glyph>
<glyph name="z" format="1">
  <advance width="600.0"/>
  <unicode hex="007A"/>
  <outline>
    <contour>
      <point x="141.08530666815903" y="540.0" type="line"/>
      <point x="133.95435809169052" y="528.0"/>
      <point x="129.5624971338496" y="515.0"/>
      <point x="125.64881141326396" y="500.0" type="curve" smooth="yes"/>
      <point x="114.9514037769965" y="459.0"/>
      <point x="119.64585709856993" y="429.48073792729247"/>
      <point x="132.21034661523953" y="412.48073792729247" type="curve" smooth="yes"/>
      <point x="141.079398038771" y="400.48073792729247"/>
      <point x="148.77483613190913" y="395.48073792729247"/>
      <point x="170.77483613190913" y="395.48073792729247" type="curve" smooth="yes"/>
      <point x="248.77483613190913" y="395.48073792729247" type="line" smooth="yes"/>
      <point x="345.7748361319091" y="395.48073792729247"/>
      <point x="505.5575732760263" y="398.48073792729247"/>
      <point x="603.2103466152396" y="412.48073792729247" type="curve"/>
      <point x="605.2976456662186" y="420.48073792729247" type="line" smooth="yes"/>
      <point x="616.2559656838583" y="462.48073792729247"/>
      <point x="603.3442495064021" y="495.0"/>
      <point x="582.6497961848287" y="523.0" type="curve" smooth="yes"/>
      <point x="573.0416571426696" y="536.0"/>
      <point x="562.085306668159" y="540.0"/>
      <point x="538.085306668159" y="540.0" type="curve" smooth="yes"/>
    </contour>
    <contour>
      <point x="469.2799782962561" y="467.0" type="curve"/>
      <point x="359.01959689154313" y="338.89890816641025"/>
      <point x="205.08171365247213" y="223.58895058329563"/>
      <point x="29.89396744960157" y="134.51926207270753" type="curve"/>
      <point x="19.19655981333411" y="93.51926207270755"/>
      <point x="101.4259359739555" y="75.60444926749864"/>
      <point x="165.60444926749864" y="100.73629951166578" type="curve" smooth="yes"/>
      <point x="332.29715140889516" y="169.07115038596888"/>
      <point x="589.6429027838759" y="360.42472826562584"/>
      <point x="603.2103466152396" y="412.48073792729247" type="curve"/>
      <point x="614.1686666328794" y="454.48073792729247"/>
      <point x="563.7221920781335" y="467.0"/>
    </contour>
    <contour>
      <point x="488.1926207270754" y="0.0" type="line"/>
      <point x="496.6281312104058" y="17.0"/>
      <point x="505.6291159819705" y="39.99999999999999"/>
      <point x="511.6301007535352" y="63.00000000000001" type="curve"/>
      <point x="528.8503179241121" y="129.0"/>
      <point x="515.5030912633254" y="144.51926207270753"/>
      <point x="457.5030912633253" y="144.51926207270753" type="curve" smooth="yes"/>
      <point x="382.50309126332536" y="144.51926207270753" type="line" smooth="yes"/>
      <point x="269.50309126332536" y="144.51926207270753"/>
      <point x="133.45944173783585" y="140.51926207270753"/>
      <point x="29.89396744960157" y="134.51926207270753" type="curve"/>
      <point x="25.980281729015914" y="119.51926207270756" type="line" smooth="yes"/>
      <point x="13.456487423141809" y="71.51926207270753"/>
      <point x="16.06364169373623" y="34.0"/>
      <point x="33.06265692217156" y="11.0" type="curve" smooth="yes"/>
      <point x="38.97535787119254" y="3.0"/>
      <point x="47.19262072707542" y="0.0"/>
      <point x="60.19262072707542" y="0.0" type="curve" smooth="yes"/>
    </contour>
  </outline>
</glyph>
<glyph name="bar" format="1">
  <advance width="600.0"/>
  <unicode hex="007C"/>
  <outline>
    <contour>
      <point x="211.69777536625068" y="759.5659251220835" type="curve"/>
      <point x="218.34888768312533" y="722.0"/>
      <point x="220.0" y="685.0"/>
      <point x="220.0" y="645.0" type="curve" smooth="yes"/>
      <point x="220.0" y="-127.53553988062941" type="line" smooth="yes"/>
      <point x="220.0" y="-151.39555073250136"/>
      <point x="242.99186109603906" y="-160.0851871947911"/>
      <point x="278.0141074335323" y="-160.0851871947911" type="curve" smooth="yes"/>
      <point x="313.02224633749324" y="-160.0851871947911"/>
      <point x="346.94519804666305" y="-159.8681497558329"/>
      <point x="380.0" y="-159.43407487791643" type="curve"/>
      <point x="380.0" y="701.2637004883343" type="line" smooth="yes"/>
      <point x="380.0" y="723.914812805209"/>
      <point x="377.56592512208357" y="740.6125881714596"/>
      <point x="365.78296256104176" y="752.3955507325013" type="curve" smooth="yes"/>
      <point x="358.39555073250136" y="759.7829625610418"/>
      <point x="347.4888768312534" y="763.4340748779165"/>
      <point x="325.67552902875747" y="763.4340748779165" type="curve" smooth="yes"/>
      <point x="286.58220293000545" y="763.4340748779165"/>
      <point x="250.35702658708627" y="762.2170374389582"/>
    </contour>
  </outline>
</glyph>
<glyph name="asciitilde" format="1">
  <advance width="600.0"/>
  <unicode hex="007E"/>
  <outline>
    <contour>
      <point x="430.7444384156267" y="321.86814975583286" type="curve" smooth="yes"/>
      <point x="337.48073792729247" y="321.86814975583286"/>
      <point x="268.4422137818774" y="427.2940857297884"/>
      <point x="170.26370048833422" y="427.2940857297884" type="curve" smooth="yes"/>
      <point x="117.26370048833424" y="427.2940857297884"/>
      <point x="80.0" y="405.5577862181226"/>
      <point x="64.56592512208356" y="374.86814975583286" type="curve" smooth="yes"/>
      <point x="58.34888768312534" y="362.3488876831253"/>
      <point x="54.8296256104178" y="348.9229517091698"/>
      <point x="54.8296256104178" y="321.49701573521435" type="curve" smooth="yes"/>
      <point x="54.8296256104178" y="294.101465002713"/>
      <point x="56.8296256104178" y="258.2718393922952"/>
      <point x="61.48073792729246" y="225.39555073250136" type="curve"/>
      <point x="71.74443841562669" y="225.39555073250136" type="line"/>
      <point x="98.86814975583289" y="258.21703743895824"/>
      <point x="133.56592512208357" y="275.0"/>
      <point x="169.2555615843733" y="275.0" type="curve" smooth="yes"/>
      <point x="262.51926207270753" y="275.0"/>
      <point x="331.5577862181226" y="169.57406402604448"/>
      <point x="429.7362995116658" y="169.57406402604448" type="curve" smooth="yes"/>
      <point x="482.7362995116658" y="169.57406402604448"/>
      <point x="520.0" y="191.31036353771026"/>
      <point x="535.4340748779165" y="222.0" type="curve" smooth="yes"/>
      <point x="541.6511123168747" y="234.51926207270753"/>
      <point x="545.1703743895822" y="247.94519804666305"/>
      <point x="545.1703743895822" y="275.37113402061857" type="curve" smooth="yes"/>
      <point x="545.1703743895822" y="302.76668475311993"/>
      <point x="543.1703743895822" y="338.5963103635377"/>
      <point x="538.5192620727075" y="371.47259902333155" type="curve"/>
      <point x="528.2555615843733" y="371.47259902333155" type="line"/>
      <point x="501.13185024416714" y="338.6511123168747"/>
      <point x="466.43407487791643" y="321.86814975583286"/>
    </contour>
  </outline>
</glyph>
<glyph name="cent" format="1">
  <advance width="600"/>
  <unicode hex="00A2"/>
  <outline>
    <contour>
      <point x="377" y="373.0" type="line"/>
      <point x="449.0" y="674.0" type="line" smooth="yes"/>
      <point x="466" y="745"/>
      <point x="436" y="791.0"/>
      <point x="361.0" y="791.0" type="curve" smooth="yes"/>
      <point x="346" y="791.0"/>
      <point x="320" y="787.0"/>
      <point x="303" y="781.0" type="curve"/>
      <point x="314.0" y="752.0"/>
      <point x="320.0" y="724"/>
      <point x="320.0" y="681.0" type="curve"/>
      <point x="320.0" y="422.0" type="line" smooth="yes"/>
      <point x="320.0" y="391.0"/>
      <point x="349.0" y="373.0"/>
      <point x="373.0" y="373.0" type="curve" smooth="yes"/>
    </contour>
    <contour>
      <point x="321.0" y="321.0" type="line"/>
      <point x="249.0" y="20.0" type="line" smooth="yes"/>
      <point x="232.0" y="-51.0"/>
      <point x="262.0" y="-97.0"/>
      <point x="337.0" y="-97.0" type="curve" smooth="yes"/>
      <point x="352.0" y="-97.0"/>
      <point x="378.0" y="-93.0"/>
      <point x="395.0" y="-87.0" type="curve"/>
      <point x="384.0" y="-58.0"/>
      <point x="378.0" y="-30.0"/>
      <point x="378.0" y="13.0" type="curve"/>
      <point x="378.0" y="272.0" type="line" smooth="yes"/>
      <point x="378.0" y="303.0"/>
      <point x="349.0" y="321.0"/>
      <point x="325.0" y="321.0" type="curve" smooth="yes"/>
    </contour>
    <component base="c" yOffset="80"/>
  </outline>
</glyph>
<glyph name="sterling" format="1">
  <advance width="600"/>
  <unicode hex="00A3"/>
  <outline>
    <contour>
      <point x="343" y="570.0" type="curve" smooth="yes"/>
      <point x="425.0" y="570.0"/>
      <point x="483.73698886011107" y="560.3918728247204"/>
      <point x="538" y="508" type="curve"/>
      <point x="542" y="508" type="line"/>
      <point x="548.0" y="530.0"/>
      <point x="550.0" y="548.0"/>
      <point x="550" y="576" type="curve" smooth="yes"/>
      <point x="550.0" y="632.7008547008547"/>
      <point x="541.0" y="657.0"/>
      <point x="515" y="683" type="curve" smooth="yes"/>
      <point x="491.0" y="707.0"/>
      <point x="430.0" y="720.0"/>
      <point x="342" y="720.0" type="curve" smooth="yes"/>
      <point x="172.0" y="720.0"/>
      <point x="82.0" y="640.0"/>
      <point x="82" y="541" type="curve" smooth="yes"/>
      <point x="82" y="526" type="line" smooth="yes"/>
      <point x="82" y="494.8181818181818"/>
      <point x="128.0" y="482.0"/>
      <point x="217.0" y="477.0" type="curve"/>
      <point x="217.0" y="537.0"/>
      <point x="256.6290322580645" y="570.0"/>
    </contour>
    <contour>
      <point x="82" y="526" type="curve" smooth="yes"/>
      <point x="82.0" y="413.0"/>
      <point x="169.0" y="323.0"/>
      <point x="169" y="209" type="curve" smooth="yes"/>
      <point x="169.0" y="166.0"/>
      <point x="129.0" y="133.0"/>
      <point x="58" y="133.0" type="curve" smooth="yes"/>
      <point x="56.0" y="133.0"/>
      <point x="54.0" y="133.0"/>
      <point x="52" y="133" type="curve"/>
      <point x="48" y="133" type="line"/>
      <point x="44.0" y="113"/>
      <point x="42.0" y="98"/>
      <point x="42" y="75" type="curve" smooth="yes"/>
      <point x="42.0" y="13.0"/>
      <point x="59" y="-20"/>
      <point x="102" y="-20" type="curve" smooth="yes"/>
      <point x="110" y="-20" type="line" smooth="yes"/>
      <point x="211.0" y="-20"/>
      <point x="306.0" y="53.0"/>
      <point x="306.0" y="178" type="curve" smooth="yes"/>
      <point x="306.0" y="287.0"/>
      <point x="240.0" y="390.0"/>
      <point x="240" y="499" type="curve" smooth="yes"/>
      <point x="240.0" y="540.0"/>
      <point x="249.0" y="575.0"/>
      <point x="281" y="618" type="curve"/>
      <point x="155.0" y="618.0"/>
      <point x="82.0" y="584.0"/>
    </contour>
    <contour>
      <point x="204" y="92" type="curve"/>
      <point x="298.0" y="9.0"/>
      <point x="370.0" y="-20.0"/>
      <point x="474" y="-20.0" type="curve" smooth="yes"/>
      <point x="479" y="-20" type="line" smooth="yes"/>
      <point x="540" y="-20"/>
      <point x="562" y="13"/>
      <point x="562" y="96" type="curve"/>
      <point x="562.0" y="125"/>
      <point x="559.0" y="151"/>
      <point x="555" y="171" type="curve"/>
      <point x="551" y="171" type="line"/>
      <point x="521.0" y="151.0"/>
      <point x="491.0" y="141.0"/>
      <point x="441" y="141" type="curve" smooth="yes"/>
      <point x="371.0" y="141.0"/>
      <point x="317.0" y="148.0"/>
      <point x="222" y="188" type="curve"/>
      <point x="188.0" y="148.0"/>
      <point x="185.0" y="109.0"/>
    </contour>
    <contour>
      <point x="50" y="400" type="line"/>
      <point x="50.0" y="394"/>
      <point x="50.0" y="388"/>
      <point x="50" y="381" type="curve" smooth="yes"/>
      <point x="50" y="322"/>
      <point x="58" y="288"/>
      <point x="76" y="270" type="curve" smooth="yes"/>
      <point x="91" y="255"/>
      <point x="111.0" y="250.0"/>
      <point x="157" y="250" type="curve" smooth="yes"/>
      <point x="465" y="250" type="line"/>
      <point x="469.0" y="271"/>
      <point x="472.0" y="294"/>
      <point x="472.0" y="313" type="curve" smooth="yes"/>
      <point x="472.0" y="379.0"/>
      <point x="455.0" y="400.0"/>
      <point x="399" y="400" type="curve" smooth="yes"/>
    </contour>
  </outline>
</glyph>
<glyph name="currency" format="1">
  <advance width="600"/>
  <unicode hex="00A4"/>
  <outline>
    <contour>
      <point x="269" y="428" type="curve"/>
      <point x="248" y="445"/>
      <point x="227.0" y="466.0"/>
      <point x="209" y="488" type="curve" smooth="yes"/>
      <point x="193.0" y="508.0"/>
      <point x="177.0" y="518.0"/>
      <point x="161.0" y="518.0" type="curve" smooth="yes"/>
      <point x="144" y="518"/>
      <point x="126.0" y="509.0"/>
      <point x="105" y="489" type="curve" smooth="yes"/>
      <point x="92.0" y="475.0"/>
      <point x="78.0" y="457.0"/>
      <point x="66" y="439" type="curve"/>
      <point x="75" y="428"/>
      <point x="87.0" y="417.0"/>
      <point x="97" y="408" type="curve" smooth="yes"/>
      <point x="142.0" y="367.0"/>
      <point x="207.0" y="366.0"/>
      <point x="256" y="415" type="curve" smooth="yes"/>
      <point x="261.0" y="420.0"/>
      <point x="265.0" y="424.0"/>
    </contour>
    <contour>
      <point x="329" y="427" type="curve"/>
      <point x="333" y="423"/>
      <point x="337" y="419"/>
      <point x="342" y="414" type="curve" smooth="yes"/>
      <point x="392.0" y="364.0"/>
      <point x="447.0" y="357.0"/>
      <point x="499" y="402" type="curve" smooth="yes"/>
      <point x="511.0" y="413.0"/>
      <point x="522" y="426"/>
      <point x="532" y="438" type="curve"/>
      <point x="520" y="456"/>
      <point x="507.0" y="474.0"/>
      <point x="493" y="488" type="curve" smooth="yes"/>
      <point x="472.0" y="509.0"/>
      <point x="454" y="517"/>
      <point x="437" y="517.0" type="curve" smooth="yes"/>
      <point x="421" y="517"/>
      <point x="405.0" y="507.0"/>
      <point x="389" y="487" type="curve" smooth="yes"/>
      <point x="371.0" y="465.0"/>
      <point x="352" y="444"/>
    </contour>
    <contour>
      <point x="329.0" y="168.0" type="curve"/>
      <point x="350.0" y="151.0"/>
      <point x="371.0" y="130.0"/>
      <point x="389.0" y="108.0" type="curve" smooth="yes"/>
      <point x="405.0" y="88.0"/>
      <point x="421.0" y="78.0"/>
      <point x="437.0" y="78.0" type="curve" smooth="yes"/>
      <point x="454.0" y="78.0"/>
      <point x="472.0" y="87.0"/>
      <point x="493.0" y="107.0" type="curve" smooth="yes"/>
      <point x="506.0" y="121.0"/>
      <point x="520.0" y="139.0"/>
      <point x="532.0" y="157.0" type="curve"/>
      <point x="523.0" y="168.0"/>
      <point x="511.0" y="179.0"/>
      <point x="501.0" y="188.0" type="curve" smooth="yes"/>
      <point x="456.0" y="229.0"/>
      <point x="391.0" y="230.0"/>
      <point x="342.0" y="181.0" type="curve" smooth="yes"/>
      <point x="337.0" y="176.0"/>
      <point x="333.0" y="172.0"/>
    </contour>
    <contour>
      <point x="269.0" y="169.0" type="curve"/>
      <point x="265.0" y="173.0"/>
      <point x="261.0" y="177.0"/>
      <point x="256.0" y="182.0" type="curve" smooth="yes"/>
      <point x="206.0" y="232.0"/>
      <point x="151.0" y="239.0"/>
      <point x="99.0" y="194.0" type="curve" smooth="yes"/>
      <point x="87.0" y="183.0"/>
      <point x="76.0" y="170.0"/>
      <point x="66.0" y="158.0" type="curve"/>
      <point x="78.0" y="140.0"/>
      <point x="91.0" y="122.0"/>
      <point x="105.0" y="108.0" type="curve" smooth="yes"/>
      <point x="126.0" y="87.0"/>
      <point x="144.0" y="79.0"/>
      <point x="161.0" y="79.0" type="curve" smooth="yes"/>
      <point x="177.0" y="79.0"/>
      <point x="193.0" y="89.0"/>
      <point x="209.0" y="109.0" type="curve" smooth="yes"/>
      <point x="227.0" y="131.0"/>
      <point x="246.0" y="152.0"/>
    </contour>
    <component base="degree" yOffset="-230"/>
  </outline>
</glyph>
<glyph name="yen" format="1">
  <advance width="600"/>
  <unicode hex="00A5"/>
  <outline>
    <contour>
      <point x="5" y="430" type="line"/>
      <point x="5.0" y="424.0"/>
      <point x="5.0" y="418.0"/>
      <point x="5" y="411" type="curve" smooth="yes"/>
      <point x="5.0" y="363"/>
      <point x="15" y="336"/>
      <point x="31" y="320" type="curve" smooth="yes"/>
      <point x="46" y="305"/>
      <point x="66" y="300"/>
      <point x="112" y="300" type="curve"/>
      <point x="195" y="300" type="line"/>
      <point x="199.0" y="321.0"/>
      <point x="202.0" y="344.0"/>
      <point x="202.0" y="363" type="curve" smooth="yes"/>
      <point x="202.0" y="413.0"/>
      <point x="185.0" y="430.0"/>
      <point x="129" y="430" type="curve"/>
    </contour>
    <contour>
      <point x="363" y="430" type="line"/>
      <point x="357.0" y="409.0"/>
      <point x="353.0" y="393.0"/>
      <point x="353.0" y="368" type="curve" smooth="yes"/>
      <point x="353.0" y="329.2307692307692"/>
      <point x="384.45454545454544" y="300.0"/>
      <point x="415" y="300" type="curve"/>
      <point x="588" y="300" type="line"/>
      <point x="592.0" y="321.0"/>
      <point x="595.0" y="344.0"/>
      <point x="595.0" y="363" type="curve" smooth="yes"/>
      <point x="595.0" y="413.0"/>
      <point x="578.0" y="430.0"/>
      <point x="522" y="430" type="curve"/>
    </contour>
    <contour>
      <point x="582.0" y="95.0" type="line"/>
      <point x="584.0" y="104.0"/>
      <point x="585.0" y="116.0"/>
      <point x="585.0" y="127.0" type="curve" smooth="yes"/>
      <point x="585.0" y="166.0"/>
      <point x="575.0" y="189.0"/>
      <point x="559.0" y="205.0" type="curve" smooth="yes"/>
      <point x="544.0" y="220.0"/>
      <point x="524.0" y="225.0"/>
      <point x="478.0" y="225.0" type="curve"/>
      <point x="22.0" y="225.0" type="line"/>
      <point x="18.0" y="204.0"/>
      <point x="15.0" y="181.0"/>
      <point x="15.0" y="162.0" type="curve" smooth="yes"/>
      <point x="15.0" y="111.0"/>
      <point x="32.0" y="95.0"/>
      <point x="88.0" y="95.0" type="curve"/>
    </contour>
    <component base="Y"/>
  </outline>
</glyph>
<glyph name="copyright" format="1">
  <advance width="600"/>
  <unicode hex="00A9"/>
  <outline>
    <contour>
      <point x="300" y="715" type="curve" smooth="yes"/>
      <point x="118.0" y="715.0"/>
      <point x="13" y="599.0"/>
      <point x="13" y="369" type="curve" smooth="yes"/>
      <point x="13" y="341" type="line" smooth="yes"/>
      <point x="13" y="101.0"/>
      <point x="115.0" y="-15.0"/>
      <point x="300" y="-15" type="curve" smooth="yes"/>
      <point x="335.0" y="-15.0"/>
      <point x="346.0" y="8.0"/>
      <point x="346" y="29" type="curve"/>
      <point x="177.0" y="29.0"/>
      <point x="78.0" y="118.0"/>
      <point x="78" y="325" type="curve" smooth="yes"/>
      <point x="78" y="376" type="line" smooth="yes"/>
      <point x="78.0" y="575.0"/>
      <point x="157.0" y="654.0"/>
      <point x="300" y="654" type="curve" smooth="yes"/>
      <point x="358" y="654.0"/>
      <point x="418" y="634"/>
      <point x="483" y="594" type="curve"/>
      <point x="515" y="654"/>
      <point x="387" y="715.0"/>
    </contour>
    <contour>
      <point x="300.0" y="-15.0" type="curve" smooth="yes"/>
      <point x="482.0" y="-15.0"/>
      <point x="587.0" y="102.0"/>
      <point x="587.0" y="331.0" type="curve" smooth="yes"/>
      <point x="587.0" y="359.0" type="line" smooth="yes"/>
      <point x="587.0" y="599.0"/>
      <point x="485.0" y="715.0"/>
      <point x="300.0" y="715.0" type="curve" smooth="yes"/>
      <point x="265.0" y="715.0"/>
      <point x="254.0" y="692.0"/>
      <point x="254.0" y="671.0" type="curve"/>
      <point x="423.0" y="671.0"/>
      <point x="522.0" y="583.0"/>
      <point x="522.0" y="375.0" type="curve" smooth="yes"/>
      <point x="522.0" y="324.0" type="line" smooth="yes"/>
      <point x="522.0" y="125.0"/>
      <point x="443.0" y="46.0"/>
      <point x="300.0" y="46.0" type="curve" smooth="yes"/>
      <point x="242.0" y="46.0"/>
      <point x="180.0" y="65.0"/>
      <point x="117.0" y="106.0" type="curve"/>
      <point x="93.0" y="42.0"/>
      <point x="213.0" y="-15.0"/>
    </contour>
    <contour>
      <point x="308" y="485.0" type="curve" smooth="yes"/>
      <point x="350" y="485.0"/>
      <point x="375" y="462"/>
      <point x="386" y="425" type="curve"/>
      <point x="415" y="425.0"/>
      <point x="423.0" y="448.0"/>
      <point x="423" y="463" type="curve" smooth="yes"/>
      <point x="423.0" y="486.0"/>
      <point x="414.0" y="510"/>
      <point x="391" y="533" type="curve" smooth="yes"/>
      <point x="368.0" y="556.0"/>
      <point x="343" y="566"/>
      <point x="306" y="566" type="curve" smooth="yes"/>
      <point x="208.0" y="566.0"/>
      <point x="161.0" y="495.0"/>
      <point x="161.0" y="350" type="curve" smooth="yes"/>
      <point x="161.0" y="339" type="line" smooth="yes"/>
      <point x="161.0" y="297.0"/>
      <point x="205.0" y="162.0"/>
      <point x="289" y="193" type="curve"/>
      <point x="259.0" y="239"/>
      <point x="252.0" y="277.0"/>
      <point x="252" y="345" type="curve" smooth="yes"/>
      <point x="252" y="356" type="line" smooth="yes"/>
      <point x="252" y="446.0"/>
      <point x="269.0" y="485.0"/>
    </contour>
    <contour>
      <point x="307" y="134.0" type="curve" smooth="yes"/>
      <point x="353.0" y="134.0"/>
      <point x="388.0" y="148"/>
      <point x="402" y="166" type="curve"/>
      <point x="417" y="184"/>
      <point x="419.0" y="203.0"/>
      <point x="419" y="226" type="curve" smooth="yes"/>
      <point x="419.0" y="241"/>
      <point x="417.0" y="260"/>
      <point x="412" y="269" type="curve"/>
      <point x="408" y="269" type="line"/>
      <point x="376" y="234.0"/>
      <point x="355.0" y="218.0"/>
      <point x="315" y="218.0" type="curve" smooth="yes"/>
      <point x="266.0" y="218.0"/>
      <point x="235.0" y="246.0"/>
      <point x="231" y="373" type="curve"/>
      <point x="182.0" y="373.0"/>
      <point x="161" y="373"/>
      <point x="161.0" y="339" type="curve" smooth="yes"/>
      <point x="161" y="198.0"/>
      <point x="210.0" y="134.0"/>
    </contour>
    <contour>
      <point x="423" y="406" type="curve"/>
      <point x="423" y="463" type="line" smooth="yes"/>
      <point x="423" y="477"/>
      <point x="399" y="532.0"/>
      <point x="363" y="522" type="curve"/>
      <point x="342.0" y="483.0"/>
      <point x="338" y="466"/>
      <point x="338.0" y="432" type="curve" smooth="yes"/>
      <point x="338" y="428" type="line" smooth="yes"/>
      <point x="338.0" y="404.0"/>
      <point x="351.0" y="397.0"/>
      <point x="378" y="397" type="curve" smooth="yes"/>
      <point x="398.0" y="397.0"/>
      <point x="409.0" y="400.0"/>
    </contour>
  </outline>
</glyph>
<glyph name="ordfeminine" format="1">
  <advance width="600"/>
  <unicode hex="00AA"/>
  <outline>
    <contour>
      <point x="291" y="760.0" type="curve" smooth="yes"/>
      <point x="200.0" y="760.0"/>
      <point x="162.0" y="752.0"/>
      <point x="141" y="731" type="curve" smooth="yes"/>
      <point x="124" y="715"/>
      <point x="117.0" y="691.0"/>
      <point x="117" y="661" type="curve" smooth="yes"/>
      <point x="117" y="646.0"/>
      <point x="118" y="633"/>
      <point x="122" y="620" type="curve"/>
      <point x="126" y="620" type="line"/>
      <point x="173.0" y="636.0"/>
      <point x="205.0" y="641.0"/>
      <point x="257" y="641.0" type="curve" smooth="yes"/>
      <point x="338.0" y="641.0"/>
      <point x="383.0" y="611.0"/>
      <point x="426" y="539.0" type="curve"/>
      <point x="462.0" y="539.0"/>
      <point x="477" y="552"/>
      <point x="477" y="584.0" type="curve"/>
      <point x="477.0" y="671.0"/>
      <point x="412.0" y="760.0"/>
    </contour>
    <contour>
      <point x="325" y="659" type="curve"/>
      <point x="347.0" y="630.0"/>
      <point x="351.0" y="616.0"/>
      <point x="351" y="582.0" type="curve" smooth="yes"/>
      <point x="351.0" y="505"/>
      <point x="351.0" y="485"/>
      <point x="351" y="429" type="curve" smooth="yes"/>
      <point x="351" y="358.0"/>
      <point x="414" y="332"/>
      <point x="488" y="355" type="curve"/>
      <point x="478" y="368"/>
      <point x="477" y="377"/>
      <point x="477" y="399" type="curve" smooth="yes"/>
      <point x="477.0" y="476"/>
      <point x="477.0" y="522"/>
      <point x="477" y="584.0" type="curve" smooth="yes"/>
      <point x="477.0" y="617.0"/>
      <point x="403.0" y="686.0"/>
    </contour>
    <contour>
      <point x="534" y="415.0" type="line"/>
      <point x="531.0" y="415.0" type="line"/>
      <point x="530" y="415.0"/>
      <point x="529" y="415.0"/>
      <point x="528" y="415.0" type="curve" smooth="yes"/>
      <point x="502" y="415.0"/>
      <point x="463" y="427"/>
      <point x="442" y="463" type="curve"/>
      <point x="378" y="463"/>
      <point x="351" y="456"/>
      <point x="351" y="429" type="curve" smooth="yes"/>
      <point x="351" y="358"/>
      <point x="416" y="290"/>
      <point x="485.0" y="290" type="curve" smooth="yes"/>
      <point x="488" y="290" type="line" smooth="yes"/>
      <point x="520" y="290"/>
      <point x="534" y="359"/>
      <point x="534" y="401" type="curve"/>
    </contour>
    <contour>
      <point x="216.0" y="434" type="curve" smooth="yes"/>
      <point x="216.0" y="444" type="line" smooth="yes"/>
      <point x="216.0" y="474.0"/>
      <point x="220.0" y="490.0"/>
      <point x="232" y="509" type="curve"/>
      <point x="186.0" y="525.0"/>
      <point x="90" y="472.0"/>
      <point x="90" y="427" type="curve" smooth="yes"/>
      <point x="90.0" y="413" type="line" smooth="yes"/>
      <point x="90" y="332"/>
      <point x="137.0" y="290.0"/>
      <point x="220" y="290" type="curve" smooth="yes"/>
      <point x="286.0" y="290.0"/>
      <point x="343.0" y="311.0"/>
      <point x="379" y="372" type="curve" smooth="yes"/>
      <point x="398.2488660939406" y="402.7981857503049"/>
      <point x="387.5997516450632" y="428.5336644732491"/>
      <point x="376" y="444" type="curve"/>
      <point x="336.0" y="408.0"/>
      <point x="296.0" y="399.0"/>
      <point x="268" y="399.0" type="curve" smooth="yes"/>
      <point x="265.0" y="399.0" type="line" smooth="yes"/>
      <point x="225.0" y="399.0"/>
      <point x="216.0" y="406.9032258064516"/>
    </contour>
    <contour>
      <point x="393" y="526" type="curve" smooth="yes"/>
      <point x="373" y="545"/>
      <point x="317" y="558.0"/>
      <point x="223.0" y="558" type="curve" smooth="yes"/>
      <point x="144.0" y="558.0"/>
      <point x="90.0" y="487.0"/>
      <point x="90" y="427" type="curve" smooth="yes"/>
      <point x="90" y="402"/>
      <point x="105" y="385"/>
      <point x="131" y="385" type="curve"/>
      <point x="168" y="453"/>
      <point x="215" y="479.0"/>
      <point x="278" y="479" type="curve" smooth="yes"/>
      <point x="315.0" y="479.0"/>
      <point x="367.0" y="473"/>
      <point x="413.0" y="462" type="curve"/>
      <point x="413.0" y="495.0"/>
      <point x="403.0" y="516.0"/>
    </contour>
  </outline>
</glyph>
<glyph name="registered" format="1">
  <advance width="600.0"/>
  <unicode hex="00AE"/>
  <outline>
    <contour>
      <point x="277.0" y="328.6511123168747" type="curve"/>
      <point x="272.0" y="351.86814975583286"/>
      <point x="270.0" y="369.60444926749864"/>
      <point x="270.0" y="396.1703743895822" type="curve"/>
      <point x="270.0" y="536.4807379272925" type="line"/>
      <point x="270.0" y="584.7911014650027"/>
      <point x="256.1785132935431" y="604.054801953337"/>
      <point x="188.78296256104178" y="604.054801953337" type="curve"/>
      <point x="188.78296256104178" y="379.7911014650027" type="line" smooth="yes"/>
      <point x="188.78296256104178" y="345.48073792729247"/>
      <point x="200.51926207270753" y="324.78296256104176"/>
      <point x="225.55778621812263" y="324.78296256104176" type="curve" smooth="yes"/>
      <point x="243.56671613202676" y="324.78296256104176"/>
      <point x="258.76566060770483" y="325.56592512208357"/>
    </contour>
    <contour>
      <point x="167.43407487791643" y="627.6511123168747" type="curve"/>
      <point x="165.0" y="613.1868521004084"/>
      <point x="163.78296256104178" y="600.9368592397979"/>
      <point x="163.78296256104178" y="583.0385241454151" type="curve"/>
      <point x="163.78296256104178" y="568.3488876831253"/>
      <point x="168.43407487791643" y="557.3488876831253"/>
      <point x="178.43407487791643" y="557.3488876831253" type="curve"/>
      <point x="182.43407487791643" y="557.3488876831253"/>
      <point x="186.65111231687467" y="558.3488876831253"/>
      <point x="193.0851871947911" y="559.5659251220835" type="curve" smooth="yes"/>
      <point x="218.73629951166578" y="564.5659251220835"/>
      <point x="257.1703743895822" y="569.914812805209"/>
      <point x="283.60444926749864" y="569.914812805209" type="curve" smooth="yes"/>
      <point x="334.6511123168747" y="569.914812805209"/>
      <point x="360.69777536625065" y="562.2170374389582"/>
      <point x="384.2637004883342" y="538.8214867064569" type="curve"/>
      <point x="412.78296256104176" y="589.4945900226612"/>
      <point x="359.38741182854045" y="640.2170374389582"/>
      <point x="306.8214867064569" y="640.2170374389582" type="curve" smooth="yes"/>
      <point x="264.5577576605649" y="640.2170374389582"/>
      <point x="222.44740717773814" y="636.4340748779165"/>
    </contour>
    <contour>
      <point x="427.6511123168747" y="533.8681497558329" type="curve" smooth="yes"/>
      <point x="427.6511123168747" y="546.4340748779165" type="line" smooth="yes"/>
      <point x="427.6511123168747" y="595.914812805209"/>
      <point x="384.1676614215952" y="640.2170374389582"/>
      <point x="306.8214867064569" y="640.2170374389582" type="curve"/>
      <point x="292.0" y="640.2170374389582"/>
      <point x="271.8296256104178" y="629.3955507325013"/>
      <point x="264.0" y="582.8681497558329" type="curve"/>
      <point x="330.56592512208357" y="582.8681497558329"/>
      <point x="347.43407487791643" y="576.3488876831253"/>
      <point x="347.43407487791643" y="538.7362995116657" type="curve" smooth="yes"/>
      <point x="347.43407487791643" y="538.2170374389582" type="line" smooth="yes"/>
      <point x="347.43407487791643" y="503.77200217037444"/>
      <point x="301.9243081931633" y="480.38741182854045"/>
      <point x="229.42593597395552" y="480.38741182854045" type="curve" smooth="yes"/>
      <point x="216.52941445652385" y="480.38741182854045"/>
      <point x="224.7266504978133" y="480.38741182854045"/>
      <point x="224.78296256104178" y="480.38741182854045" type="curve"/>
      <point x="222.0" y="470.55234332609876"/>
      <point x="221.78296256104178" y="462.4725990233315"/>
      <point x="221.78296256104178" y="449.38741182854045" type="curve" smooth="yes"/>
      <point x="221.78296256104178" y="438.78296256104176"/>
      <point x="234.046663049376" y="414.6511123168747"/>
      <point x="249.21703743895822" y="414.6511123168747" type="curve" smooth="yes"/>
      <point x="252.78296256104178" y="414.6511123168747" type="line" smooth="yes"/>
      <point x="344.6511123168747" y="414.6511123168747"/>
      <point x="427.6511123168747" y="458.60444926749864"/>
    </contour>
    <contour>
      <point x="366.2637004883342" y="483.3874118285404" type="line"/>
      <point x="339.32342589931517" y="482.8480317597236"/>
      <point x="300.5619013241153" y="448.9301706064783"/>
      <point x="308.39555073250136" y="428.60444926749864" type="curve" smooth="yes"/>
      <point x="325.3488876831253" y="377.9148128052089" type="line" smooth="yes"/>
      <point x="336.56592512208357" y="345.56592512208357"/>
      <point x="362.48073792729247" y="324.78296256104176"/>
      <point x="392.2637004883342" y="324.78296256104176" type="curve" smooth="yes"/>
      <point x="398.04666304937604" y="324.78296256104176" type="line" smooth="yes"/>
      <point x="421.2637004883342" y="324.78296256104176"/>
      <point x="429.78296256104176" y="338.21703743895824"/>
      <point x="429.78296256104176" y="358.12371134020617" type="curve"/>
      <point x="429.78296256104176" y="373.12371134020617"/>
      <point x="428.78296256104176" y="393.86814975583286"/>
      <point x="427.13185024416714" y="408.78296256104176" type="curve"/>
      <point x="424.3488876831253" y="408.78296256104176" type="line"/>
      <point x="425.04666304937604" y="404.78296256104176"/>
      <point x="409.86814975583286" y="403.0"/>
      <point x="407.56592512208357" y="403.0" type="curve"/>
      <point x="397.78296256104176" y="403.0"/>
      <point x="393.56592512208357" y="408.3488876831253"/>
      <point x="382.0" y="439.04666304937604" type="curve" smooth="yes"/>
    </contour>
    <contour>
      <point x="300.0" y="760.0" type="curve" smooth="yes"/>
      <point x="135.21703743895822" y="760.0"/>
      <point x="34.95333695062398" y="664.1774743408528"/>
      <point x="34.95333695062398" y="483.906673901248" type="curve" smooth="yes"/>
      <point x="34.95333695062398" y="475.3488876831253" type="line" smooth="yes"/>
      <point x="34.95333695062398" y="294.69777536625065"/>
      <point x="134.72360438854403" y="198.8681497558329"/>
      <point x="300.0" y="198.8681497558329" type="curve" smooth="yes"/>
      <point x="324.1703743895822" y="183.99186109603906"/>
      <point x="345.50987099110324" y="193.07829214402318"/>
      <point x="337.0851871947911" y="242.78296256104178" type="curve"/>
      <point x="183.93290267099377" y="242.78296256104178"/>
      <point x="94.51926207270755" y="320.87628865979383"/>
      <point x="94.51926207270755" y="470.52740097666845" type="curve" smooth="yes"/>
      <point x="94.51926207270755" y="494.60444926749864" type="line" smooth="yes"/>
      <point x="94.51926207270755" y="625.2691010148277"/>
      <point x="166.98603473072905" y="701.8681497558329"/>
      <point x="300.0" y="701.8681497558329" type="curve" smooth="yes"/>
      <point x="377.870051630298" y="701.8681497558329"/>
      <point x="438.25190965833303" y="676.5306013409769"/>
      <point x="494.75257731958766" y="639.3407487791644" type="curve"/>
      <point x="521.9880299718845" y="682.21405650881"/>
      <point x="404.49965039072333" y="760.0"/>
    </contour>
    <contour>
      <point x="300.0" y="198.8681497558329" type="curve" smooth="yes"/>
      <point x="469.7096908783553" y="198.8681497558329"/>
      <point x="565.046663049376" y="296.55350396456396"/>
      <point x="565.046663049376" y="478.87628865979383" type="curve" smooth="yes"/>
      <point x="565.046663049376" y="487.43407487791643" type="line" smooth="yes"/>
      <point x="565.046663049376" y="667.2332632669674"/>
      <point x="469.9148128052089" y="760.0"/>
      <point x="300.0" y="760.0" type="curve" smooth="yes"/>
      <point x="275.8296256104178" y="775.6592512208356"/>
      <point x="255.0851871947911" y="764.8377645143787"/>
      <point x="262.9148128052089" y="716.085187194791" type="curve"/>
      <point x="420.9665966738659" y="716.085187194791"/>
      <point x="505.48073792729247" y="641.0264806953709"/>
      <point x="505.48073792729247" y="493.03852414541507" type="curve" smooth="yes"/>
      <point x="505.48073792729247" y="468.96147585458493" type="line" smooth="yes"/>
      <point x="505.48073792729247" y="335.9229517091698"/>
      <point x="437.61258817145955" y="257.0"/>
      <point x="300.0" y="257.0" type="curve" smooth="yes"/>
      <point x="222.129948369702" y="257.0"/>
      <point x="161.53730463868266" y="282.0332326920327"/>
      <point x="105.24742268041237" y="319.52740097666845" type="curve"/>
      <point x="79.33062540642842" y="276.0752413995012"/>
      <point x="195.27722556338392" y="198.8681497558329"/>
    </contour>
  </outline>
</glyph>
<glyph name="degree" format="1">
  <advance width="600"/>
  <unicode hex="00B0"/>
  <outline>
    <contour>
      <point x="318.0" y="428" type="curve"/>
      <point x="261.0" y="428.0"/>
      <point x="226" y="465.0"/>
      <point x="226" y="525" type="curve" smooth="yes"/>
      <point x="226" y="533.0" type="line" smooth="yes"/>
      <point x="226" y="584"/>
      <point x="254.0" y="612.0"/>
      <point x="307.0" y="612" type="curve" smooth="yes"/>
      <point x="334" y="612"/>
      <point x="353" y="605"/>
      <point x="379" y="580" type="curve"/>
      <point x="403.0" y="636.0"/>
      <point x="375.0" y="710.0"/>
      <point x="302.0" y="710.0" type="curve"/>
      <point x="199.0" y="710.0"/>
      <point x="125.0" y="637.0"/>
      <point x="125.0" y="533.0" type="curve" smooth="yes"/>
      <point x="125.0" y="525.0" type="line" smooth="yes"/>
      <point x="125.0" y="423.0"/>
      <point x="198.0" y="355.0"/>
      <point x="296.0" y="355.0" type="curve"/>
      <point x="314.0" y="355.0"/>
      <point x="318.0" y="382.0"/>
    </contour>
    <contour>
      <point x="280.0" y="627.0" type="curve"/>
      <point x="337.0" y="627.0"/>
      <point x="372.0" y="594.0"/>
      <point x="372.0" y="540.0" type="curve" smooth="yes"/>
      <point x="372.0" y="532.0" type="line" smooth="yes"/>
      <point x="372.0" y="481.0"/>
      <point x="344.0" y="453.0"/>
      <point x="291.0" y="453.0" type="curve" smooth="yes"/>
      <point x="264.0" y="453.0"/>
      <point x="245.0" y="460.0"/>
      <point x="219.0" y="485.0" type="curve"/>
      <point x="195.0" y="429.0"/>
      <point x="223.0" y="355.0"/>
      <point x="296.0" y="355.0" type="curve"/>
      <point x="399.0" y="355.0"/>
      <point x="473.0" y="428.0"/>
      <point x="473.0" y="532.0" type="curve" smooth="yes"/>
      <point x="473.0" y="540.0" type="line" smooth="yes"/>
      <point x="473.0" y="642.0"/>
      <point x="400.0" y="710.0"/>
      <point x="302.0" y="710.0" type="curve"/>
      <point x="284.0" y="710.0"/>
      <point x="280.0" y="692.0"/>
    </contour>
  </outline>
</glyph>
<glyph name="plusminus" format="1">
  <advance width="600.0"/>
  <unicode hex="00B1"/>
  <outline>
    <contour>
      <point x="44.86814975583288" y="459.0" type="line"/>
      <point x="44.86814975583288" y="429.5111231687466"/>
      <point x="44.86814975583288" y="409.41779706999455"/>
      <point x="44.86814975583288" y="379.711882799783" type="curve" smooth="yes"/>
      <point x="44.86814975583288" y="356.11557243624526"/>
      <point x="48.95333695062398" y="341.6429734129137"/>
      <point x="59.123711340206185" y="331.47259902333155" type="curve" smooth="yes"/>
      <point x="64.72816060770484" y="325.86814975583286"/>
      <point x="72.20075963103636" y="323.21703743895824"/>
      <point x="86.09929462832339" y="323.21703743895824" type="curve"/>
      <point x="555.3488876831253" y="323.21703743895824" type="line"/>
      <point x="556.2170374389582" y="355.52740097666845"/>
      <point x="556.8681497558329" y="379.093326098752"/>
      <point x="556.8681497558329" y="410.96961475854584" type="curve" smooth="yes"/>
      <point x="556.8681497558329" y="440.78296256104176"/>
      <point x="549.2637004883343" y="459.0"/>
      <point x="523.0162778079218" y="459.0" type="curve"/>
    </contour>
    <contour>
      <point x="375.0" y="224.30222463374932" type="curve"/>
      <point x="375.0" y="482.093326098752" type="line" smooth="yes"/>
      <point x="375.0" y="512.1318502441671"/>
      <point x="371.9148128052089" y="531.9614758545849"/>
      <point x="358.1785132935431" y="544.8296256104178" type="curve" smooth="yes"/>
      <point x="345.5740640260445" y="556.3488876831253"/>
      <point x="328.2799782962561" y="559.2170374389582"/>
      <point x="313.50515463917526" y="559.2170374389582" type="curve" smooth="yes"/>
      <point x="281.49701573521435" y="559.2170374389582"/>
      <point x="253.40368963646227" y="558.2170374389582"/>
      <point x="213.56592512208357" y="556.2170374389582" type="curve"/>
      <point x="222.56592512208357" y="530.4340748779165"/>
      <point x="225.0" y="517.046663049376"/>
      <point x="225.0" y="473.3874118285404" type="curve" smooth="yes"/>
      <point x="225.0" y="254.46446011937059" type="line" smooth="yes"/>
      <point x="225.0" y="228.65111231687467"/>
      <point x="246.68963646228974" y="223.0"/>
      <point x="276.28594682582747" y="223.0" type="curve" smooth="yes"/>
      <point x="312.5963103635377" y="223.0"/>
      <point x="340.4259359739555" y="223.43407487791643"/>
    </contour>
    <contour>
      <point x="44.86814975583288" y="166.0851871947911" type="line"/>
      <point x="44.86814975583288" y="136.59631036353773"/>
      <point x="44.86814975583288" y="116.50298426478568"/>
      <point x="44.86814975583288" y="86.79706999457406" type="curve" smooth="yes"/>
      <point x="44.86814975583288" y="62.76668475311992"/>
      <point x="49.17037438958221" y="47.425935973955504"/>
      <point x="59.123711340206185" y="37.472599023331526" type="curve" smooth="yes"/>
      <point x="64.72816060770484" y="31.868149755832874"/>
      <point x="72.20075963103636" y="29.217037438958215"/>
      <point x="86.09929462832339" y="29.217037438958215" type="curve"/>
      <point x="555.3488876831253" y="29.217037438958215" type="line"/>
      <point x="556.2170374389582" y="61.527400976668474"/>
      <point x="556.8681497558329" y="85.09332609875204"/>
      <point x="556.8681497558329" y="116.96961475854584" type="curve" smooth="yes"/>
      <point x="556.8681497558329" y="147.65111231687467"/>
      <point x="549.2637004883343" y="166.0851871947911"/>
      <point x="523.0162778079218" y="166.0851871947911" type="curve"/>
    </contour>
  </outline>
</glyph>
